<svg width="1209" height="697" viewBox="0 0 1209 697" fill="none" xmlns="http://www.w3.org/2000/svg">
<rect width="1209" height="697" fill="white"/>
<rect x="549.198" y="270" width="142" height="142" transform="rotate(-90 549.198 270)" fill="#29F60D"/>
<rect x="549.198" y="505" width="142" height="142" transform="rotate(-90 549.198 505)" fill="#AEEEC1"/>
<rect x="147.198" y="270" width="142" height="142" transform="rotate(-90 147.198 270)" fill="#2525E4"/>
<rect x="147.198" y="505" width="142" height="142" transform="rotate(-90 147.198 505)" fill="#A8ACF8"/>
<rect x="348.198" y="270" width="142" height="142" transform="rotate(-90 348.198 270)" fill="#FFD817"/>
<rect x="348.198" y="505" width="142" height="142" transform="rotate(-90 348.198 505)" fill="#FFF3AD"/>
<rect x="750.198" y="270" width="142" height="142" transform="rotate(-90 750.198 270)" fill="#FF5C00"/>
<rect x="951.198" y="270" width="142" height="142" transform="rotate(-90 951.198 270)" fill="#BC64FB"/>
<rect x="750.198" y="505" width="142" height="142" transform="rotate(-90 750.198 505)" fill="#FF5A00" fill-opacity="0.4"/>
<rect x="951.198" y="505" width="142" height="142" transform="rotate(-90 951.198 505)" fill="#D2A5F3"/>
<path d="M551.658 318H550.53L550.986 315.876H549.354L549.594 314.808H551.214L551.646 312.792H550.014L550.254 311.724H551.886L552.33 309.6H553.458L553.002 311.724H554.694L555.15 309.6H556.278L555.822 311.724H557.454L557.214 312.792H555.594L555.162 314.808H556.794L556.554 315.876H554.922L554.478 318H553.35L553.806 315.876H552.114L551.658 318ZM552.774 312.792L552.354 314.808H554.034L554.454 312.792H552.774ZM558.248 318V316.932L561.68 313.452C561.904 313.22 562.064 313.008 562.16 312.816C562.264 312.616 562.316 312.372 562.316 312.084C562.316 311.676 562.18 311.34 561.908 311.076C561.644 310.812 561.304 310.68 560.888 310.68C560.48 310.68 560.136 310.832 559.856 311.136C559.576 311.432 559.436 311.812 559.436 312.276H558.176C558.176 311.74 558.288 311.26 558.512 310.836C558.744 310.412 559.064 310.08 559.472 309.84C559.888 309.6 560.36 309.48 560.888 309.48C561.416 309.48 561.884 309.592 562.292 309.816C562.7 310.032 563.016 310.34 563.24 310.74C563.472 311.132 563.588 311.58 563.588 312.084C563.588 312.548 563.492 312.948 563.3 313.284C563.116 313.612 562.832 313.964 562.448 314.34L560.084 316.752V316.812H563.72V318H558.248ZM567.618 309.48C568.162 309.48 568.658 309.608 569.106 309.864C569.562 310.12 569.918 310.468 570.174 310.908C570.438 311.34 570.57 311.82 570.57 312.348C570.57 312.668 570.518 312.98 570.414 313.284C570.31 313.588 570.19 313.844 570.054 314.052L567.51 318H566.094L567.978 315.036C567.802 315.076 567.614 315.096 567.414 315.096C566.918 315.096 566.458 314.976 566.034 314.736C565.61 314.496 565.274 314.168 565.026 313.752C564.778 313.336 564.654 312.868 564.654 312.348C564.654 311.82 564.782 311.34 565.038 310.908C565.302 310.468 565.658 310.12 566.106 309.864C566.562 309.608 567.066 309.48 567.618 309.48ZM567.618 314.028C567.93 314.028 568.214 313.956 568.47 313.812C568.734 313.66 568.938 313.456 569.082 313.2C569.234 312.944 569.31 312.66 569.31 312.348C569.31 311.868 569.146 311.468 568.818 311.148C568.498 310.82 568.098 310.656 567.618 310.656C567.13 310.656 566.722 310.82 566.394 311.148C566.074 311.468 565.914 311.868 565.914 312.348C565.914 312.66 565.986 312.944 566.13 313.2C566.282 313.456 566.486 313.66 566.742 313.812C567.006 313.956 567.298 314.028 567.618 314.028ZM573.214 318H571.954V309.6H577.366V310.764H573.214V313.224H577.102V314.364H573.214V318ZM581.497 312.504C581.993 312.504 582.453 312.624 582.877 312.864C583.301 313.104 583.637 313.432 583.885 313.848C584.133 314.264 584.257 314.732 584.257 315.252C584.257 315.78 584.125 316.264 583.861 316.704C583.605 317.136 583.249 317.48 582.793 317.736C582.345 317.992 581.849 318.12 581.305 318.12C580.753 318.12 580.249 317.992 579.793 317.736C579.345 317.48 578.989 317.136 578.725 316.704C578.469 316.264 578.341 315.78 578.341 315.252C578.341 314.924 578.393 314.608 578.497 314.304C578.601 314 578.721 313.748 578.857 313.548L581.401 309.6H582.829L580.933 312.564C581.173 312.524 581.361 312.504 581.497 312.504ZM581.305 316.944C581.785 316.944 582.185 316.784 582.505 316.464C582.833 316.136 582.997 315.732 582.997 315.252C582.997 314.94 582.921 314.656 582.769 314.4C582.625 314.144 582.421 313.944 582.157 313.8C581.901 313.648 581.617 313.572 581.305 313.572C580.985 313.572 580.693 313.648 580.429 313.8C580.173 313.944 579.969 314.144 579.817 314.4C579.673 314.656 579.601 314.94 579.601 315.252C579.601 315.732 579.761 316.136 580.081 316.464C580.409 316.784 580.817 316.944 581.305 316.944ZM588.666 318.12C588.05 318.12 587.486 317.952 586.974 317.616C586.47 317.28 586.066 316.788 585.762 316.14C585.466 315.484 585.318 314.704 585.318 313.8C585.318 312.896 585.466 312.12 585.762 311.472C586.066 310.816 586.47 310.32 586.974 309.984C587.486 309.648 588.05 309.48 588.666 309.48C589.282 309.48 589.842 309.648 590.346 309.984C590.858 310.32 591.262 310.816 591.558 311.472C591.862 312.12 592.014 312.896 592.014 313.8C592.014 314.704 591.862 315.484 591.558 316.14C591.262 316.788 590.858 317.28 590.346 317.616C589.842 317.952 589.282 318.12 588.666 318.12ZM588.666 316.92C589.042 316.92 589.386 316.804 589.698 316.572C590.018 316.332 590.274 315.98 590.466 315.516C590.658 315.044 590.754 314.472 590.754 313.8C590.754 313.128 590.658 312.56 590.466 312.096C590.274 311.624 590.018 311.272 589.698 311.04C589.386 310.8 589.042 310.68 588.666 310.68C588.29 310.68 587.942 310.8 587.622 311.04C587.31 311.272 587.058 311.624 586.866 312.096C586.674 312.56 586.578 313.128 586.578 313.8C586.578 314.472 586.674 315.044 586.866 315.516C587.058 315.98 587.31 316.332 587.622 316.572C587.942 316.804 588.29 316.92 588.666 316.92ZM593.54 318V309.6H596.456C597.216 309.6 597.904 309.78 598.52 310.14C599.136 310.5 599.616 311 599.96 311.64C600.312 312.28 600.488 313 600.488 313.8C600.488 314.6 600.312 315.32 599.96 315.96C599.616 316.6 599.136 317.1 598.52 317.46C597.904 317.82 597.216 318 596.456 318H593.54ZM596.456 316.8C596.976 316.8 597.448 316.676 597.872 316.428C598.296 316.172 598.628 315.816 598.868 315.36C599.108 314.904 599.228 314.384 599.228 313.8C599.228 313.216 599.108 312.696 598.868 312.24C598.628 311.784 598.296 311.432 597.872 311.184C597.448 310.928 596.976 310.8 596.456 310.8H594.8V316.8H596.456Z" fill="#7A7A84"/>
<path d="M551.658 555H550.53L550.986 552.876H549.354L549.594 551.808H551.214L551.646 549.792H550.014L550.254 548.724H551.886L552.33 546.6H553.458L553.002 548.724H554.694L555.15 546.6H556.278L555.822 548.724H557.454L557.214 549.792H555.594L555.162 551.808H556.794L556.554 552.876H554.922L554.478 555H553.35L553.806 552.876H552.114L551.658 555ZM552.774 549.792L552.354 551.808H554.034L554.454 549.792H552.774ZM565.616 555H564.26L563.54 552.984H559.676L558.956 555H557.588L560.684 546.6H562.532L565.616 555ZM561.488 547.944L560.084 551.844H563.132L561.728 547.944H561.488ZM572.036 555H566.528V546.6H572.036V547.764H567.788V550.212H571.796V551.352H567.788V553.836H572.036V555ZM579.114 555H573.606V546.6H579.114V547.764H574.866V550.212H578.874V551.352H574.866V553.836H579.114V555ZM586.192 555H580.684V546.6H586.192V547.764H581.944V550.212H585.952V551.352H581.944V553.836H586.192V555ZM591.435 555.12C590.691 555.12 590.011 554.936 589.395 554.568C588.787 554.2 588.303 553.688 587.943 553.032C587.583 552.376 587.403 551.632 587.403 550.8C587.403 549.968 587.583 549.224 587.943 548.568C588.303 547.912 588.787 547.4 589.395 547.032C590.011 546.664 590.691 546.48 591.435 546.48C592.075 546.48 592.655 546.612 593.175 546.876C593.695 547.132 594.127 547.484 594.471 547.932C594.823 548.38 595.067 548.88 595.203 549.432H593.895C593.719 548.912 593.411 548.492 592.971 548.172C592.539 547.844 592.027 547.68 591.435 547.68C590.931 547.68 590.467 547.812 590.043 548.076C589.619 548.332 589.283 548.7 589.035 549.18C588.787 549.652 588.663 550.192 588.663 550.8C588.663 551.408 588.787 551.952 589.035 552.432C589.283 552.904 589.619 553.272 590.043 553.536C590.467 553.792 590.931 553.92 591.435 553.92C592.043 553.92 592.563 553.756 592.995 553.428C593.427 553.092 593.727 552.652 593.895 552.108H595.203C595.067 552.676 594.827 553.188 594.483 553.644C594.139 554.1 593.707 554.46 593.187 554.724C592.667 554.988 592.083 555.12 591.435 555.12ZM597.68 555V548.688H595.928V547.536H597.32C597.56 547.536 597.68 547.412 597.68 547.164V546.6H598.94V555H597.68Z" fill="#7A7A84"/>
<path d="M551.382 299H550.122V290.6H552.234L554.538 297.26H554.778L557.07 290.6H559.194V299H557.934V292.484H557.694L555.426 299H553.878L551.622 292.484H551.382V299ZM562.796 299.12C562.372 299.12 561.996 299.04 561.668 298.88C561.34 298.712 561.088 298.488 560.912 298.208C560.736 297.92 560.648 297.6 560.648 297.248C560.648 296.656 560.852 296.184 561.26 295.832C561.668 295.48 562.276 295.304 563.084 295.304H564.62V295.148C564.62 294.756 564.504 294.444 564.272 294.212C564.048 293.98 563.74 293.864 563.348 293.864C562.972 293.864 562.668 293.952 562.436 294.128C562.204 294.296 562.068 294.5 562.028 294.74H560.864C560.888 294.412 561 294.104 561.2 293.816C561.4 293.52 561.684 293.284 562.052 293.108C562.42 292.932 562.852 292.844 563.348 292.844C564.1 292.844 564.696 293.052 565.136 293.468C565.584 293.884 565.808 294.444 565.808 295.148V299H564.776L564.656 298.34H564.596C564.46 298.54 564.232 298.72 563.912 298.88C563.592 299.04 563.22 299.12 562.796 299.12ZM562.916 298.1C563.444 298.1 563.86 297.956 564.164 297.668C564.468 297.372 564.62 296.972 564.62 296.468V296.252H563.168C562.72 296.252 562.384 296.34 562.16 296.516C561.944 296.692 561.836 296.92 561.836 297.2C561.836 297.472 561.928 297.692 562.112 297.86C562.304 298.02 562.572 298.1 562.916 298.1ZM568.641 299H567.453V290.6H568.641V299ZM572.195 299.12C571.771 299.12 571.395 299.04 571.067 298.88C570.739 298.712 570.487 298.488 570.311 298.208C570.135 297.92 570.047 297.6 570.047 297.248C570.047 296.656 570.251 296.184 570.659 295.832C571.067 295.48 571.675 295.304 572.483 295.304H574.019V295.148C574.019 294.756 573.903 294.444 573.671 294.212C573.447 293.98 573.139 293.864 572.747 293.864C572.371 293.864 572.067 293.952 571.835 294.128C571.603 294.296 571.467 294.5 571.427 294.74H570.263C570.287 294.412 570.399 294.104 570.599 293.816C570.799 293.52 571.083 293.284 571.451 293.108C571.819 292.932 572.251 292.844 572.747 292.844C573.499 292.844 574.095 293.052 574.535 293.468C574.983 293.884 575.207 294.444 575.207 295.148V299H574.175L574.055 298.34H573.995C573.859 298.54 573.631 298.72 573.311 298.88C572.991 299.04 572.619 299.12 572.195 299.12ZM572.315 298.1C572.843 298.1 573.259 297.956 573.563 297.668C573.867 297.372 574.019 296.972 574.019 296.468V296.252H572.567C572.119 296.252 571.783 296.34 571.559 296.516C571.343 296.692 571.235 296.92 571.235 297.2C571.235 297.472 571.327 297.692 571.511 297.86C571.703 298.02 571.971 298.1 572.315 298.1ZM579.431 299.12C578.871 299.12 578.363 298.988 577.907 298.724C577.451 298.452 577.091 298.08 576.827 297.608C576.571 297.128 576.443 296.584 576.443 295.976C576.443 295.376 576.571 294.84 576.827 294.368C577.091 293.888 577.451 293.516 577.907 293.252C578.363 292.98 578.871 292.844 579.431 292.844C580.159 292.844 580.767 293.048 581.255 293.456C581.743 293.864 582.059 294.388 582.203 295.028H581.003C580.899 294.692 580.711 294.428 580.439 294.236C580.167 294.044 579.831 293.948 579.431 293.948C579.103 293.948 578.803 294.032 578.531 294.2C578.259 294.368 578.043 294.608 577.883 294.92C577.723 295.224 577.643 295.576 577.643 295.976C577.643 296.376 577.723 296.732 577.883 297.044C578.043 297.356 578.259 297.596 578.531 297.764C578.803 297.932 579.103 298.016 579.431 298.016C579.831 298.016 580.167 297.916 580.439 297.716C580.711 297.516 580.899 297.24 581.003 296.888H582.203C582.059 297.544 581.743 298.08 581.255 298.496C580.767 298.912 580.159 299.12 579.431 299.12ZM583.46 299V290.6H584.648V293.588H584.708C584.852 293.396 585.076 293.224 585.38 293.072C585.692 292.92 586.044 292.844 586.436 292.844C586.9 292.844 587.312 292.952 587.672 293.168C588.04 293.376 588.324 293.672 588.524 294.056C588.732 294.44 588.836 294.88 588.836 295.376V299H587.648V295.472C587.648 295.04 587.508 294.68 587.228 294.392C586.948 294.104 586.6 293.96 586.184 293.96C585.904 293.96 585.644 294.028 585.404 294.164C585.172 294.3 584.988 294.484 584.852 294.716C584.716 294.948 584.648 295.2 584.648 295.472V299H583.46ZM591.608 299H590.42V292.964H591.608V299ZM591.668 291.824H590.372V290.624H591.668V291.824ZM594.973 299C594.565 299 594.245 298.892 594.013 298.676C593.789 298.452 593.677 298.152 593.677 297.776V294.08H592.717V292.964H593.677V291.212H594.865V292.964H596.245V294.08H594.865V297.536C594.865 297.784 594.989 297.908 595.237 297.908H596.245V299H594.973ZM599.997 299.12C599.437 299.12 598.929 298.988 598.473 298.724C598.017 298.452 597.657 298.08 597.393 297.608C597.137 297.128 597.009 296.584 597.009 295.976C597.009 295.376 597.137 294.84 597.393 294.368C597.657 293.888 598.017 293.516 598.473 293.252C598.929 292.98 599.437 292.844 599.997 292.844C600.533 292.844 601.017 292.972 601.449 293.228C601.889 293.484 602.233 293.836 602.481 294.284C602.737 294.732 602.865 295.236 602.865 295.796C602.865 296.076 602.845 296.288 602.805 296.432H598.197C598.253 296.92 598.449 297.32 598.785 297.632C599.121 297.936 599.525 298.088 599.997 298.088C600.333 298.088 600.629 298.012 600.885 297.86C601.141 297.708 601.333 297.512 601.461 297.272H602.697C602.513 297.808 602.189 298.252 601.725 298.604C601.261 298.948 600.685 299.12 599.997 299.12ZM601.689 295.52C601.649 295.04 601.473 294.644 601.161 294.332C600.849 294.02 600.461 293.864 599.997 293.864C599.517 293.864 599.113 294.02 598.785 294.332C598.457 294.644 598.261 295.04 598.197 295.52H601.689Z" fill="black"/>
<path d="M553.794 536.12C553.05 536.12 552.37 535.936 551.754 535.568C551.146 535.2 550.662 534.688 550.302 534.032C549.942 533.376 549.762 532.632 549.762 531.8C549.762 530.968 549.942 530.224 550.302 529.568C550.662 528.912 551.146 528.4 551.754 528.032C552.37 527.664 553.05 527.48 553.794 527.48C554.434 527.48 555.014 527.612 555.534 527.876C556.054 528.132 556.486 528.484 556.83 528.932C557.182 529.38 557.426 529.88 557.562 530.432H556.254C556.078 529.912 555.77 529.492 555.33 529.172C554.898 528.844 554.386 528.68 553.794 528.68C553.29 528.68 552.826 528.812 552.402 529.076C551.978 529.332 551.642 529.7 551.394 530.18C551.146 530.652 551.022 531.192 551.022 531.8C551.022 532.408 551.146 532.952 551.394 533.432C551.642 533.904 551.978 534.272 552.402 534.536C552.826 534.792 553.29 534.92 553.794 534.92C554.402 534.92 554.922 534.756 555.354 534.428C555.786 534.092 556.086 533.652 556.254 533.108H557.562C557.426 533.676 557.186 534.188 556.842 534.644C556.498 535.1 556.066 535.46 555.546 535.724C555.026 535.988 554.442 536.12 553.794 536.12ZM561.408 536.12C560.848 536.12 560.34 535.988 559.884 535.724C559.428 535.452 559.068 535.08 558.804 534.608C558.548 534.128 558.42 533.584 558.42 532.976C558.42 532.376 558.548 531.84 558.804 531.368C559.068 530.888 559.428 530.516 559.884 530.252C560.34 529.98 560.848 529.844 561.408 529.844C561.944 529.844 562.428 529.972 562.86 530.228C563.3 530.484 563.644 530.836 563.892 531.284C564.148 531.732 564.276 532.236 564.276 532.796C564.276 533.076 564.256 533.288 564.216 533.432H559.608C559.664 533.92 559.86 534.32 560.196 534.632C560.532 534.936 560.936 535.088 561.408 535.088C561.744 535.088 562.04 535.012 562.296 534.86C562.552 534.708 562.744 534.512 562.872 534.272H564.108C563.924 534.808 563.6 535.252 563.136 535.604C562.672 535.948 562.096 536.12 561.408 536.12ZM563.1 532.52C563.06 532.04 562.884 531.644 562.572 531.332C562.26 531.02 561.872 530.864 561.408 530.864C560.928 530.864 560.524 531.02 560.196 531.332C559.868 531.644 559.672 532.04 559.608 532.52H563.1ZM566.801 536H565.613V527.6H566.801V536ZM570.355 536.12C569.931 536.12 569.555 536.04 569.227 535.88C568.899 535.712 568.647 535.488 568.471 535.208C568.295 534.92 568.207 534.6 568.207 534.248C568.207 533.656 568.411 533.184 568.819 532.832C569.227 532.48 569.835 532.304 570.643 532.304H572.179V532.148C572.179 531.756 572.063 531.444 571.831 531.212C571.607 530.98 571.299 530.864 570.907 530.864C570.531 530.864 570.227 530.952 569.995 531.128C569.763 531.296 569.627 531.5 569.587 531.74H568.423C568.447 531.412 568.559 531.104 568.759 530.816C568.959 530.52 569.243 530.284 569.611 530.108C569.979 529.932 570.411 529.844 570.907 529.844C571.659 529.844 572.255 530.052 572.695 530.468C573.143 530.884 573.367 531.444 573.367 532.148V536H572.335L572.215 535.34H572.155C572.019 535.54 571.791 535.72 571.471 535.88C571.151 536.04 570.779 536.12 570.355 536.12ZM570.475 535.1C571.003 535.1 571.419 534.956 571.723 534.668C572.027 534.372 572.179 533.972 572.179 533.468V533.252H570.727C570.279 533.252 569.943 533.34 569.719 533.516C569.503 533.692 569.395 533.92 569.395 534.2C569.395 534.472 569.487 534.692 569.671 534.86C569.863 535.02 570.131 535.1 570.475 535.1ZM577.399 536.12C576.879 536.12 576.407 535.988 575.983 535.724C575.559 535.46 575.223 535.088 574.975 534.608C574.727 534.128 574.603 533.584 574.603 532.976C574.603 532.368 574.727 531.828 574.975 531.356C575.223 530.876 575.559 530.504 575.983 530.24C576.407 529.976 576.879 529.844 577.399 529.844C578.159 529.844 578.767 530.132 579.223 530.708H579.283V527.6H580.471V536H579.451L579.331 535.232H579.271C578.807 535.824 578.183 536.12 577.399 536.12ZM577.543 535.016C577.855 535.016 578.143 534.932 578.407 534.764C578.679 534.596 578.891 534.356 579.043 534.044C579.203 533.732 579.283 533.376 579.283 532.976C579.283 532.576 579.203 532.224 579.043 531.92C578.891 531.608 578.679 531.368 578.407 531.2C578.143 531.032 577.855 530.948 577.543 530.948C577.223 530.948 576.931 531.032 576.667 531.2C576.403 531.368 576.191 531.608 576.031 531.92C575.879 532.224 575.803 532.576 575.803 532.976C575.803 533.384 575.879 533.744 576.031 534.056C576.191 534.36 576.403 534.596 576.667 534.764C576.931 534.932 577.223 535.016 577.543 535.016ZM584.775 536.12C584.215 536.12 583.707 535.988 583.251 535.724C582.795 535.452 582.435 535.08 582.171 534.608C581.915 534.128 581.787 533.584 581.787 532.976C581.787 532.376 581.915 531.84 582.171 531.368C582.435 530.888 582.795 530.516 583.251 530.252C583.707 529.98 584.215 529.844 584.775 529.844C585.335 529.844 585.839 529.98 586.287 530.252C586.743 530.516 587.099 530.888 587.355 531.368C587.619 531.84 587.751 532.376 587.751 532.976C587.751 533.584 587.619 534.128 587.355 534.608C587.099 535.08 586.743 535.452 586.287 535.724C585.839 535.988 585.335 536.12 584.775 536.12ZM584.775 535.016C585.103 535.016 585.403 534.932 585.675 534.764C585.955 534.596 586.175 534.356 586.335 534.044C586.495 533.732 586.575 533.376 586.575 532.976C586.575 532.576 586.495 532.224 586.335 531.92C586.175 531.608 585.955 531.368 585.675 531.2C585.403 531.032 585.103 530.948 584.775 530.948C584.447 530.948 584.143 531.032 583.863 531.2C583.591 531.368 583.375 531.608 583.215 531.92C583.055 532.224 582.975 532.576 582.975 532.976C582.975 533.376 583.055 533.732 583.215 534.044C583.375 534.356 583.591 534.596 583.863 534.764C584.143 534.932 584.447 535.016 584.775 535.016ZM589.025 536V529.964H590.045L590.165 530.588H590.225C590.377 530.396 590.609 530.224 590.921 530.072C591.233 529.92 591.593 529.844 592.001 529.844C592.465 529.844 592.877 529.952 593.237 530.168C593.605 530.376 593.889 530.672 594.089 531.056C594.297 531.44 594.401 531.88 594.401 532.376V536H593.213V532.472C593.213 532.04 593.073 531.68 592.793 531.392C592.513 531.104 592.165 530.96 591.749 530.96C591.469 530.96 591.209 531.028 590.969 531.164C590.737 531.3 590.553 531.484 590.417 531.716C590.281 531.948 590.213 532.2 590.213 532.472V536H589.025Z" fill="black"/>
<path d="M350.658 318H349.53L349.986 315.876H348.354L348.594 314.808H350.214L350.646 312.792H349.014L349.254 311.724H350.886L351.33 309.6H352.458L352.002 311.724H353.694L354.15 309.6H355.278L354.822 311.724H356.454L356.214 312.792H354.594L354.162 314.808H355.794L355.554 315.876H353.922L353.478 318H352.35L352.806 315.876H351.114L350.658 318ZM351.774 312.792L351.354 314.808H353.034L353.454 312.792H351.774ZM358.796 318H357.536V309.6H362.948V310.764H358.796V313.224H362.684V314.364H358.796V318ZM365.652 318H364.392V309.6H369.804V310.764H365.652V313.224H369.54V314.364H365.652V318ZM371.247 318V309.6H374.163C374.923 309.6 375.611 309.78 376.227 310.14C376.843 310.5 377.323 311 377.667 311.64C378.019 312.28 378.195 313 378.195 313.8C378.195 314.6 378.019 315.32 377.667 315.96C377.323 316.6 376.843 317.1 376.227 317.46C375.611 317.82 374.923 318 374.163 318H371.247ZM374.163 316.8C374.683 316.8 375.155 316.676 375.579 316.428C376.003 316.172 376.335 315.816 376.575 315.36C376.815 314.904 376.935 314.384 376.935 313.8C376.935 313.216 376.815 312.696 376.575 312.24C376.335 311.784 376.003 311.432 375.579 311.184C375.155 310.928 374.683 310.8 374.163 310.8H372.507V316.8H374.163ZM382.181 318.12C381.613 318.12 381.113 318.008 380.681 317.784C380.249 317.56 379.913 317.264 379.673 316.896C379.441 316.52 379.325 316.116 379.325 315.684C379.325 315.196 379.457 314.776 379.721 314.424C379.993 314.064 380.289 313.82 380.609 313.692V313.632C380.329 313.504 380.073 313.28 379.841 312.96C379.609 312.64 379.493 312.268 379.493 311.844C379.493 311.412 379.605 311.016 379.829 310.656C380.061 310.296 380.381 310.012 380.789 309.804C381.197 309.588 381.661 309.48 382.181 309.48C382.701 309.48 383.165 309.588 383.573 309.804C383.981 310.012 384.297 310.296 384.521 310.656C384.753 311.016 384.869 311.412 384.869 311.844C384.869 312.268 384.753 312.64 384.521 312.96C384.297 313.28 384.045 313.504 383.765 313.632V313.692C384.085 313.82 384.377 314.064 384.641 314.424C384.913 314.776 385.049 315.196 385.049 315.684C385.049 316.116 384.929 316.52 384.689 316.896C384.457 317.264 384.121 317.56 383.681 317.784C383.249 318.008 382.749 318.12 382.181 318.12ZM382.181 313.14C382.613 313.14 382.957 313.02 383.213 312.78C383.477 312.532 383.609 312.232 383.609 311.88C383.609 311.528 383.477 311.232 383.213 310.992C382.957 310.744 382.613 310.62 382.181 310.62C381.749 310.62 381.401 310.744 381.137 310.992C380.881 311.232 380.753 311.528 380.753 311.88C380.753 312.232 380.881 312.532 381.137 312.78C381.401 313.02 381.749 313.14 382.181 313.14ZM382.181 316.968C382.645 316.968 383.029 316.84 383.333 316.584C383.637 316.32 383.789 315.988 383.789 315.588C383.789 315.196 383.637 314.868 383.333 314.604C383.029 314.34 382.645 314.208 382.181 314.208C381.725 314.208 381.345 314.34 381.041 314.604C380.737 314.868 380.585 315.196 380.585 315.588C380.585 315.988 380.733 316.32 381.029 316.584C381.333 316.84 381.717 316.968 382.181 316.968ZM387.692 318V311.688H385.94V310.536H387.332C387.572 310.536 387.692 310.412 387.692 310.164V309.6H388.952V318H387.692ZM392.678 318H391.298L394.202 310.8H390.206V309.6H395.63V310.668L392.678 318Z" fill="#7A7A84"/>
<path d="M350.658 555H349.53L349.986 552.876H348.354L348.594 551.808H350.214L350.646 549.792H349.014L349.254 548.724H350.886L351.33 546.6H352.458L352.002 548.724H353.694L354.15 546.6H355.278L354.822 548.724H356.454L356.214 549.792H354.594L354.162 551.808H355.794L355.554 552.876H353.922L353.478 555H352.35L352.806 552.876H351.114L350.658 555ZM351.774 549.792L351.354 551.808H353.034L353.454 549.792H351.774ZM358.796 555H357.536V546.6H362.948V547.764H358.796V550.224H362.684V551.364H358.796V555ZM365.652 555H364.392V546.6H369.804V547.764H365.652V550.224H369.54V551.364H365.652V555ZM372.507 555H371.247V546.6H376.659V547.764H372.507V550.224H376.395V551.364H372.507V555ZM380.455 555.12C379.879 555.12 379.371 555.012 378.931 554.796C378.499 554.572 378.163 554.272 377.923 553.896C377.691 553.512 377.575 553.092 377.575 552.636H378.835C378.835 553.004 378.979 553.312 379.267 553.56C379.563 553.808 379.959 553.932 380.455 553.932C380.927 553.932 381.307 553.808 381.595 553.56C381.891 553.312 382.039 553 382.039 552.624C382.039 552.224 381.891 551.896 381.595 551.64C381.307 551.384 380.919 551.256 380.431 551.256H379.891V550.152H380.431C380.895 550.152 381.259 550.032 381.523 549.792C381.787 549.544 381.919 549.236 381.919 548.868C381.919 548.54 381.783 548.26 381.511 548.028C381.239 547.788 380.883 547.668 380.443 547.668C380.019 547.668 379.663 547.788 379.375 548.028C379.095 548.268 378.955 548.552 378.955 548.88H377.695C377.695 548.448 377.811 548.052 378.043 547.692C378.283 547.324 378.611 547.032 379.027 546.816C379.451 546.592 379.931 546.48 380.467 546.48C380.995 546.48 381.463 546.588 381.871 546.804C382.287 547.012 382.607 547.296 382.831 547.656C383.063 548.016 383.179 548.416 383.179 548.856C383.179 549.312 383.047 549.704 382.783 550.032C382.527 550.352 382.243 550.568 381.931 550.68V550.74C382.275 550.852 382.587 551.08 382.867 551.424C383.155 551.768 383.299 552.188 383.299 552.684C383.299 553.124 383.179 553.532 382.939 553.908C382.699 554.276 382.363 554.572 381.931 554.796C381.499 555.012 381.007 555.12 380.455 555.12ZM391.921 555H390.565L389.845 552.984H385.981L385.261 555H383.893L386.989 546.6H388.837L391.921 555ZM387.793 547.944L386.389 551.844H389.437L388.033 547.944H387.793ZM392.833 555V546.6H395.749C396.509 546.6 397.197 546.78 397.813 547.14C398.429 547.5 398.909 548 399.253 548.64C399.605 549.28 399.781 550 399.781 550.8C399.781 551.6 399.605 552.32 399.253 552.96C398.909 553.6 398.429 554.1 397.813 554.46C397.197 554.82 396.509 555 395.749 555H392.833ZM395.749 553.8C396.269 553.8 396.741 553.676 397.165 553.428C397.589 553.172 397.921 552.816 398.161 552.36C398.401 551.904 398.521 551.384 398.521 550.8C398.521 550.216 398.401 549.696 398.161 549.24C397.921 548.784 397.589 548.432 397.165 548.184C396.741 547.928 396.269 547.8 395.749 547.8H394.093V553.8H395.749Z" fill="#7A7A84"/>
<path d="M350.382 299H349.122V290.6H351.234L353.538 297.26H353.778L356.07 290.6H358.194V299H356.934V292.484H356.694L354.426 299H352.878L350.622 292.484H350.382V299ZM361.1 299H359.912V292.964H361.1V299ZM361.16 291.824H359.864V290.624H361.16V291.824ZM363.961 299H362.773V290.6H363.961V295.712L366.445 292.964H367.885L365.173 295.916L368.005 299H366.565L363.961 296.132V299ZM370.562 299.12C370.138 299.12 369.762 299.04 369.434 298.88C369.106 298.712 368.854 298.488 368.678 298.208C368.502 297.92 368.414 297.6 368.414 297.248C368.414 296.656 368.618 296.184 369.026 295.832C369.434 295.48 370.042 295.304 370.85 295.304H372.386V295.148C372.386 294.756 372.27 294.444 372.038 294.212C371.814 293.98 371.506 293.864 371.114 293.864C370.738 293.864 370.434 293.952 370.202 294.128C369.97 294.296 369.834 294.5 369.794 294.74H368.63C368.654 294.412 368.766 294.104 368.966 293.816C369.166 293.52 369.45 293.284 369.818 293.108C370.186 292.932 370.618 292.844 371.114 292.844C371.866 292.844 372.462 293.052 372.902 293.468C373.35 293.884 373.574 294.444 373.574 295.148V299H372.542L372.422 298.34H372.362C372.226 298.54 371.998 298.72 371.678 298.88C371.358 299.04 370.986 299.12 370.562 299.12ZM370.682 298.1C371.21 298.1 371.626 297.956 371.93 297.668C372.234 297.372 372.386 296.972 372.386 296.468V296.252H370.934C370.486 296.252 370.15 296.34 369.926 296.516C369.71 296.692 369.602 296.92 369.602 297.2C369.602 297.472 369.694 297.692 369.878 297.86C370.07 298.02 370.338 298.1 370.682 298.1ZM377.606 299.12C377.086 299.12 376.614 298.988 376.19 298.724C375.766 298.46 375.43 298.088 375.182 297.608C374.934 297.128 374.81 296.584 374.81 295.976C374.81 295.368 374.934 294.828 375.182 294.356C375.43 293.876 375.766 293.504 376.19 293.24C376.614 292.976 377.086 292.844 377.606 292.844C378.366 292.844 378.974 293.132 379.43 293.708H379.49V290.6H380.678V299H379.658L379.538 298.232H379.478C379.014 298.824 378.39 299.12 377.606 299.12ZM377.75 298.016C378.062 298.016 378.35 297.932 378.614 297.764C378.886 297.596 379.098 297.356 379.25 297.044C379.41 296.732 379.49 296.376 379.49 295.976C379.49 295.576 379.41 295.224 379.25 294.92C379.098 294.608 378.886 294.368 378.614 294.2C378.35 294.032 378.062 293.948 377.75 293.948C377.43 293.948 377.138 294.032 376.874 294.2C376.61 294.368 376.398 294.608 376.238 294.92C376.086 295.224 376.01 295.576 376.01 295.976C376.01 296.384 376.086 296.744 376.238 297.056C376.398 297.36 376.61 297.596 376.874 297.764C377.138 297.932 377.43 298.016 377.75 298.016ZM384.982 299.12C384.422 299.12 383.914 298.988 383.458 298.724C383.002 298.452 382.642 298.08 382.378 297.608C382.122 297.128 381.994 296.584 381.994 295.976C381.994 295.376 382.122 294.84 382.378 294.368C382.642 293.888 383.002 293.516 383.458 293.252C383.914 292.98 384.422 292.844 384.982 292.844C385.542 292.844 386.046 292.98 386.494 293.252C386.95 293.516 387.306 293.888 387.562 294.368C387.826 294.84 387.958 295.376 387.958 295.976C387.958 296.584 387.826 297.128 387.562 297.608C387.306 298.08 386.95 298.452 386.494 298.724C386.046 298.988 385.542 299.12 384.982 299.12ZM384.982 298.016C385.31 298.016 385.61 297.932 385.882 297.764C386.162 297.596 386.382 297.356 386.542 297.044C386.702 296.732 386.782 296.376 386.782 295.976C386.782 295.576 386.702 295.224 386.542 294.92C386.382 294.608 386.162 294.368 385.882 294.2C385.61 294.032 385.31 293.948 384.982 293.948C384.654 293.948 384.35 294.032 384.07 294.2C383.798 294.368 383.582 294.608 383.422 294.92C383.262 295.224 383.182 295.576 383.182 295.976C383.182 296.376 383.262 296.732 383.422 297.044C383.582 297.356 383.798 297.596 384.07 297.764C384.35 297.932 384.654 298.016 384.982 298.016Z" fill="black"/>
<path d="M353.094 536H351.246L348.282 527.6H349.638L352.05 534.548H352.29L354.714 527.6H356.07L353.094 536ZM358.363 536.12C357.939 536.12 357.563 536.04 357.235 535.88C356.907 535.712 356.655 535.488 356.479 535.208C356.303 534.92 356.215 534.6 356.215 534.248C356.215 533.656 356.419 533.184 356.827 532.832C357.235 532.48 357.843 532.304 358.651 532.304H360.187V532.148C360.187 531.756 360.071 531.444 359.839 531.212C359.615 530.98 359.307 530.864 358.915 530.864C358.539 530.864 358.235 530.952 358.003 531.128C357.771 531.296 357.635 531.5 357.595 531.74H356.431C356.455 531.412 356.567 531.104 356.767 530.816C356.967 530.52 357.251 530.284 357.619 530.108C357.987 529.932 358.419 529.844 358.915 529.844C359.667 529.844 360.263 530.052 360.703 530.468C361.151 530.884 361.375 531.444 361.375 532.148V536H360.343L360.223 535.34H360.163C360.027 535.54 359.799 535.72 359.479 535.88C359.159 536.04 358.787 536.12 358.363 536.12ZM358.483 535.1C359.011 535.1 359.427 534.956 359.731 534.668C360.035 534.372 360.187 533.972 360.187 533.468V533.252H358.735C358.287 533.252 357.951 533.34 357.727 533.516C357.511 533.692 357.403 533.92 357.403 534.2C357.403 534.472 357.495 534.692 357.679 534.86C357.871 535.02 358.139 535.1 358.483 535.1ZM362.959 536V529.964H363.979L364.099 530.588H364.159C364.311 530.396 364.543 530.224 364.855 530.072C365.167 529.92 365.527 529.844 365.935 529.844C366.399 529.844 366.811 529.952 367.171 530.168C367.539 530.376 367.823 530.672 368.023 531.056C368.231 531.44 368.335 531.88 368.335 532.376V536H367.147V532.472C367.147 532.04 367.007 531.68 366.727 531.392C366.447 531.104 366.099 530.96 365.683 530.96C365.403 530.96 365.143 531.028 364.903 531.164C364.671 531.3 364.487 531.484 364.351 531.716C364.215 531.948 364.147 532.2 364.147 532.472V536H362.959ZM371.108 536H369.92V529.964H371.108V536ZM371.168 528.824H369.872V527.624H371.168V528.824ZM373.969 536H372.781V527.6H373.969V536ZM376.887 536H375.699V527.6H376.887V536ZM380.441 536.12C380.017 536.12 379.641 536.04 379.313 535.88C378.985 535.712 378.733 535.488 378.557 535.208C378.381 534.92 378.293 534.6 378.293 534.248C378.293 533.656 378.497 533.184 378.905 532.832C379.313 532.48 379.921 532.304 380.729 532.304H382.265V532.148C382.265 531.756 382.149 531.444 381.917 531.212C381.693 530.98 381.385 530.864 380.993 530.864C380.617 530.864 380.313 530.952 380.081 531.128C379.849 531.296 379.713 531.5 379.673 531.74H378.509C378.533 531.412 378.645 531.104 378.845 530.816C379.045 530.52 379.329 530.284 379.697 530.108C380.065 529.932 380.497 529.844 380.993 529.844C381.745 529.844 382.341 530.052 382.781 530.468C383.229 530.884 383.453 531.444 383.453 532.148V536H382.421L382.301 535.34H382.241C382.105 535.54 381.877 535.72 381.557 535.88C381.237 536.04 380.865 536.12 380.441 536.12ZM380.561 535.1C381.089 535.1 381.505 534.956 381.809 534.668C382.113 534.372 382.265 533.972 382.265 533.468V533.252H380.813C380.365 533.252 380.029 533.34 379.805 533.516C379.589 533.692 379.481 533.92 379.481 534.2C379.481 534.472 379.573 534.692 379.757 534.86C379.949 535.02 380.217 535.1 380.561 535.1Z" fill="black"/>
<path d="M752.658 318H751.53L751.986 315.876H750.354L750.594 314.808H752.214L752.646 312.792H751.014L751.254 311.724H752.886L753.33 309.6H754.458L754.002 311.724H755.694L756.15 309.6H757.278L756.822 311.724H758.454L758.214 312.792H756.594L756.162 314.808H757.794L757.554 315.876H755.922L755.478 318H754.35L754.806 315.876H753.114L752.658 318ZM753.774 312.792L753.354 314.808H755.034L755.454 312.792H753.774ZM760.796 318H759.536V309.6H764.948V310.764H760.796V313.224H764.684V314.364H760.796V318ZM767.652 318H766.392V309.6H771.804V310.764H767.652V313.224H771.54V314.364H767.652V318ZM775.731 318.12C775.203 318.12 774.731 318.02 774.315 317.82C773.899 317.612 773.563 317.324 773.307 316.956C773.059 316.588 772.911 316.168 772.863 315.696H774.123C774.195 316.064 774.375 316.364 774.663 316.596C774.959 316.82 775.315 316.932 775.731 316.932C776.211 316.932 776.611 316.772 776.931 316.452C777.251 316.132 777.411 315.732 777.411 315.252C777.411 314.756 777.259 314.352 776.955 314.04C776.651 313.728 776.255 313.572 775.767 313.572C775.447 313.572 775.163 313.628 774.915 313.74C774.675 313.852 774.479 314.008 774.327 314.208H773.019L773.499 309.6H778.191V310.776H774.579L774.351 312.864H774.411C774.787 312.568 775.287 312.42 775.911 312.42C776.415 312.42 776.875 312.544 777.291 312.792C777.715 313.032 778.051 313.368 778.299 313.8C778.547 314.232 778.671 314.716 778.671 315.252C778.671 315.796 778.547 316.288 778.299 316.728C778.051 317.16 777.703 317.5 777.255 317.748C776.807 317.996 776.299 318.12 775.731 318.12ZM783.81 318.12C783.066 318.12 782.386 317.936 781.77 317.568C781.162 317.2 780.678 316.688 780.318 316.032C779.958 315.376 779.778 314.632 779.778 313.8C779.778 312.968 779.958 312.224 780.318 311.568C780.678 310.912 781.162 310.4 781.77 310.032C782.386 309.664 783.066 309.48 783.81 309.48C784.45 309.48 785.03 309.612 785.55 309.876C786.07 310.132 786.502 310.484 786.846 310.932C787.198 311.38 787.442 311.88 787.578 312.432H786.27C786.094 311.912 785.786 311.492 785.346 311.172C784.914 310.844 784.402 310.68 783.81 310.68C783.306 310.68 782.842 310.812 782.418 311.076C781.994 311.332 781.658 311.7 781.41 312.18C781.162 312.652 781.038 313.192 781.038 313.8C781.038 314.408 781.162 314.952 781.41 315.432C781.658 315.904 781.994 316.272 782.418 316.536C782.842 316.792 783.306 316.92 783.81 316.92C784.418 316.92 784.938 316.756 785.37 316.428C785.802 316.092 786.102 315.652 786.27 315.108H787.578C787.442 315.676 787.202 316.188 786.858 316.644C786.514 317.1 786.082 317.46 785.562 317.724C785.042 317.988 784.458 318.12 783.81 318.12ZM791.927 318.12C791.311 318.12 790.747 317.952 790.235 317.616C789.731 317.28 789.327 316.788 789.023 316.14C788.727 315.484 788.579 314.704 788.579 313.8C788.579 312.896 788.727 312.12 789.023 311.472C789.327 310.816 789.731 310.32 790.235 309.984C790.747 309.648 791.311 309.48 791.927 309.48C792.543 309.48 793.103 309.648 793.607 309.984C794.119 310.32 794.523 310.816 794.819 311.472C795.123 312.12 795.275 312.896 795.275 313.8C795.275 314.704 795.123 315.484 794.819 316.14C794.523 316.788 794.119 317.28 793.607 317.616C793.103 317.952 792.543 318.12 791.927 318.12ZM791.927 316.92C792.303 316.92 792.647 316.804 792.959 316.572C793.279 316.332 793.535 315.98 793.727 315.516C793.919 315.044 794.015 314.472 794.015 313.8C794.015 313.128 793.919 312.56 793.727 312.096C793.535 311.624 793.279 311.272 792.959 311.04C792.647 310.8 792.303 310.68 791.927 310.68C791.551 310.68 791.203 310.8 790.883 311.04C790.571 311.272 790.319 311.624 790.127 312.096C789.935 312.56 789.839 313.128 789.839 313.8C789.839 314.472 789.935 315.044 790.127 315.516C790.319 315.98 790.571 316.332 790.883 316.572C791.203 316.804 791.551 316.92 791.927 316.92ZM799.826 318.12C799.21 318.12 798.646 317.952 798.134 317.616C797.63 317.28 797.226 316.788 796.922 316.14C796.626 315.484 796.478 314.704 796.478 313.8C796.478 312.896 796.626 312.12 796.922 311.472C797.226 310.816 797.63 310.32 798.134 309.984C798.646 309.648 799.21 309.48 799.826 309.48C800.442 309.48 801.002 309.648 801.506 309.984C802.018 310.32 802.422 310.816 802.718 311.472C803.022 312.12 803.174 312.896 803.174 313.8C803.174 314.704 803.022 315.484 802.718 316.14C802.422 316.788 802.018 317.28 801.506 317.616C801.002 317.952 800.442 318.12 799.826 318.12ZM799.826 316.92C800.202 316.92 800.546 316.804 800.858 316.572C801.178 316.332 801.434 315.98 801.626 315.516C801.818 315.044 801.914 314.472 801.914 313.8C801.914 313.128 801.818 312.56 801.626 312.096C801.434 311.624 801.178 311.272 800.858 311.04C800.546 310.8 800.202 310.68 799.826 310.68C799.45 310.68 799.102 310.8 798.782 311.04C798.47 311.272 798.218 311.624 798.026 312.096C797.834 312.56 797.738 313.128 797.738 313.8C797.738 314.472 797.834 315.044 798.026 315.516C798.218 315.98 798.47 316.332 798.782 316.572C799.102 316.804 799.45 316.92 799.826 316.92Z" fill="#7A7A84"/>
<path d="M953.658 318H952.53L952.986 315.876H951.354L951.594 314.808H953.214L953.646 312.792H952.014L952.254 311.724H953.886L954.33 309.6H955.458L955.002 311.724H956.694L957.15 309.6H958.278L957.822 311.724H959.454L959.214 312.792H957.594L957.162 314.808H958.794L958.554 315.876H956.922L956.478 318H955.35L955.806 315.876H954.114L953.658 318ZM954.774 312.792L954.354 314.808H956.034L956.454 312.792H954.774ZM960.536 318V309.6H964.28C964.72 309.6 965.116 309.704 965.468 309.912C965.828 310.112 966.108 310.392 966.308 310.752C966.516 311.104 966.62 311.5 966.62 311.94C966.62 312.356 966.528 312.724 966.344 313.044C966.16 313.364 965.952 313.596 965.72 313.74V313.8C965.984 313.928 966.22 314.16 966.428 314.496C966.636 314.824 966.74 315.212 966.74 315.66C966.74 316.1 966.636 316.5 966.428 316.86C966.228 317.212 965.948 317.492 965.588 317.7C965.236 317.9 964.84 318 964.4 318H960.536ZM964.196 313.248C964.516 313.248 964.788 313.128 965.012 312.888C965.244 312.648 965.36 312.352 965.36 312C965.36 311.64 965.244 311.34 965.012 311.1C964.788 310.86 964.516 310.74 964.196 310.74H961.796V313.248H964.196ZM964.316 316.86C964.636 316.86 964.908 316.74 965.132 316.5C965.364 316.26 965.48 315.96 965.48 315.6C965.48 315.248 965.364 314.952 965.132 314.712C964.908 314.472 964.636 314.352 964.316 314.352H961.796V316.86H964.316ZM972.001 318.12C971.257 318.12 970.577 317.936 969.961 317.568C969.353 317.2 968.869 316.688 968.509 316.032C968.149 315.376 967.969 314.632 967.969 313.8C967.969 312.968 968.149 312.224 968.509 311.568C968.869 310.912 969.353 310.4 969.961 310.032C970.577 309.664 971.257 309.48 972.001 309.48C972.641 309.48 973.221 309.612 973.741 309.876C974.261 310.132 974.693 310.484 975.037 310.932C975.389 311.38 975.633 311.88 975.769 312.432H974.461C974.285 311.912 973.977 311.492 973.537 311.172C973.105 310.844 972.593 310.68 972.001 310.68C971.497 310.68 971.033 310.812 970.609 311.076C970.185 311.332 969.849 311.7 969.601 312.18C969.353 312.652 969.229 313.192 969.229 313.8C969.229 314.408 969.353 314.952 969.601 315.432C969.849 315.904 970.185 316.272 970.609 316.536C971.033 316.792 971.497 316.92 972.001 316.92C972.609 316.92 973.129 316.756 973.561 316.428C973.993 316.092 974.293 315.652 974.461 315.108H975.769C975.633 315.676 975.393 316.188 975.049 316.644C974.705 317.1 974.273 317.46 973.753 317.724C973.233 317.988 972.649 318.12 972.001 318.12ZM979.783 312.504C980.279 312.504 980.739 312.624 981.163 312.864C981.587 313.104 981.923 313.432 982.171 313.848C982.419 314.264 982.543 314.732 982.543 315.252C982.543 315.78 982.411 316.264 982.147 316.704C981.891 317.136 981.535 317.48 981.079 317.736C980.631 317.992 980.135 318.12 979.591 318.12C979.039 318.12 978.535 317.992 978.079 317.736C977.631 317.48 977.275 317.136 977.011 316.704C976.755 316.264 976.627 315.78 976.627 315.252C976.627 314.924 976.679 314.608 976.783 314.304C976.887 314 977.007 313.748 977.143 313.548L979.687 309.6H981.115L979.219 312.564C979.459 312.524 979.647 312.504 979.783 312.504ZM979.591 316.944C980.071 316.944 980.471 316.784 980.791 316.464C981.119 316.136 981.283 315.732 981.283 315.252C981.283 314.94 981.207 314.656 981.055 314.4C980.911 314.144 980.707 313.944 980.443 313.8C980.187 313.648 979.903 313.572 979.591 313.572C979.271 313.572 978.979 313.648 978.715 313.8C978.459 313.944 978.255 314.144 978.103 314.4C977.959 314.656 977.887 314.94 977.887 315.252C977.887 315.732 978.047 316.136 978.367 316.464C978.695 316.784 979.103 316.944 979.591 316.944ZM988.355 318H987.095V316.2H983.219V315.18L986.387 309.6H988.355V315.072H989.375V316.2H988.355V318ZM984.695 315.012V315.072H987.095V311.184H986.855L984.695 315.012ZM991.831 318H990.571V309.6H995.983V310.764H991.831V313.224H995.719V314.364H991.831V318ZM997.427 318V309.6H1001.17C1001.61 309.6 1002.01 309.704 1002.36 309.912C1002.72 310.112 1003 310.392 1003.2 310.752C1003.41 311.104 1003.51 311.5 1003.51 311.94C1003.51 312.356 1003.42 312.724 1003.23 313.044C1003.05 313.364 1002.84 313.596 1002.61 313.74V313.8C1002.87 313.928 1003.11 314.16 1003.32 314.496C1003.53 314.824 1003.63 315.212 1003.63 315.66C1003.63 316.1 1003.53 316.5 1003.32 316.86C1003.12 317.212 1002.84 317.492 1002.48 317.7C1002.13 317.9 1001.73 318 1001.29 318H997.427ZM1001.09 313.248C1001.41 313.248 1001.68 313.128 1001.9 312.888C1002.13 312.648 1002.25 312.352 1002.25 312C1002.25 311.64 1002.13 311.34 1001.9 311.1C1001.68 310.86 1001.41 310.74 1001.09 310.74H998.687V313.248H1001.09ZM1001.21 316.86C1001.53 316.86 1001.8 316.74 1002.02 316.5C1002.25 316.26 1002.37 315.96 1002.37 315.6C1002.37 315.248 1002.25 314.952 1002.02 314.712C1001.8 314.472 1001.53 314.352 1001.21 314.352H998.687V316.86H1001.21Z" fill="#7A7A84"/>
<path d="M752.658 555H751.53L751.986 552.876H750.354L750.594 551.808H752.214L752.646 549.792H751.014L751.254 548.724H752.886L753.33 546.6H754.458L754.002 548.724H755.694L756.15 546.6H757.278L756.822 548.724H758.454L758.214 549.792H756.594L756.162 551.808H757.794L757.554 552.876H755.922L755.478 555H754.35L754.806 552.876H753.114L752.658 555ZM753.774 549.792L753.354 551.808H755.034L755.454 549.792H753.774ZM759.536 555V546.6H762.452C763.212 546.6 763.9 546.78 764.516 547.14C765.132 547.5 765.612 548 765.956 548.64C766.308 549.28 766.484 550 766.484 550.8C766.484 551.6 766.308 552.32 765.956 552.96C765.612 553.6 765.132 554.1 764.516 554.46C763.9 554.82 763.212 555 762.452 555H759.536ZM762.452 553.8C762.972 553.8 763.444 553.676 763.868 553.428C764.292 553.172 764.624 552.816 764.864 552.36C765.104 551.904 765.224 551.384 765.224 550.8C765.224 550.216 765.104 549.696 764.864 549.24C764.624 548.784 764.292 548.432 763.868 548.184C763.444 547.928 762.972 547.8 762.452 547.8H760.796V553.8H762.452ZM770.806 555.12C770.142 555.12 769.562 555 769.066 554.76C768.57 554.52 768.19 554.196 767.926 553.788C767.662 553.38 767.53 552.932 767.53 552.444H768.79C768.79 552.876 768.966 553.24 769.318 553.536C769.678 553.832 770.174 553.98 770.806 553.98C771.446 553.98 771.922 553.86 772.234 553.62C772.546 553.372 772.702 553.052 772.702 552.66C772.702 552.004 772.246 551.596 771.334 551.436L769.81 551.148C768.41 550.892 767.71 550.156 767.71 548.94C767.71 548.468 767.83 548.048 768.07 547.68C768.31 547.304 768.654 547.012 769.102 546.804C769.55 546.588 770.078 546.48 770.686 546.48C771.342 546.48 771.91 546.596 772.39 546.828C772.878 547.06 773.25 547.38 773.506 547.788C773.77 548.196 773.902 548.652 773.902 549.156H772.642C772.642 548.876 772.562 548.62 772.402 548.388C772.25 548.156 772.026 547.972 771.73 547.836C771.434 547.692 771.086 547.62 770.686 547.62C770.142 547.62 769.718 547.744 769.414 547.992C769.118 548.24 768.97 548.556 768.97 548.94C768.97 549.548 769.394 549.932 770.242 550.092L771.562 550.332C772.402 550.484 773.01 550.748 773.386 551.124C773.77 551.492 773.962 552.004 773.962 552.66C773.962 553.132 773.838 553.556 773.59 553.932C773.35 554.3 772.99 554.592 772.51 554.808C772.038 555.016 771.47 555.12 770.806 555.12ZM782.413 555H781.057L780.337 552.984H776.473L775.753 555H774.385L777.481 546.6H779.329L782.413 555ZM778.285 547.944L776.881 551.844H779.929L778.525 547.944H778.285ZM785.809 555.12C785.281 555.12 784.809 555.02 784.393 554.82C783.977 554.612 783.641 554.324 783.385 553.956C783.137 553.588 782.989 553.168 782.941 552.696H784.201C784.273 553.064 784.453 553.364 784.741 553.596C785.037 553.82 785.393 553.932 785.809 553.932C786.289 553.932 786.689 553.772 787.009 553.452C787.329 553.132 787.489 552.732 787.489 552.252C787.489 551.756 787.337 551.352 787.033 551.04C786.729 550.728 786.333 550.572 785.845 550.572C785.525 550.572 785.241 550.628 784.993 550.74C784.753 550.852 784.557 551.008 784.405 551.208H783.097L783.577 546.6H788.269V547.776H784.657L784.429 549.864H784.489C784.865 549.568 785.365 549.42 785.989 549.42C786.493 549.42 786.953 549.544 787.369 549.792C787.793 550.032 788.129 550.368 788.377 550.8C788.625 551.232 788.749 551.716 788.749 552.252C788.749 552.796 788.625 553.288 788.377 553.728C788.129 554.16 787.781 554.5 787.333 554.748C786.885 554.996 786.377 555.12 785.809 555.12ZM791.476 555H790.216V546.6H795.628V547.764H791.476V550.224H795.364V551.364H791.476V555ZM799.423 555.12C798.847 555.12 798.339 555.012 797.899 554.796C797.467 554.572 797.131 554.272 796.891 553.896C796.659 553.512 796.543 553.092 796.543 552.636H797.803C797.803 553.004 797.947 553.312 798.235 553.56C798.531 553.808 798.927 553.932 799.423 553.932C799.895 553.932 800.275 553.808 800.563 553.56C800.859 553.312 801.007 553 801.007 552.624C801.007 552.224 800.859 551.896 800.563 551.64C800.275 551.384 799.887 551.256 799.399 551.256H798.859V550.152H799.399C799.863 550.152 800.227 550.032 800.491 549.792C800.755 549.544 800.887 549.236 800.887 548.868C800.887 548.54 800.751 548.26 800.479 548.028C800.207 547.788 799.851 547.668 799.411 547.668C798.987 547.668 798.631 547.788 798.343 548.028C798.063 548.268 797.923 548.552 797.923 548.88H796.663C796.663 548.448 796.779 548.052 797.011 547.692C797.251 547.324 797.579 547.032 797.995 546.816C798.419 546.592 798.899 546.48 799.435 546.48C799.963 546.48 800.431 546.588 800.839 546.804C801.255 547.012 801.575 547.296 801.799 547.656C802.031 548.016 802.147 548.416 802.147 548.856C802.147 549.312 802.015 549.704 801.751 550.032C801.495 550.352 801.211 550.568 800.899 550.68V550.74C801.243 550.852 801.555 551.08 801.835 551.424C802.123 551.768 802.267 552.188 802.267 552.684C802.267 553.124 802.147 553.532 801.907 553.908C801.667 554.276 801.331 554.572 800.899 554.796C800.467 555.012 799.975 555.12 799.423 555.12Z" fill="#7A7A84"/>
<path d="M953.658 555H952.53L952.986 552.876H951.354L951.594 551.808H953.214L953.646 549.792H952.014L952.254 548.724H953.886L954.33 546.6H955.458L955.002 548.724H956.694L957.15 546.6H958.278L957.822 548.724H959.454L959.214 549.792H957.594L957.162 551.808H958.794L958.554 552.876H956.922L956.478 555H955.35L955.806 552.876H954.114L953.658 555ZM954.774 549.792L954.354 551.808H956.034L956.454 549.792H954.774ZM960.536 555V546.6H963.452C964.212 546.6 964.9 546.78 965.516 547.14C966.132 547.5 966.612 548 966.956 548.64C967.308 549.28 967.484 550 967.484 550.8C967.484 551.6 967.308 552.32 966.956 552.96C966.612 553.6 966.132 554.1 965.516 554.46C964.9 554.82 964.212 555 963.452 555H960.536ZM963.452 553.8C963.972 553.8 964.444 553.676 964.868 553.428C965.292 553.172 965.624 552.816 965.864 552.36C966.104 551.904 966.224 551.384 966.224 550.8C966.224 550.216 966.104 549.696 965.864 549.24C965.624 548.784 965.292 548.432 964.868 548.184C964.444 547.928 963.972 547.8 963.452 547.8H961.796V553.8H963.452ZM971.806 555.12C971.142 555.12 970.562 555 970.066 554.76C969.57 554.52 969.19 554.196 968.926 553.788C968.662 553.38 968.53 552.932 968.53 552.444H969.79C969.79 552.876 969.966 553.24 970.318 553.536C970.678 553.832 971.174 553.98 971.806 553.98C972.446 553.98 972.922 553.86 973.234 553.62C973.546 553.372 973.702 553.052 973.702 552.66C973.702 552.004 973.246 551.596 972.334 551.436L970.81 551.148C969.41 550.892 968.71 550.156 968.71 548.94C968.71 548.468 968.83 548.048 969.07 547.68C969.31 547.304 969.654 547.012 970.102 546.804C970.55 546.588 971.078 546.48 971.686 546.48C972.342 546.48 972.91 546.596 973.39 546.828C973.878 547.06 974.25 547.38 974.506 547.788C974.77 548.196 974.902 548.652 974.902 549.156H973.642C973.642 548.876 973.562 548.62 973.402 548.388C973.25 548.156 973.026 547.972 972.73 547.836C972.434 547.692 972.086 547.62 971.686 547.62C971.142 547.62 970.718 547.744 970.414 547.992C970.118 548.24 969.97 548.556 969.97 548.94C969.97 549.548 970.394 549.932 971.242 550.092L972.562 550.332C973.402 550.484 974.01 550.748 974.386 551.124C974.77 551.492 974.962 552.004 974.962 552.66C974.962 553.132 974.838 553.556 974.59 553.932C974.35 554.3 973.99 554.592 973.51 554.808C973.038 555.016 972.47 555.12 971.806 555.12ZM983.413 555H982.057L981.337 552.984H977.473L976.753 555H975.385L978.481 546.6H980.329L983.413 555ZM979.285 547.944L977.881 551.844H980.929L979.525 547.944H979.285ZM986.809 555.12C986.281 555.12 985.809 555.02 985.393 554.82C984.977 554.612 984.641 554.324 984.385 553.956C984.137 553.588 983.989 553.168 983.941 552.696H985.201C985.273 553.064 985.453 553.364 985.741 553.596C986.037 553.82 986.393 553.932 986.809 553.932C987.289 553.932 987.689 553.772 988.009 553.452C988.329 553.132 988.489 552.732 988.489 552.252C988.489 551.756 988.337 551.352 988.033 551.04C987.729 550.728 987.333 550.572 986.845 550.572C986.525 550.572 986.241 550.628 985.993 550.74C985.753 550.852 985.557 551.008 985.405 551.208H984.097L984.577 546.6H989.269V547.776H985.657L985.429 549.864H985.489C985.865 549.568 986.365 549.42 986.989 549.42C987.493 549.42 987.953 549.544 988.369 549.792C988.793 550.032 989.129 550.368 989.377 550.8C989.625 551.232 989.749 551.716 989.749 552.252C989.749 552.796 989.625 553.288 989.377 553.728C989.129 554.16 988.781 554.5 988.333 554.748C987.885 554.996 987.377 555.12 986.809 555.12ZM992.476 555H991.216V546.6H996.628V547.764H992.476V550.224H996.364V551.364H992.476V555ZM1000.42 555.12C999.847 555.12 999.339 555.012 998.899 554.796C998.467 554.572 998.131 554.272 997.891 553.896C997.659 553.512 997.543 553.092 997.543 552.636H998.803C998.803 553.004 998.947 553.312 999.235 553.56C999.531 553.808 999.927 553.932 1000.42 553.932C1000.9 553.932 1001.28 553.808 1001.56 553.56C1001.86 553.312 1002.01 553 1002.01 552.624C1002.01 552.224 1001.86 551.896 1001.56 551.64C1001.28 551.384 1000.89 551.256 1000.4 551.256H999.859V550.152H1000.4C1000.86 550.152 1001.23 550.032 1001.49 549.792C1001.76 549.544 1001.89 549.236 1001.89 548.868C1001.89 548.54 1001.75 548.26 1001.48 548.028C1001.21 547.788 1000.85 547.668 1000.41 547.668C999.987 547.668 999.631 547.788 999.343 548.028C999.063 548.268 998.923 548.552 998.923 548.88H997.663C997.663 548.448 997.779 548.052 998.011 547.692C998.251 547.324 998.579 547.032 998.995 546.816C999.419 546.592 999.899 546.48 1000.44 546.48C1000.96 546.48 1001.43 546.588 1001.84 546.804C1002.26 547.012 1002.58 547.296 1002.8 547.656C1003.03 548.016 1003.15 548.416 1003.15 548.856C1003.15 549.312 1003.02 549.704 1002.75 550.032C1002.5 550.352 1002.21 550.568 1001.9 550.68V550.74C1002.24 550.852 1002.56 551.08 1002.84 551.424C1003.12 551.768 1003.27 552.188 1003.27 552.684C1003.27 553.124 1003.15 553.532 1002.91 553.908C1002.67 554.276 1002.33 554.572 1001.9 554.796C1001.47 555.012 1000.98 555.12 1000.42 555.12Z" fill="#7A7A84"/>
<path d="M752.382 299H751.122V290.6H756.534V291.764H752.382V294.224H756.27V295.364H752.382V299ZM757.623 299V292.964H758.643L758.763 293.528H758.823C758.943 293.344 759.087 293.204 759.255 293.108C759.431 293.012 759.663 292.964 759.951 292.964H761.007V294.08H760.059C759.659 294.08 759.351 294.188 759.135 294.404C758.919 294.62 758.811 294.928 758.811 295.328V299H757.623ZM763.147 299H761.959V292.964H763.147V299ZM763.207 291.824H761.911V290.624H763.207V291.824ZM767.4 299.12C766.84 299.12 766.332 298.988 765.876 298.724C765.42 298.452 765.06 298.08 764.796 297.608C764.54 297.128 764.412 296.584 764.412 295.976C764.412 295.376 764.54 294.84 764.796 294.368C765.06 293.888 765.42 293.516 765.876 293.252C766.332 292.98 766.84 292.844 767.4 292.844C767.936 292.844 768.42 292.972 768.852 293.228C769.292 293.484 769.636 293.836 769.884 294.284C770.14 294.732 770.268 295.236 770.268 295.796C770.268 296.076 770.248 296.288 770.208 296.432H765.6C765.656 296.92 765.852 297.32 766.188 297.632C766.524 297.936 766.928 298.088 767.4 298.088C767.736 298.088 768.032 298.012 768.288 297.86C768.544 297.708 768.736 297.512 768.864 297.272H770.1C769.916 297.808 769.592 298.252 769.128 298.604C768.664 298.948 768.088 299.12 767.4 299.12ZM769.092 295.52C769.052 295.04 768.876 294.644 768.564 294.332C768.252 294.02 767.864 293.864 767.4 293.864C766.92 293.864 766.516 294.02 766.188 294.332C765.86 294.644 765.664 295.04 765.6 295.52H769.092ZM771.545 299V292.964H772.565L772.685 293.588H772.745C772.897 293.396 773.129 293.224 773.441 293.072C773.753 292.92 774.113 292.844 774.521 292.844C774.985 292.844 775.397 292.952 775.757 293.168C776.125 293.376 776.409 293.672 776.609 294.056C776.817 294.44 776.921 294.88 776.921 295.376V299H775.733V295.472C775.733 295.04 775.593 294.68 775.313 294.392C775.033 294.104 774.685 293.96 774.269 293.96C773.989 293.96 773.729 294.028 773.489 294.164C773.257 294.3 773.073 294.484 772.937 294.716C772.801 294.948 772.733 295.2 772.733 295.472V299H771.545ZM780.954 299.12C780.434 299.12 779.962 298.988 779.538 298.724C779.114 298.46 778.778 298.088 778.53 297.608C778.282 297.128 778.158 296.584 778.158 295.976C778.158 295.368 778.282 294.828 778.53 294.356C778.778 293.876 779.114 293.504 779.538 293.24C779.962 292.976 780.434 292.844 780.954 292.844C781.714 292.844 782.322 293.132 782.778 293.708H782.838V290.6H784.026V299H783.006L782.886 298.232H782.826C782.362 298.824 781.738 299.12 780.954 299.12ZM781.098 298.016C781.41 298.016 781.698 297.932 781.962 297.764C782.234 297.596 782.446 297.356 782.598 297.044C782.758 296.732 782.838 296.376 782.838 295.976C782.838 295.576 782.758 295.224 782.598 294.92C782.446 294.608 782.234 294.368 781.962 294.2C781.698 294.032 781.41 293.948 781.098 293.948C780.778 293.948 780.486 294.032 780.222 294.2C779.958 294.368 779.746 294.608 779.586 294.92C779.434 295.224 779.358 295.576 779.358 295.976C779.358 296.384 779.434 296.744 779.586 297.056C779.746 297.36 779.958 297.596 780.222 297.764C780.486 297.932 780.778 298.016 781.098 298.016ZM786.937 299H785.749V290.6H786.937V299ZM792.639 292.964H793.899L791.223 300.428C791.103 300.772 790.943 301.02 790.743 301.172C790.543 301.324 790.251 301.4 789.867 301.4H788.559V300.296H789.735C789.935 300.296 790.071 300.188 790.143 299.972L790.347 299.408L787.863 292.964H789.123L790.839 297.56H791.079L792.639 292.964ZM798.823 299H797.563V290.6H802.975V291.764H798.823V294.224H802.711V295.364H798.823V299ZM805.487 299H804.299V292.964H805.487V299ZM805.547 291.824H804.251V290.624H805.547V291.824ZM807.1 299V292.964H808.12L808.24 293.528H808.3C808.42 293.344 808.564 293.204 808.732 293.108C808.908 293.012 809.14 292.964 809.428 292.964H810.484V294.08H809.536C809.136 294.08 808.828 294.188 808.612 294.404C808.396 294.62 808.288 294.928 808.288 295.328V299H807.1ZM813.958 299.12C813.398 299.12 812.89 298.988 812.434 298.724C811.978 298.452 811.618 298.08 811.354 297.608C811.098 297.128 810.97 296.584 810.97 295.976C810.97 295.376 811.098 294.84 811.354 294.368C811.618 293.888 811.978 293.516 812.434 293.252C812.89 292.98 813.398 292.844 813.958 292.844C814.494 292.844 814.978 292.972 815.41 293.228C815.85 293.484 816.194 293.836 816.442 294.284C816.698 294.732 816.826 295.236 816.826 295.796C816.826 296.076 816.806 296.288 816.766 296.432H812.158C812.214 296.92 812.41 297.32 812.746 297.632C813.082 297.936 813.486 298.088 813.958 298.088C814.294 298.088 814.59 298.012 814.846 297.86C815.102 297.708 815.294 297.512 815.422 297.272H816.658C816.474 297.808 816.15 298.252 815.686 298.604C815.222 298.948 814.646 299.12 813.958 299.12ZM815.65 295.52C815.61 295.04 815.434 294.644 815.122 294.332C814.81 294.02 814.422 293.864 813.958 293.864C813.478 293.864 813.074 294.02 812.746 294.332C812.418 294.644 812.222 295.04 812.158 295.52H815.65Z" fill="black"/>
<path d="M956.094 299H954.246L951.282 290.6H952.638L955.05 297.548H955.29L957.714 290.6H959.07L956.094 299ZM961.147 299H959.959V292.964H961.147V299ZM961.207 291.824H959.911V290.624H961.207V291.824ZM965.4 299.12C964.84 299.12 964.332 298.988 963.876 298.724C963.42 298.452 963.06 298.08 962.796 297.608C962.54 297.128 962.412 296.584 962.412 295.976C962.412 295.376 962.54 294.84 962.796 294.368C963.06 293.888 963.42 293.516 963.876 293.252C964.332 292.98 964.84 292.844 965.4 292.844C965.96 292.844 966.464 292.98 966.912 293.252C967.368 293.516 967.724 293.888 967.98 294.368C968.244 294.84 968.376 295.376 968.376 295.976C968.376 296.584 968.244 297.128 967.98 297.608C967.724 298.08 967.368 298.452 966.912 298.724C966.464 298.988 965.96 299.12 965.4 299.12ZM965.4 298.016C965.728 298.016 966.028 297.932 966.3 297.764C966.58 297.596 966.8 297.356 966.96 297.044C967.12 296.732 967.2 296.376 967.2 295.976C967.2 295.576 967.12 295.224 966.96 294.92C966.8 294.608 966.58 294.368 966.3 294.2C966.028 294.032 965.728 293.948 965.4 293.948C965.072 293.948 964.768 294.032 964.488 294.2C964.216 294.368 964 294.608 963.84 294.92C963.68 295.224 963.6 295.576 963.6 295.976C963.6 296.376 963.68 296.732 963.84 297.044C964 297.356 964.216 297.596 964.488 297.764C964.768 297.932 965.072 298.016 965.4 298.016ZM970.898 299H969.71V290.6H970.898V299ZM975.208 299.12C974.648 299.12 974.14 298.988 973.684 298.724C973.228 298.452 972.868 298.08 972.604 297.608C972.348 297.128 972.22 296.584 972.22 295.976C972.22 295.376 972.348 294.84 972.604 294.368C972.868 293.888 973.228 293.516 973.684 293.252C974.14 292.98 974.648 292.844 975.208 292.844C975.744 292.844 976.228 292.972 976.66 293.228C977.1 293.484 977.444 293.836 977.692 294.284C977.948 294.732 978.076 295.236 978.076 295.796C978.076 296.076 978.056 296.288 978.016 296.432H973.408C973.464 296.92 973.66 297.32 973.996 297.632C974.332 297.936 974.736 298.088 975.208 298.088C975.544 298.088 975.84 298.012 976.096 297.86C976.352 297.708 976.544 297.512 976.672 297.272H977.908C977.724 297.808 977.4 298.252 976.936 298.604C976.472 298.948 975.896 299.12 975.208 299.12ZM976.9 295.52C976.86 295.04 976.684 294.644 976.372 294.332C976.06 294.02 975.672 293.864 975.208 293.864C974.728 293.864 974.324 294.02 973.996 294.332C973.668 294.644 973.472 295.04 973.408 295.52H976.9ZM980.988 299C980.58 299 980.26 298.892 980.028 298.676C979.804 298.452 979.692 298.152 979.692 297.776V294.08H978.732V292.964H979.692V291.212H980.88V292.964H982.26V294.08H980.88V297.536C980.88 297.784 981.004 297.908 981.252 297.908H982.26V299H980.988Z" fill="black"/>
<path d="M752.382 536H751.122V527.6H753.234L755.538 534.26H755.778L758.07 527.6H760.194V536H758.934V529.484H758.694L756.426 536H754.878L752.622 529.484H752.382V536ZM763.796 536.12C763.372 536.12 762.996 536.04 762.668 535.88C762.34 535.712 762.088 535.488 761.912 535.208C761.736 534.92 761.648 534.6 761.648 534.248C761.648 533.656 761.852 533.184 762.26 532.832C762.668 532.48 763.276 532.304 764.084 532.304H765.62V532.148C765.62 531.756 765.504 531.444 765.272 531.212C765.048 530.98 764.74 530.864 764.348 530.864C763.972 530.864 763.668 530.952 763.436 531.128C763.204 531.296 763.068 531.5 763.028 531.74H761.864C761.888 531.412 762 531.104 762.2 530.816C762.4 530.52 762.684 530.284 763.052 530.108C763.42 529.932 763.852 529.844 764.348 529.844C765.1 529.844 765.696 530.052 766.136 530.468C766.584 530.884 766.808 531.444 766.808 532.148V536H765.776L765.656 535.34H765.596C765.46 535.54 765.232 535.72 764.912 535.88C764.592 536.04 764.22 536.12 763.796 536.12ZM763.916 535.1C764.444 535.1 764.86 534.956 765.164 534.668C765.468 534.372 765.62 533.972 765.62 533.468V533.252H764.168C763.72 533.252 763.384 533.34 763.16 533.516C762.944 533.692 762.836 533.92 762.836 534.2C762.836 534.472 762.928 534.692 763.112 534.86C763.304 535.02 763.572 535.1 763.916 535.1ZM770.793 536.12C770.329 536.12 769.913 536.016 769.545 535.808C769.185 535.592 768.901 535.292 768.693 534.908C768.493 534.524 768.393 534.084 768.393 533.588V529.964H769.581V533.492C769.581 533.924 769.721 534.284 770.001 534.572C770.281 534.86 770.629 535.004 771.045 535.004C771.325 535.004 771.581 534.936 771.813 534.8C772.053 534.664 772.241 534.48 772.377 534.248C772.513 534.016 772.581 533.764 772.581 533.492V529.964H773.769V536H772.749L772.629 535.376H772.569C772.401 535.576 772.161 535.752 771.849 535.904C771.537 536.048 771.185 536.12 770.793 536.12ZM778.521 536H776.781L774.657 529.964H775.905L777.537 534.656H777.777L779.409 529.964H780.657L778.521 536ZM784.052 536.12C783.492 536.12 782.984 535.988 782.528 535.724C782.072 535.452 781.712 535.08 781.448 534.608C781.192 534.128 781.064 533.584 781.064 532.976C781.064 532.376 781.192 531.84 781.448 531.368C781.712 530.888 782.072 530.516 782.528 530.252C782.984 529.98 783.492 529.844 784.052 529.844C784.588 529.844 785.072 529.972 785.504 530.228C785.944 530.484 786.288 530.836 786.536 531.284C786.792 531.732 786.92 532.236 786.92 532.796C786.92 533.076 786.9 533.288 786.86 533.432H782.252C782.308 533.92 782.504 534.32 782.84 534.632C783.176 534.936 783.58 535.088 784.052 535.088C784.388 535.088 784.684 535.012 784.94 534.86C785.196 534.708 785.388 534.512 785.516 534.272H786.752C786.568 534.808 786.244 535.252 785.78 535.604C785.316 535.948 784.74 536.12 784.052 536.12ZM785.744 532.52C785.704 532.04 785.528 531.644 785.216 531.332C784.904 531.02 784.516 530.864 784.052 530.864C783.572 530.864 783.168 531.02 782.84 531.332C782.512 531.644 782.316 532.04 782.252 532.52H785.744Z" fill="black"/>
<path d="M953.382 536H952.122V527.6H954.234L956.538 534.26H956.778L959.07 527.6H961.194V536H959.934V529.484H959.694L957.426 536H955.878L953.622 529.484H953.382V536ZM964.796 536.12C964.372 536.12 963.996 536.04 963.668 535.88C963.34 535.712 963.088 535.488 962.912 535.208C962.736 534.92 962.648 534.6 962.648 534.248C962.648 533.656 962.852 533.184 963.26 532.832C963.668 532.48 964.276 532.304 965.084 532.304H966.62V532.148C966.62 531.756 966.504 531.444 966.272 531.212C966.048 530.98 965.74 530.864 965.348 530.864C964.972 530.864 964.668 530.952 964.436 531.128C964.204 531.296 964.068 531.5 964.028 531.74H962.864C962.888 531.412 963 531.104 963.2 530.816C963.4 530.52 963.684 530.284 964.052 530.108C964.42 529.932 964.852 529.844 965.348 529.844C966.1 529.844 966.696 530.052 967.136 530.468C967.584 530.884 967.808 531.444 967.808 532.148V536H966.776L966.656 535.34H966.596C966.46 535.54 966.232 535.72 965.912 535.88C965.592 536.04 965.22 536.12 964.796 536.12ZM964.916 535.1C965.444 535.1 965.86 534.956 966.164 534.668C966.468 534.372 966.62 533.972 966.62 533.468V533.252H965.168C964.72 533.252 964.384 533.34 964.16 533.516C963.944 533.692 963.836 533.92 963.836 534.2C963.836 534.472 963.928 534.692 964.112 534.86C964.304 535.02 964.572 535.1 964.916 535.1ZM971.793 536.12C971.329 536.12 970.913 536.016 970.545 535.808C970.185 535.592 969.901 535.292 969.693 534.908C969.493 534.524 969.393 534.084 969.393 533.588V529.964H970.581V533.492C970.581 533.924 970.721 534.284 971.001 534.572C971.281 534.86 971.629 535.004 972.045 535.004C972.325 535.004 972.581 534.936 972.813 534.8C973.053 534.664 973.241 534.48 973.377 534.248C973.513 534.016 973.581 533.764 973.581 533.492V529.964H974.769V536H973.749L973.629 535.376H973.569C973.401 535.576 973.161 535.752 972.849 535.904C972.537 536.048 972.185 536.12 971.793 536.12ZM979.521 536H977.781L975.657 529.964H976.905L978.537 534.656H978.777L980.409 529.964H981.657L979.521 536ZM985.052 536.12C984.492 536.12 983.984 535.988 983.528 535.724C983.072 535.452 982.712 535.08 982.448 534.608C982.192 534.128 982.064 533.584 982.064 532.976C982.064 532.376 982.192 531.84 982.448 531.368C982.712 530.888 983.072 530.516 983.528 530.252C983.984 529.98 984.492 529.844 985.052 529.844C985.588 529.844 986.072 529.972 986.504 530.228C986.944 530.484 987.288 530.836 987.536 531.284C987.792 531.732 987.92 532.236 987.92 532.796C987.92 533.076 987.9 533.288 987.86 533.432H983.252C983.308 533.92 983.504 534.32 983.84 534.632C984.176 534.936 984.58 535.088 985.052 535.088C985.388 535.088 985.684 535.012 985.94 534.86C986.196 534.708 986.388 534.512 986.516 534.272H987.752C987.568 534.808 987.244 535.252 986.78 535.604C986.316 535.948 985.74 536.12 985.052 536.12ZM986.744 532.52C986.704 532.04 986.528 531.644 986.216 531.332C985.904 531.02 985.516 530.864 985.052 530.864C984.572 530.864 984.168 531.02 983.84 531.332C983.512 531.644 983.316 532.04 983.252 532.52H986.744Z" fill="black"/>
<path d="M149.658 318H148.53L148.986 315.876H147.354L147.594 314.808H149.214L149.646 312.792H148.014L148.254 311.724H149.886L150.33 309.6H151.458L151.002 311.724H152.694L153.15 309.6H154.278L153.822 311.724H155.454L155.214 312.792H153.594L153.162 314.808H154.794L154.554 315.876H152.922L152.478 318H151.35L151.806 315.876H150.114L149.658 318ZM150.774 312.792L150.354 314.808H152.034L152.454 312.792H150.774ZM156.248 318V316.932L159.68 313.452C159.904 313.22 160.064 313.008 160.16 312.816C160.264 312.616 160.316 312.372 160.316 312.084C160.316 311.676 160.18 311.34 159.908 311.076C159.644 310.812 159.304 310.68 158.888 310.68C158.48 310.68 158.136 310.832 157.856 311.136C157.576 311.432 157.436 311.812 157.436 312.276H156.176C156.176 311.74 156.288 311.26 156.512 310.836C156.744 310.412 157.064 310.08 157.472 309.84C157.888 309.6 158.36 309.48 158.888 309.48C159.416 309.48 159.884 309.592 160.292 309.816C160.7 310.032 161.016 310.34 161.24 310.74C161.472 311.132 161.588 311.58 161.588 312.084C161.588 312.548 161.492 312.948 161.3 313.284C161.116 313.612 160.832 313.964 160.448 314.34L158.084 316.752V316.812H161.72V318H156.248ZM165.606 318.12C165.078 318.12 164.606 318.02 164.19 317.82C163.774 317.612 163.438 317.324 163.182 316.956C162.934 316.588 162.786 316.168 162.738 315.696H163.998C164.07 316.064 164.25 316.364 164.538 316.596C164.834 316.82 165.19 316.932 165.606 316.932C166.086 316.932 166.486 316.772 166.806 316.452C167.126 316.132 167.286 315.732 167.286 315.252C167.286 314.756 167.134 314.352 166.83 314.04C166.526 313.728 166.13 313.572 165.642 313.572C165.322 313.572 165.038 313.628 164.79 313.74C164.55 313.852 164.354 314.008 164.202 314.208H162.894L163.374 309.6H168.066V310.776H164.454L164.226 312.864H164.286C164.662 312.568 165.162 312.42 165.786 312.42C166.29 312.42 166.75 312.544 167.166 312.792C167.59 313.032 167.926 313.368 168.174 313.8C168.422 314.232 168.546 314.716 168.546 315.252C168.546 315.796 168.422 316.288 168.174 316.728C167.926 317.16 167.578 317.5 167.13 317.748C166.682 317.996 166.174 318.12 165.606 318.12ZM169.49 318V316.932L172.922 313.452C173.146 313.22 173.306 313.008 173.402 312.816C173.506 312.616 173.558 312.372 173.558 312.084C173.558 311.676 173.422 311.34 173.15 311.076C172.886 310.812 172.546 310.68 172.13 310.68C171.722 310.68 171.378 310.832 171.098 311.136C170.818 311.432 170.678 311.812 170.678 312.276H169.418C169.418 311.74 169.53 311.26 169.754 310.836C169.986 310.412 170.306 310.08 170.714 309.84C171.13 309.6 171.602 309.48 172.13 309.48C172.658 309.48 173.126 309.592 173.534 309.816C173.942 310.032 174.258 310.34 174.482 310.74C174.714 311.132 174.83 311.58 174.83 312.084C174.83 312.548 174.734 312.948 174.542 313.284C174.358 313.612 174.074 313.964 173.69 314.34L171.326 316.752V316.812H174.962V318H169.49ZM178.848 318.12C178.32 318.12 177.848 318.02 177.432 317.82C177.016 317.612 176.68 317.324 176.424 316.956C176.176 316.588 176.028 316.168 175.98 315.696H177.24C177.312 316.064 177.492 316.364 177.78 316.596C178.076 316.82 178.432 316.932 178.848 316.932C179.328 316.932 179.728 316.772 180.048 316.452C180.368 316.132 180.528 315.732 180.528 315.252C180.528 314.756 180.376 314.352 180.072 314.04C179.768 313.728 179.372 313.572 178.884 313.572C178.564 313.572 178.28 313.628 178.032 313.74C177.792 313.852 177.596 314.008 177.444 314.208H176.136L176.616 309.6H181.308V310.776H177.696L177.468 312.864H177.528C177.904 312.568 178.404 312.42 179.028 312.42C179.532 312.42 179.992 312.544 180.408 312.792C180.832 313.032 181.168 313.368 181.416 313.8C181.664 314.232 181.788 314.716 181.788 315.252C181.788 315.796 181.664 316.288 181.416 316.728C181.168 317.16 180.82 317.5 180.372 317.748C179.924 317.996 179.416 318.12 178.848 318.12ZM188.763 318H183.255V309.6H188.763V310.764H184.515V313.212H188.523V314.352H184.515V316.836H188.763V318ZM194.761 318H193.501V316.2H189.625V315.18L192.793 309.6H194.761V315.072H195.781V316.2H194.761V318ZM191.101 315.012V315.072H193.501V311.184H193.261L191.101 315.012Z" fill="#7A7A84"/>
<path d="M149.658 555H148.53L148.986 552.876H147.354L147.594 551.808H149.214L149.646 549.792H148.014L148.254 548.724H149.886L150.33 546.6H151.458L151.002 548.724H152.694L153.15 546.6H154.278L153.822 548.724H155.454L155.214 549.792H153.594L153.162 551.808H154.794L154.554 552.876H152.922L152.478 555H151.35L151.806 552.876H150.114L149.658 555ZM150.774 549.792L150.354 551.808H152.034L152.454 549.792H150.774ZM163.616 555H162.26L161.54 552.984H157.676L156.956 555H155.588L158.684 546.6H160.532L163.616 555ZM159.488 547.944L158.084 551.844H161.132L159.728 547.944H159.488ZM167.024 555.12C166.456 555.12 165.956 555.008 165.524 554.784C165.092 554.56 164.756 554.264 164.516 553.896C164.284 553.52 164.168 553.116 164.168 552.684C164.168 552.196 164.3 551.776 164.564 551.424C164.836 551.064 165.132 550.82 165.452 550.692V550.632C165.172 550.504 164.916 550.28 164.684 549.96C164.452 549.64 164.336 549.268 164.336 548.844C164.336 548.412 164.448 548.016 164.672 547.656C164.904 547.296 165.224 547.012 165.632 546.804C166.04 546.588 166.504 546.48 167.024 546.48C167.544 546.48 168.008 546.588 168.416 546.804C168.824 547.012 169.14 547.296 169.364 547.656C169.596 548.016 169.712 548.412 169.712 548.844C169.712 549.268 169.596 549.64 169.364 549.96C169.14 550.28 168.888 550.504 168.608 550.632V550.692C168.928 550.82 169.22 551.064 169.484 551.424C169.756 551.776 169.892 552.196 169.892 552.684C169.892 553.116 169.772 553.52 169.532 553.896C169.3 554.264 168.964 554.56 168.524 554.784C168.092 555.008 167.592 555.12 167.024 555.12ZM167.024 550.14C167.456 550.14 167.8 550.02 168.056 549.78C168.32 549.532 168.452 549.232 168.452 548.88C168.452 548.528 168.32 548.232 168.056 547.992C167.8 547.744 167.456 547.62 167.024 547.62C166.592 547.62 166.244 547.744 165.98 547.992C165.724 548.232 165.596 548.528 165.596 548.88C165.596 549.232 165.724 549.532 165.98 549.78C166.244 550.02 166.592 550.14 167.024 550.14ZM167.024 553.968C167.488 553.968 167.872 553.84 168.176 553.584C168.48 553.32 168.632 552.988 168.632 552.588C168.632 552.196 168.48 551.868 168.176 551.604C167.872 551.34 167.488 551.208 167.024 551.208C166.568 551.208 166.188 551.34 165.884 551.604C165.58 551.868 165.428 552.196 165.428 552.588C165.428 552.988 165.576 553.32 165.872 553.584C166.176 553.84 166.56 553.968 167.024 553.968ZM178.464 555H177.108L176.388 552.984H172.524L171.804 555H170.436L173.532 546.6H175.38L178.464 555ZM174.336 547.944L172.932 551.844H175.98L174.576 547.944H174.336ZM182.814 555.12C182.07 555.12 181.39 554.936 180.774 554.568C180.166 554.2 179.682 553.688 179.322 553.032C178.962 552.376 178.782 551.632 178.782 550.8C178.782 549.968 178.962 549.224 179.322 548.568C179.682 547.912 180.166 547.4 180.774 547.032C181.39 546.664 182.07 546.48 182.814 546.48C183.454 546.48 184.034 546.612 184.554 546.876C185.074 547.132 185.506 547.484 185.85 547.932C186.202 548.38 186.446 548.88 186.582 549.432H185.274C185.098 548.912 184.79 548.492 184.35 548.172C183.918 547.844 183.406 547.68 182.814 547.68C182.31 547.68 181.846 547.812 181.422 548.076C180.998 548.332 180.662 548.7 180.414 549.18C180.166 549.652 180.042 550.192 180.042 550.8C180.042 551.408 180.166 551.952 180.414 552.432C180.662 552.904 180.998 553.272 181.422 553.536C181.846 553.792 182.31 553.92 182.814 553.92C183.422 553.92 183.942 553.756 184.374 553.428C184.806 553.092 185.106 552.652 185.274 552.108H186.582C186.446 552.676 186.206 553.188 185.862 553.644C185.518 554.1 185.086 554.46 184.566 554.724C184.046 554.988 183.462 555.12 182.814 555.12ZM189.167 555H187.907V546.6H193.319V547.764H189.167V550.224H193.055V551.364H189.167V555ZM197.259 555.12C196.691 555.12 196.191 555.008 195.759 554.784C195.327 554.56 194.991 554.264 194.751 553.896C194.519 553.52 194.403 553.116 194.403 552.684C194.403 552.196 194.535 551.776 194.799 551.424C195.071 551.064 195.367 550.82 195.687 550.692V550.632C195.407 550.504 195.151 550.28 194.919 549.96C194.687 549.64 194.571 549.268 194.571 548.844C194.571 548.412 194.683 548.016 194.907 547.656C195.139 547.296 195.459 547.012 195.867 546.804C196.275 546.588 196.739 546.48 197.259 546.48C197.779 546.48 198.243 546.588 198.651 546.804C199.059 547.012 199.375 547.296 199.599 547.656C199.831 548.016 199.947 548.412 199.947 548.844C199.947 549.268 199.831 549.64 199.599 549.96C199.375 550.28 199.123 550.504 198.843 550.632V550.692C199.163 550.82 199.455 551.064 199.719 551.424C199.991 551.776 200.127 552.196 200.127 552.684C200.127 553.116 200.007 553.52 199.767 553.896C199.535 554.264 199.199 554.56 198.759 554.784C198.327 555.008 197.827 555.12 197.259 555.12ZM197.259 550.14C197.691 550.14 198.035 550.02 198.291 549.78C198.555 549.532 198.687 549.232 198.687 548.88C198.687 548.528 198.555 548.232 198.291 547.992C198.035 547.744 197.691 547.62 197.259 547.62C196.827 547.62 196.479 547.744 196.215 547.992C195.959 548.232 195.831 548.528 195.831 548.88C195.831 549.232 195.959 549.532 196.215 549.78C196.479 550.02 196.827 550.14 197.259 550.14ZM197.259 553.968C197.723 553.968 198.107 553.84 198.411 553.584C198.715 553.32 198.867 552.988 198.867 552.588C198.867 552.196 198.715 551.868 198.411 551.604C198.107 551.34 197.723 551.208 197.259 551.208C196.803 551.208 196.423 551.34 196.119 551.604C195.815 551.868 195.663 552.196 195.663 552.588C195.663 552.988 195.811 553.32 196.107 553.584C196.411 553.84 196.795 553.968 197.259 553.968Z" fill="#7A7A84"/>
<path d="M148.122 299V290.6H151.866C152.306 290.6 152.702 290.704 153.054 290.912C153.414 291.112 153.694 291.392 153.894 291.752C154.102 292.104 154.206 292.5 154.206 292.94C154.206 293.356 154.114 293.724 153.93 294.044C153.746 294.364 153.538 294.596 153.306 294.74V294.8C153.57 294.928 153.806 295.16 154.014 295.496C154.222 295.824 154.326 296.212 154.326 296.66C154.326 297.1 154.222 297.5 154.014 297.86C153.814 298.212 153.534 298.492 153.174 298.7C152.822 298.9 152.426 299 151.986 299H148.122ZM151.782 294.248C152.102 294.248 152.374 294.128 152.598 293.888C152.83 293.648 152.946 293.352 152.946 293C152.946 292.64 152.83 292.34 152.598 292.1C152.374 291.86 152.102 291.74 151.782 291.74H149.382V294.248H151.782ZM151.902 297.86C152.222 297.86 152.494 297.74 152.718 297.5C152.95 297.26 153.066 296.96 153.066 296.6C153.066 296.248 152.95 295.952 152.718 295.712C152.494 295.472 152.222 295.352 151.902 295.352H149.382V297.86H151.902ZM157.043 299H155.855V290.6H157.043V299ZM161.113 299.12C160.649 299.12 160.233 299.016 159.865 298.808C159.505 298.592 159.221 298.292 159.013 297.908C158.813 297.524 158.713 297.084 158.713 296.588V292.964H159.901V296.492C159.901 296.924 160.041 297.284 160.321 297.572C160.601 297.86 160.949 298.004 161.365 298.004C161.645 298.004 161.901 297.936 162.133 297.8C162.373 297.664 162.561 297.48 162.697 297.248C162.833 297.016 162.901 296.764 162.901 296.492V292.964H164.089V299H163.069L162.949 298.376H162.889C162.721 298.576 162.481 298.752 162.169 298.904C161.857 299.048 161.505 299.12 161.113 299.12ZM168.338 299.12C167.778 299.12 167.27 298.988 166.814 298.724C166.358 298.452 165.998 298.08 165.734 297.608C165.478 297.128 165.35 296.584 165.35 295.976C165.35 295.376 165.478 294.84 165.734 294.368C165.998 293.888 166.358 293.516 166.814 293.252C167.27 292.98 167.778 292.844 168.338 292.844C168.874 292.844 169.358 292.972 169.79 293.228C170.23 293.484 170.574 293.836 170.822 294.284C171.078 294.732 171.206 295.236 171.206 295.796C171.206 296.076 171.186 296.288 171.146 296.432H166.538C166.594 296.92 166.79 297.32 167.126 297.632C167.462 297.936 167.866 298.088 168.338 298.088C168.674 298.088 168.97 298.012 169.226 297.86C169.482 297.708 169.674 297.512 169.802 297.272H171.038C170.854 297.808 170.53 298.252 170.066 298.604C169.602 298.948 169.026 299.12 168.338 299.12ZM170.03 295.52C169.99 295.04 169.814 294.644 169.502 294.332C169.19 294.02 168.802 293.864 168.338 293.864C167.858 293.864 167.454 294.02 167.126 294.332C166.798 294.644 166.602 295.04 166.538 295.52H170.03Z" fill="black"/>
<path d="M148.122 536V527.6H151.854C152.326 527.6 152.754 527.716 153.138 527.948C153.522 528.172 153.822 528.488 154.038 528.896C154.262 529.304 154.374 529.768 154.374 530.288C154.374 530.808 154.262 531.276 154.038 531.692C153.822 532.1 153.522 532.42 153.138 532.652C152.754 532.876 152.326 532.988 151.854 532.988H149.382V536H148.122ZM151.818 531.788C152.178 531.788 152.482 531.652 152.73 531.38C152.986 531.1 153.114 530.736 153.114 530.288C153.114 529.84 152.99 529.48 152.742 529.208C152.494 528.936 152.186 528.8 151.818 528.8H149.382V531.788H151.818ZM158.119 536.12C157.559 536.12 157.051 535.988 156.595 535.724C156.139 535.452 155.779 535.08 155.515 534.608C155.259 534.128 155.131 533.584 155.131 532.976C155.131 532.376 155.259 531.84 155.515 531.368C155.779 530.888 156.139 530.516 156.595 530.252C157.051 529.98 157.559 529.844 158.119 529.844C158.679 529.844 159.183 529.98 159.631 530.252C160.087 530.516 160.443 530.888 160.699 531.368C160.963 531.84 161.095 532.376 161.095 532.976C161.095 533.584 160.963 534.128 160.699 534.608C160.443 535.08 160.087 535.452 159.631 535.724C159.183 535.988 158.679 536.12 158.119 536.12ZM158.119 535.016C158.447 535.016 158.747 534.932 159.019 534.764C159.299 534.596 159.519 534.356 159.679 534.044C159.839 533.732 159.919 533.376 159.919 532.976C159.919 532.576 159.839 532.224 159.679 531.92C159.519 531.608 159.299 531.368 159.019 531.2C158.747 531.032 158.447 530.948 158.119 530.948C157.791 530.948 157.487 531.032 157.207 531.2C156.935 531.368 156.719 531.608 156.559 531.92C156.399 532.224 156.319 532.576 156.319 532.976C156.319 533.376 156.399 533.732 156.559 534.044C156.719 534.356 156.935 534.596 157.207 534.764C157.487 534.932 157.791 535.016 158.119 535.016ZM164.964 536H163.188L161.592 529.964H162.84L164.016 534.512H164.256L165.444 529.964H166.992L168.18 534.512H168.42L169.596 529.964H170.844L169.236 536H167.472L166.344 531.584H166.104L164.964 536ZM174.122 536.12C173.602 536.12 173.13 535.988 172.706 535.724C172.282 535.46 171.946 535.088 171.698 534.608C171.45 534.128 171.326 533.584 171.326 532.976C171.326 532.368 171.45 531.828 171.698 531.356C171.946 530.876 172.282 530.504 172.706 530.24C173.13 529.976 173.602 529.844 174.122 529.844C174.882 529.844 175.49 530.132 175.946 530.708H176.006V527.6H177.194V536H176.174L176.054 535.232H175.994C175.53 535.824 174.906 536.12 174.122 536.12ZM174.266 535.016C174.578 535.016 174.866 534.932 175.13 534.764C175.402 534.596 175.614 534.356 175.766 534.044C175.926 533.732 176.006 533.376 176.006 532.976C176.006 532.576 175.926 532.224 175.766 531.92C175.614 531.608 175.402 531.368 175.13 531.2C174.866 531.032 174.578 530.948 174.266 530.948C173.946 530.948 173.654 531.032 173.39 531.2C173.126 531.368 172.914 531.608 172.754 531.92C172.602 532.224 172.526 532.576 172.526 532.976C172.526 533.384 172.602 533.744 172.754 534.056C172.914 534.36 173.126 534.596 173.39 534.764C173.654 534.932 173.946 535.016 174.266 535.016ZM181.498 536.12C180.938 536.12 180.43 535.988 179.974 535.724C179.518 535.452 179.158 535.08 178.894 534.608C178.638 534.128 178.51 533.584 178.51 532.976C178.51 532.376 178.638 531.84 178.894 531.368C179.158 530.888 179.518 530.516 179.974 530.252C180.43 529.98 180.938 529.844 181.498 529.844C182.034 529.844 182.518 529.972 182.95 530.228C183.39 530.484 183.734 530.836 183.982 531.284C184.238 531.732 184.366 532.236 184.366 532.796C184.366 533.076 184.346 533.288 184.306 533.432H179.698C179.754 533.92 179.95 534.32 180.286 534.632C180.622 534.936 181.026 535.088 181.498 535.088C181.834 535.088 182.13 535.012 182.386 534.86C182.642 534.708 182.834 534.512 182.962 534.272H184.198C184.014 534.808 183.69 535.252 183.226 535.604C182.762 535.948 182.186 536.12 181.498 536.12ZM183.19 532.52C183.15 532.04 182.974 531.644 182.662 531.332C182.35 531.02 181.962 530.864 181.498 530.864C181.018 530.864 180.614 531.02 180.286 531.332C179.958 531.644 179.762 532.04 179.698 532.52H183.19ZM185.643 536V529.964H186.663L186.783 530.528H186.843C186.963 530.344 187.107 530.204 187.275 530.108C187.451 530.012 187.683 529.964 187.971 529.964H189.027V531.08H188.079C187.679 531.08 187.371 531.188 187.155 531.404C186.939 531.62 186.831 531.928 186.831 532.328V536H185.643ZM192.782 536V527.6H196.526C196.966 527.6 197.362 527.704 197.714 527.912C198.074 528.112 198.354 528.392 198.554 528.752C198.762 529.104 198.866 529.5 198.866 529.94C198.866 530.356 198.774 530.724 198.59 531.044C198.406 531.364 198.198 531.596 197.966 531.74V531.8C198.23 531.928 198.466 532.16 198.674 532.496C198.882 532.824 198.986 533.212 198.986 533.66C198.986 534.1 198.882 534.5 198.674 534.86C198.474 535.212 198.194 535.492 197.834 535.7C197.482 535.9 197.086 536 196.646 536H192.782ZM196.442 531.248C196.762 531.248 197.034 531.128 197.258 530.888C197.49 530.648 197.606 530.352 197.606 530C197.606 529.64 197.49 529.34 197.258 529.1C197.034 528.86 196.762 528.74 196.442 528.74H194.042V531.248H196.442ZM196.562 534.86C196.882 534.86 197.154 534.74 197.378 534.5C197.61 534.26 197.726 533.96 197.726 533.6C197.726 533.248 197.61 532.952 197.378 532.712C197.154 532.472 196.882 532.352 196.562 532.352H194.042V534.86H196.562ZM201.703 536H200.515V527.6H201.703V536ZM205.773 536.12C205.309 536.12 204.893 536.016 204.525 535.808C204.165 535.592 203.881 535.292 203.673 534.908C203.473 534.524 203.373 534.084 203.373 533.588V529.964H204.561V533.492C204.561 533.924 204.701 534.284 204.981 534.572C205.261 534.86 205.609 535.004 206.025 535.004C206.305 535.004 206.561 534.936 206.793 534.8C207.033 534.664 207.221 534.48 207.357 534.248C207.493 534.016 207.561 533.764 207.561 533.492V529.964H208.749V536H207.729L207.609 535.376H207.549C207.381 535.576 207.141 535.752 206.829 535.904C206.517 536.048 206.165 536.12 205.773 536.12ZM212.998 536.12C212.438 536.12 211.93 535.988 211.474 535.724C211.018 535.452 210.658 535.08 210.394 534.608C210.138 534.128 210.01 533.584 210.01 532.976C210.01 532.376 210.138 531.84 210.394 531.368C210.658 530.888 211.018 530.516 211.474 530.252C211.93 529.98 212.438 529.844 212.998 529.844C213.534 529.844 214.018 529.972 214.45 530.228C214.89 530.484 215.234 530.836 215.482 531.284C215.738 531.732 215.866 532.236 215.866 532.796C215.866 533.076 215.846 533.288 215.806 533.432H211.198C211.254 533.92 211.45 534.32 211.786 534.632C212.122 534.936 212.526 535.088 212.998 535.088C213.334 535.088 213.63 535.012 213.886 534.86C214.142 534.708 214.334 534.512 214.462 534.272H215.698C215.514 534.808 215.19 535.252 214.726 535.604C214.262 535.948 213.686 536.12 212.998 536.12ZM214.69 532.52C214.65 532.04 214.474 531.644 214.162 531.332C213.85 531.02 213.462 530.864 212.998 530.864C212.518 530.864 212.114 531.02 211.786 531.332C211.458 531.644 211.262 532.04 211.198 532.52H214.69Z" fill="black"/>
<path d="M71.756 270.12C71.092 270.12 70.512 270 70.016 269.76C69.52 269.52 69.14 269.196 68.876 268.788C68.612 268.38 68.48 267.932 68.48 267.444H69.74C69.74 267.876 69.916 268.24 70.268 268.536C70.628 268.832 71.124 268.98 71.756 268.98C72.396 268.98 72.872 268.86 73.184 268.62C73.496 268.372 73.652 268.052 73.652 267.66C73.652 267.004 73.196 266.596 72.284 266.436L70.76 266.148C69.36 265.892 68.66 265.156 68.66 263.94C68.66 263.468 68.78 263.048 69.02 262.68C69.26 262.304 69.604 262.012 70.052 261.804C70.5 261.588 71.028 261.48 71.636 261.48C72.292 261.48 72.86 261.596 73.34 261.828C73.828 262.06 74.2 262.38 74.456 262.788C74.72 263.196 74.852 263.652 74.852 264.156H73.592C73.592 263.876 73.512 263.62 73.352 263.388C73.2 263.156 72.976 262.972 72.68 262.836C72.384 262.692 72.036 262.62 71.636 262.62C71.092 262.62 70.668 262.744 70.364 262.992C70.068 263.24 69.92 263.556 69.92 263.94C69.92 264.548 70.344 264.932 71.192 265.092L72.512 265.332C73.352 265.484 73.96 265.748 74.336 266.124C74.72 266.492 74.912 267.004 74.912 267.66C74.912 268.132 74.788 268.556 74.54 268.932C74.3 269.3 73.94 269.592 73.46 269.808C72.988 270.016 72.42 270.12 71.756 270.12ZM78.9206 270.12C78.3606 270.12 77.8526 269.988 77.3966 269.724C76.9406 269.452 76.5806 269.08 76.3166 268.608C76.0606 268.128 75.9326 267.584 75.9326 266.976C75.9326 266.376 76.0606 265.84 76.3166 265.368C76.5806 264.888 76.9406 264.516 77.3966 264.252C77.8526 263.98 78.3606 263.844 78.9206 263.844C79.4806 263.844 79.9846 263.98 80.4326 264.252C80.8886 264.516 81.2446 264.888 81.5006 265.368C81.7646 265.84 81.8966 266.376 81.8966 266.976C81.8966 267.584 81.7646 268.128 81.5006 268.608C81.2446 269.08 80.8886 269.452 80.4326 269.724C79.9846 269.988 79.4806 270.12 78.9206 270.12ZM78.9206 269.016C79.2486 269.016 79.5486 268.932 79.8206 268.764C80.1006 268.596 80.3206 268.356 80.4806 268.044C80.6406 267.732 80.7206 267.376 80.7206 266.976C80.7206 266.576 80.6406 266.224 80.4806 265.92C80.3206 265.608 80.1006 265.368 79.8206 265.2C79.5486 265.032 79.2486 264.948 78.9206 264.948C78.5926 264.948 78.2886 265.032 78.0086 265.2C77.7366 265.368 77.5206 265.608 77.3606 265.92C77.2006 266.224 77.1206 266.576 77.1206 266.976C77.1206 267.376 77.2006 267.732 77.3606 268.044C77.5206 268.356 77.7366 268.596 78.0086 268.764C78.2886 268.932 78.5926 269.016 78.9206 269.016ZM84.4192 270H83.2312V261.6H84.4192V270ZM87.2772 270H86.0892V263.964H87.2772V270ZM87.3372 262.824H86.0412V261.624H87.3372V262.824ZM91.3379 270.12C90.8179 270.12 90.3459 269.988 89.9219 269.724C89.4979 269.46 89.1619 269.088 88.9139 268.608C88.6659 268.128 88.5419 267.584 88.5419 266.976C88.5419 266.368 88.6659 265.828 88.9139 265.356C89.1619 264.876 89.4979 264.504 89.9219 264.24C90.3459 263.976 90.8179 263.844 91.3379 263.844C92.0979 263.844 92.7059 264.132 93.1619 264.708H93.2219V261.6H94.4099V270H93.3899L93.2699 269.232H93.2099C92.7459 269.824 92.1219 270.12 91.3379 270.12ZM91.4819 269.016C91.7939 269.016 92.0819 268.932 92.3459 268.764C92.6179 268.596 92.8299 268.356 92.9819 268.044C93.1419 267.732 93.2219 267.376 93.2219 266.976C93.2219 266.576 93.1419 266.224 92.9819 265.92C92.8299 265.608 92.6179 265.368 92.3459 265.2C92.0819 265.032 91.7939 264.948 91.4819 264.948C91.1619 264.948 90.8699 265.032 90.6059 265.2C90.3419 265.368 90.1299 265.608 89.9699 265.92C89.8179 266.224 89.7419 266.576 89.7419 266.976C89.7419 267.384 89.8179 267.744 89.9699 268.056C90.1299 268.36 90.3419 268.596 90.6059 268.764C90.8699 268.932 91.1619 269.016 91.4819 269.016Z" fill="black"/>
<path d="M68.924 505V496.6H72.656C73.128 496.6 73.556 496.716 73.94 496.948C74.324 497.172 74.624 497.488 74.84 497.896C75.064 498.304 75.176 498.768 75.176 499.288C75.176 499.808 75.064 500.276 74.84 500.692C74.624 501.1 74.324 501.42 73.94 501.652C73.556 501.876 73.128 501.988 72.656 501.988H70.184V505H68.924ZM72.62 500.788C72.98 500.788 73.284 500.652 73.532 500.38C73.788 500.1 73.916 499.736 73.916 499.288C73.916 498.84 73.792 498.48 73.544 498.208C73.296 497.936 72.988 497.8 72.62 497.8H70.184V500.788H72.62ZM77.9185 505.12C77.4945 505.12 77.1185 505.04 76.7905 504.88C76.4625 504.712 76.2105 504.488 76.0345 504.208C75.8585 503.92 75.7705 503.6 75.7705 503.248C75.7705 502.656 75.9745 502.184 76.3825 501.832C76.7905 501.48 77.3985 501.304 78.2065 501.304H79.7425V501.148C79.7425 500.756 79.6265 500.444 79.3945 500.212C79.1705 499.98 78.8625 499.864 78.4705 499.864C78.0945 499.864 77.7905 499.952 77.5585 500.128C77.3265 500.296 77.1905 500.5 77.1505 500.74H75.9865C76.0105 500.412 76.1225 500.104 76.3225 499.816C76.5225 499.52 76.8065 499.284 77.1745 499.108C77.5425 498.932 77.9745 498.844 78.4705 498.844C79.2225 498.844 79.8185 499.052 80.2585 499.468C80.7065 499.884 80.9305 500.444 80.9305 501.148V505H79.8985L79.7785 504.34H79.7185C79.5825 504.54 79.3545 504.72 79.0345 504.88C78.7145 505.04 78.3425 505.12 77.9185 505.12ZM78.0385 504.1C78.5665 504.1 78.9825 503.956 79.2865 503.668C79.5905 503.372 79.7425 502.972 79.7425 502.468V502.252H78.2905C77.8425 502.252 77.5065 502.34 77.2825 502.516C77.0665 502.692 76.9585 502.92 76.9585 503.2C76.9585 503.472 77.0505 503.692 77.2345 503.86C77.4265 504.02 77.6945 504.1 78.0385 504.1ZM84.5669 505.12C84.0309 505.12 83.5709 505.024 83.1869 504.832C82.8109 504.64 82.5269 504.4 82.3349 504.112C82.1429 503.816 82.0469 503.516 82.0469 503.212H83.2229C83.2229 503.46 83.3389 503.672 83.5709 503.848C83.8109 504.024 84.1429 504.112 84.5669 504.112C84.9909 504.112 85.3109 504.04 85.5269 503.896C85.7509 503.744 85.8629 503.556 85.8629 503.332C85.8629 503.116 85.7909 502.944 85.6469 502.816C85.5029 502.688 85.2669 502.596 84.9389 502.54L83.9549 502.372C82.7469 502.164 82.1429 501.588 82.1429 500.644C82.1429 500.124 82.3469 499.696 82.7549 499.36C83.1629 499.016 83.7469 498.844 84.5069 498.844C85.0109 498.844 85.4469 498.936 85.8149 499.12C86.1909 499.304 86.4749 499.54 86.6669 499.828C86.8669 500.116 86.9669 500.42 86.9669 500.74H85.8029C85.8029 500.492 85.6829 500.284 85.4429 500.116C85.2109 499.94 84.8989 499.852 84.5069 499.852C84.1229 499.852 83.8269 499.928 83.6189 500.08C83.4189 500.232 83.3189 500.42 83.3189 500.644C83.3189 500.828 83.3869 500.98 83.5229 501.1C83.6669 501.22 83.8949 501.308 84.2069 501.364L85.2029 501.532C85.8269 501.636 86.2869 501.836 86.5829 502.132C86.8869 502.428 87.0389 502.824 87.0389 503.32C87.0389 503.84 86.8229 504.272 86.3909 504.616C85.9669 504.952 85.3589 505.12 84.5669 505.12ZM89.8802 505C89.4722 505 89.1522 504.892 88.9202 504.676C88.6962 504.452 88.5842 504.152 88.5842 503.776V500.08H87.6242V498.964H88.5842V497.212H89.7722V498.964H91.1522V500.08H89.7722V503.536C89.7722 503.784 89.8962 503.908 90.1442 503.908H91.1522V505H89.8802ZM94.9049 505.12C94.3449 505.12 93.8369 504.988 93.3809 504.724C92.9249 504.452 92.5649 504.08 92.3009 503.608C92.0449 503.128 91.9169 502.584 91.9169 501.976C91.9169 501.376 92.0449 500.84 92.3009 500.368C92.5649 499.888 92.9249 499.516 93.3809 499.252C93.8369 498.98 94.3449 498.844 94.9049 498.844C95.4409 498.844 95.9249 498.972 96.3569 499.228C96.7969 499.484 97.1409 499.836 97.3889 500.284C97.6449 500.732 97.7729 501.236 97.7729 501.796C97.7729 502.076 97.7529 502.288 97.7129 502.432H93.1049C93.1609 502.92 93.3569 503.32 93.6929 503.632C94.0289 503.936 94.4329 504.088 94.9049 504.088C95.2409 504.088 95.5369 504.012 95.7929 503.86C96.0489 503.708 96.2409 503.512 96.3689 503.272H97.6049C97.4209 503.808 97.0969 504.252 96.6329 504.604C96.1689 504.948 95.5929 505.12 94.9049 505.12ZM96.5969 501.52C96.5569 501.04 96.3809 500.644 96.0689 500.332C95.7569 500.02 95.3689 499.864 94.9049 499.864C94.4249 499.864 94.0209 500.02 93.6929 500.332C93.3649 500.644 93.1689 501.04 93.1049 501.52H96.5969ZM100.298 505H99.1101V496.6H100.298V505Z" fill="black"/>
<path d="M964.72 157.04V158.276H968.752V157.04H964.72Z" fill="black"/>
</svg>
