<svg id="Layer_1" data-name="Layer 1" xmlns="http://www.w3.org/2000/svg" viewBox="0 0 1498.85 1672.4"><defs><style>.cls-1{fill:#fff;}.cls-2,.cls-3,.cls-4{fill:none;stroke-linejoin:round;stroke-width:5px;}.cls-2,.cls-3{stroke:#000;}.cls-3{stroke-linecap:round;}.cls-4{stroke:#fff;}</style></defs><title>Phonies_Phonies extended 27By_Growwwkit_</title><g id="_Group_" data-name="&lt;Group&gt;"><path class="cls-1" d="M1070,1478.7c3.36,7.46-.17,15.78-.17,15.78l-44,18.52-5.87-12.82,10.29-4.43h0l39.32-16.89Z"/><path class="cls-1" d="M1070,1478.7l-.44.16-39.32,16.89h0l-.57-1.33s-5.73-14-3.58-23.07l-.15-.74c11.16-2.25,20.56-3.56,25.29-2.92C1062.56,1469.21,1067.8,1473.77,1070,1478.7Z"/><path class="cls-1" d="M1020,1500.18l-123.53,53.08a45.83,45.83,0,0,1-2.28-13.73c.13-12.13-20.93-71-20.93-71l3.44-1.45,2.87-1.21,32.24-13.56,6.41-2.69,10.77-4.53,25.3,43.93s42.07-12.51,71.7-18.46l.15.74c-2.15,9,3.58,23.07,3.58,23.07l.57,1.33Zm-102.38-9.87a11.36,11.36,0,0,0,1.89-11.13,13,13,0,0,0-8.4-7.73c-3.77-1.14-8.24-1-11.44,1.32-8.29,6-8,19.54,4,22.2A14.88,14.88,0,0,0,917.6,1490.31Z"/><path class="cls-1" d="M1020,1500.18l5.87,12.82-124.49,52.36a75.37,75.37,0,0,1-4.91-12.1Z"/><path class="cls-1" d="M919.49,1479.18a11.36,11.36,0,0,1-1.89,11.13,14.88,14.88,0,0,1-14,4.66c-12-2.66-12.28-16.25-4-22.2,3.2-2.3,7.67-2.46,11.44-1.32A13,13,0,0,1,919.49,1479.18Z"/><path class="cls-1" d="M912.7,1381l6.46,30.19-10.33,4.56L901.4,1419l-32.86,14.52h0l-3.21,1.42-5,2.18s-3.82-11.58-9.91-29.77l.43-.14,17.86-7.7,25.44-11,16.57-7.14,1.93-.42Z"/><path class="cls-1" d="M904.14,1341l8.55,40-1.93.42-16.57,7.14-.61-1.42s-3.89-15.07-9.67-37.54l19.47-8.4Z"/><polygon class="cls-1" points="911.79 1452.36 879.55 1465.92 876.68 1467.13 876.19 1465.96 866.13 1436.81 865.32 1434.97 868.53 1433.55 868.54 1433.55 901.4 1419.03 901.98 1420.35 911.25 1451.08 911.79 1452.36"/><path class="cls-1" d="M893.84,1292.94l10.3,48.1-.76.16-19.47,8.4c-3.49-13.57-7.67-29.85-12.1-47.13l20.63-9.23Z"/><path class="cls-1" d="M894.19,1388.56l-25.44,11-.74-1.71s-4.55-14.68-11.29-36.5l27.19-11.73c5.78,22.47,9.67,37.54,9.67,37.54Z"/><path class="cls-1" d="M883.61,1245.12l10.23,47.82-1.4.3-20.63,9.23c-4-15.45-8.12-31.71-12.16-47.56l22.1-9.39Z"/><path class="cls-1" d="M883.91,1349.6l-27.19,11.73c-4.08-13.21-9-29-14.12-45.8l29.21-13.06C876.24,1319.75,880.42,1336,883.91,1349.6Z"/><path class="cls-1" d="M883.61,1245.12l-1.86.4-22.1,9.39c-4.35-17.05-8.56-33.63-12.24-48.24l23.65-10.77,1.92-.41Z"/><path class="cls-1" d="M874.27,596.64v0a2.1,2.1,0,0,1,.06.24,10.1,10.1,0,0,1-7.92,12.83c.5,4.42.61,9-1.15,13.13s-5.8,7.47-10.24,7.2c1.43,6.11-2.39,12.48-7.63,15.94s-11.61,4.62-17.79,5.67c.27,4.15.29,11.13.16,15.3l.06,1-8.68.56-5.5.35L798.82,670l-9.19.58-4.17.26-6.87.43-7.79.48h0a1.44,1.44,0,0,1-1.42-1.33v-.06c0-.58-.06-1.17-.08-1.76s0-1.2,0-1.8c0-1.23,0-2.45.11-3.68,0-.35,0-.7.07-1.05.08-1,.19-2.1.32-3.14.06-.52.14-1,.22-1.57.1-.7.22-1.4.35-2.1.06-.33.13-.67.2-1,.1-.51.21-1,.33-1.54q.39-1.71.87-3.39c.11-.4.23-.8.35-1.19s.31-1,.48-1.51.32-1,.49-1.42a62.22,62.22,0,0,1,2.94-6.94c.16-.33.32-.65.5-1s.3-.6.46-.89.46-.85.7-1.27a.75.75,0,0,1,.07-.12c.21-.39.43-.77.66-1.15.47-.79,1-1.57,1.45-2.33.22-.33.44-.67.67-1q.59-.87,1.2-1.71l.55-.72q.64-.88,1.35-1.74c.24-.31.49-.61.75-.91q1.08-1.29,2.25-2.52c.25-.28.51-.55.78-.82l.15-.16.63-.63q-.12-.37-.27-.75a.29.29,0,0,0,0-.09c-.06-.16-.11-.32-.18-.47a11.16,11.16,0,0,0-.39-1.05,4.45,4.45,0,0,0-.22-.57c-.15-.41-.32-.82-.49-1.23-.07-.16-.13-.32-.21-.48-.2-.49-.42-1-.64-1.47-1.75-4-3.73-7.85-5.25-11.84l-.33-.91c0-.1-.07-.2-.11-.31-.1-.28-.2-.57-.29-.85l-.21-.66c-.09-.27-.17-.54-.25-.82-.14-.47-.26-.95-.38-1.42-.06-.22-.11-.45-.16-.68s-.13-.6-.19-.9c-.11-.58-.21-1.17-.29-1.75a.88.88,0,0,0,0-.17l-.09-.84c-.06-.62-.1-1.24-.11-1.87h0c-.07-3.56.88-7.49,3.81-9.52s7.23-1.49,10.18.62,4.8,5.43,6.11,8.82l.49.11c-1.79,7.62-3.28,13.77-3.93,15.7-2.67,8,6.43,9.92,6.43,9.92l23.75,3.33a37.79,37.79,0,0,1-2.5-12c-.06-3.81,1-8,4.09-10.15a7.57,7.57,0,0,1,7.16-.65l.74-.2,0-.12a24,24,0,0,1-.86-8.55,10.77,10.77,0,0,1,3.9-7.43c2.28-1.72,6.64-2.1,9-.48,0-.1-.09-.18-.14-.28-1.82-3.65-3.77-8.1-1.61-11.55,1.73-2.78,5.6-3.59,8.73-2.65s5.63,3.29,7.8,5.73c1,1.07,1.88,2.17,2.74,3.31A60.12,60.12,0,0,1,874.27,596.64Z"/><path d="M868.07,513.92c11,1,6.36,13.82,6.36,13.82L864,576l-.08.07c-.86-1.14-1.78-2.24-2.74-3.31-2.17-2.44-4.68-4.77-7.8-5.73s-7-.13-8.73,2.65c-2.16,3.45-.21,7.9,1.61,11.55,0,.1.1.18.14.28-2.37-1.62-6.73-1.24-9,.48a10.77,10.77,0,0,0-3.9,7.43,24,24,0,0,0,.86,8.55l0,.12-.74.2a7.57,7.57,0,0,0-7.16.65c-3.14,2.15-4.15,6.34-4.09,10.15a37.79,37.79,0,0,0,2.5,12l-23.75-3.33s-9.1-1.9-6.43-9.92c.65-1.93,2.14-8.08,3.93-15.7,3.87-16.67,9.08-40.4,9.54-42.5l0-.15,0-.26c3.41-.49,7-1.7,8.18-4.9s-.62-6.7-3.29-8.57a13.75,13.75,0,0,0-4.4-2l2.67-.76,2.59-15.68a8.51,8.51,0,0,1,8.86-6.83C835.09,511.35,859.29,513.11,868.07,513.92Z"/><path class="cls-1" d="M863.43,1150.86l9.55,44.63-1.92.41-23.65,10.77c-7.06-28-12.18-48.67-12.62-51.62a14.12,14.12,0,0,0-1.35-3.29l23.31-13.5,1.79-.7Q861.2,1144.28,863.43,1150.86Z"/><path class="cls-1" d="M871.81,1302.47l-29.21,13.06c-4.73-15.38-9.7-31.55-14.48-47.22l31.53-13.4C863.69,1270.76,867.85,1287,871.81,1302.47Z"/><path class="cls-1" d="M868,1397.83l.74,1.71-17.86,7.7-.43.14-.24-.71c-3.55-10.58-7.85-23.34-12.61-37.34l2.66-.9,16.45-7.1C863.46,1383.15,868,1397.83,868,1397.83Z"/><path d="M769.46,671.8l1.32-.08h.1l7.71-.48,6.87-.43,4.17-.26,9.19-.58,16.83-1.07,5.5-.35,8.68-.56h0l1.43-.09,2.36-.15,3.84-.24.27,0,.31,0a1.4,1.4,0,0,1,1.22.54l0,0,.49.83c.24.4.47.8.7,1.21s.53.95.8,1.43.58,1.08.86,1.63.59,1.12.87,1.7.46.92.68,1.39.4.82.59,1.23c.27.58.54,1.16.8,1.75l.51,1.15.45,1q.43,1,.84,2l-.48.2a16.48,16.48,0,0,1-7.15,2.79c-1.12.22-2.24.42-3.37.58s-2.14.31-3.21.43c-2.33.27-4.66.45-7,.58-1,.05-2,.1-3,.13-2.23.08-4.45.12-6.68.14h-.64l-2.7,0H812l-.42.58q-3.7,5.1-7.39,10.19l-.7,1c.28.28.56.57.82.87s.73.83,1.08,1.26a29,29,0,0,1,3.2,4.84l.33.64c.36.71.68,1.43,1,2.16.23.56.43,1.13.62,1.7.1.28.19.57.27.86a1.33,1.33,0,0,0,.42.77,1.28,1.28,0,0,0,.84.18l8.93-.09a105,105,0,0,0,15.46-.91l1.17-.2,1.16-.22.83-.18,1-.23,1.26-.32.84-.24,1-.28a52.21,52.21,0,0,0,6.51-2.48c.32-.15.63-.29.94-.45.51-.24,1-.49,1.52-.76a1.45,1.45,0,0,1,2.08.9c.48,1.93.92,3.86,1.34,5.79.13.61.26,1.21.38,1.82.25,1.2.49,2.41.72,3.6.15.74.29,1.49.42,2.23q.54,3,1,5.88c.25,1.52.48,3,.7,4.55.24,1.67.46,3.32.67,5,.18,1.4.34,2.78.5,4.15l.24,2.21c2.2,21,3.88,42.46-1.57,62.8q-.25,1-.54,1.92-.21.74-.45,1.47c-.66,2.11-1.42,4.2-2.27,6.25-.22.53-.44,1-.67,1.57s-.43,1-.66,1.47c-.39.85-.8,1.69-1.22,2.52-.18.36-.37.72-.56,1.08-.62,1.18-1.27,2.34-2,3.48-.21.35-.42.7-.64,1-.41.67-.84,1.33-1.28,2l-.79,1.16L848,830l-.37.51a1.43,1.43,0,0,1-1.68.42h0q-.74-.33-1.47-.6c-.49-.2-1-.39-1.46-.56s-1-.36-1.43-.51-1-.33-1.43-.47q-1.41-.47-2.79-.81c-1.38-.37-2.73-.67-4.06-.91s-2.64-.44-3.92-.57c-.85-.1-1.69-.16-2.52-.2a44.74,44.74,0,0,0-24,5.43c-1.26.67-2.45,1.39-3.6,2.14-.57.37-1.12.75-1.67,1.14s-1.07.77-1.59,1.17c-.77.59-1.52,1.19-2.23,1.8s-1.39,1.21-2,1.82c-.44.4-.86.81-1.26,1.21a56.16,56.16,0,0,0-8.87,11.14l-.29.79a18.68,18.68,0,0,1-2-.86c-.43-.21-.85-.43-1.26-.67-.24-.12-.47-.26-.71-.41l-.93-.6c-.31-.21-.61-.43-.91-.65a26.51,26.51,0,0,1-2.93-2.58c.29,1.52.55,3.07.77,4.64.08.56.16,1.12.23,1.69.21,1.59.39,3.22.55,4.85,0,.53.1,1.07.14,1.6.11,1.11.19,2.23.26,3.36.06.83.11,1.67.15,2.51s.09,1.67.12,2.51.07,1.69.1,2.53h-.3c-3,2.72-7.05,4-11.07,4.49s-8.09.24-12.14.3a4,4,0,0,0-2,.37,3.91,3.91,0,0,0-1.12,1.1,53.58,53.58,0,0,0-5.51,8.74,1.48,1.48,0,0,0-.24,1,1.43,1.43,0,0,0,.5.67l4.71,4.39a8.9,8.9,0,0,0,3.3,2.26,8.68,8.68,0,0,0,3.41.13c1.58-.15,3.17-.31,4.75-.49s2.94-.35,4.4-.55c1.66-.22,3.31-.46,5-.72l2.28-.37,2.43-.42.21,0h0a1.45,1.45,0,0,1,1.4,1.44v0c0,1,0,1.89-.05,2.82,0,2.33-.08,4.59-.1,6.76,0,1.79-.12,3.74-1.21,5.07a6.7,6.7,0,0,1-3.73,2,117.53,117.53,0,0,1-12.12,2.54l-.11,0a122.85,122.85,0,0,1-19.14,1.5c-1.2,0-2.4,0-3.61,0q-3-.09-6.07-.33-1.47-.12-2.94-.27l-1.8-.2a1.42,1.42,0,0,1-1.24-1.15q-.55-2.71-1.1-5.45-.91-4.62-1.77-9.26c-.28-1.47-.55-3-.82-4.42q-1.17-6.42-2.24-12.86-1.62-9.68-3-19.41l.3,0c.13-1.68.32-3.77.58-6.2,0-.42.09-.86.14-1.31a1.49,1.49,0,0,0,0-.21c.05-.46.1-.93.16-1.41l0-.27c0-.32.07-.64.11-1s.1-.85.15-1.29.14-1.18.21-1.78c.45-3.72,1-7.91,1.6-12.44l.18-1.33c.51-3.73,1.07-7.69,1.68-11.83l.3-2c1.27-8.63,2.74-17.94,4.34-27.46.14-.82.28-1.65.43-2.48.32-1.93.66-3.87,1-5.82l.42-2.37c.74-4.2,1.51-8.41,2.3-12.58l.51-2.65.12-.64.63-3.27.18-.9c.1-.53.21-1.06.32-1.59.2-1.06.41-2.11.63-3.16.11-.52.21-1,.32-1.57.42-2.08.86-4.15,1.29-6.18l.33-1.52.33-1.51.33-1.5c.21-1,.44-2,.66-3s.39-1.69.57-2.53l.09-.37c.18-.78.37-1.55.55-2.31s.3-1.29.46-1.93c.22-.93.45-1.85.67-2.76.11-.45.22-.9.34-1.35.21-.85.43-1.68.64-2.51.35-1.35.71-2.67,1.06-4,.11-.41.22-.82.34-1.23.22-.82.45-1.62.68-2.41s.46-1.61.7-2.39.44-1.45.66-2.16.51-1.6.76-2.37c.43-1.3.86-2.54,1.29-3.71a1.18,1.18,0,0,1,.07-.2l.59-1.58c.34-.89.68-1.74,1-2.54.22-.53.45-1,.67-1.52l.12-.26.55-1.13c.22-.45.45-.87.67-1.27.11-.2.22-.4.33-.58a6.16,6.16,0,0,1,.33-.55L747,699l.33-.48a.22.22,0,0,1,.05-.08,10.69,10.69,0,0,1,.78-1l-1.07-.88-14.8-12.17a5.18,5.18,0,0,1-1.47-1.57c-.58-1.21.18-2.53.91-3.69l13.8-21.77.57-.89-.69-.81-14.08-16.62a1.5,1.5,0,0,1-.29-1.27s0,0,0,0c.12-.44.24-.87.35-1.29l.51-1.87a1.94,1.94,0,0,0,.05-.2q.3-1.08.54-2c0-.17.09-.34.14-.51l.9-3.42c.07-.27.14-.52.19-.73l.32-1.22-1.15-.45c-.62-.25-1.21-.49-1.79-.71l-1.65-.63c-1.2-.45-2.32-.86-3.44-1.25l-1.62-.56c-1.34-.46-2.7-.92-4.16-1.39l.06-.23c4.54-9.12,12-25.45,16.49-34.57l.09-.62c3.9.54,7.86-.28,11.7-1.14,4.85-1.08,10-2.43,13.7-5.59h0s9.69,1.78,15.78,12.76h0c0,.63.05,1.25.11,1.87,0,.28.06.56.09.84a.88.88,0,0,1,0,.17c.08.59.18,1.17.29,1.75.06.3.12.6.19.9s.1.45.16.68c.12.47.24.95.38,1.42.08.27.16.55.25.82l.21.66c.09.28.19.57.29.85,0,.11.07.21.11.31.1.3.22.61.33.91,1.52,4,3.5,7.88,5.25,11.84.22.49.43,1,.64,1.47.08.16.14.32.21.48.17.41.33.82.49,1.23a4.45,4.45,0,0,1,.22.57q.21.52.39,1.05a3.73,3.73,0,0,1,.2.56,1.42,1.42,0,0,1-.36,1.38l-.15.16c-.27.27-.53.54-.78.82q-1.17,1.23-2.25,2.52c-.25.3-.51.6-.75.91q-.71.85-1.35,1.74l-.55.72q-.62.84-1.2,1.71c-.23.33-.45.67-.67,1-.5.76-1,1.54-1.45,2.33-.23.38-.45.77-.66,1.15a.75.75,0,0,0-.07.12c-.24.42-.47.84-.7,1.27s-.31.59-.46.89-.34.65-.5,1a62.22,62.22,0,0,0-2.94,6.94c-.17.47-.34,1-.49,1.42s-.33,1-.48,1.51-.24.79-.35,1.19q-.48,1.68-.87,3.39c-.12.51-.23,1-.33,1.54-.07.33-.14.67-.2,1-.13.7-.25,1.4-.35,2.1-.08.52-.16,1-.22,1.57-.13,1-.24,2.09-.32,3.14,0,.35,0,.7-.07,1.05-.07,1.23-.11,2.45-.11,3.68q0,.9,0,1.8c0,.59,0,1.17.08,1.76v.06C769.39,670.86,769.42,671.33,769.46,671.8Z"/><path class="cls-1" d="M859.65,1254.91l-31.53,13.4c-5.06-16.55-9.92-32.54-14.1-46.44l33.39-15.2C851.09,1221.28,855.3,1237.86,859.65,1254.91Z"/><path d="M859.27,731.75c-.22-1.51-.45-3-.7-4.55C858.82,728.73,859.05,730.24,859.27,731.75Z"/><path d="M858.12,809.25q.24-.74.45-1.47Q858.36,808.52,858.12,809.25Z"/><path class="cls-1" d="M858.54,1137.56l-1.79.7-23.31,13.5c-3.46-6.85-13.16-22.39-25.5-41.43l27.81-17.88,1.49-.78A467.21,467.21,0,0,1,858.54,1137.56Z"/><path class="cls-1" d="M856.72,1361.33l-16.45,7.1-2.66.9c-4.76-14-10-29.24-15.36-44.77l.71-.25,19.64-8.78C847.75,1332.3,852.64,1348.12,856.72,1361.33Z"/><path d="M856.42,715.49c-.12-.61-.25-1.21-.38-1.82C856.17,714.28,856.3,714.88,856.42,715.49Z"/><path d="M852.74,822.14c.19-.36.38-.72.56-1.08C853.12,821.43,852.93,821.79,852.74,822.14Z"/><path d="M818.73,699.4l.1.1a3.67,3.67,0,0,0,.78,3.4,2.93,2.93,0,0,0,3.33.68,2.82,2.82,0,0,0,1.45-3,3.14,3.14,0,0,0-2.47-2.35A3.46,3.46,0,0,0,818.73,699.4Zm35.53,6.69c-.54.31-1.09.6-1.64.89s-1,.52-1.52.76l-.94.45a52.21,52.21,0,0,1-6.51,2.48l-1,.28-.84.24-1.26.32-1,.23-.83.18-1.16.22-1.17.2a105,105,0,0,1-15.46.91l-8.93.09a1.28,1.28,0,0,1-.84-.18,1.33,1.33,0,0,1-.42-.77c-.08-.29-.17-.58-.27-.86-.19-.57-.39-1.14-.62-1.7-.29-.73-.61-1.45-1-2.16-.1-.21-.21-.43-.33-.64a29.18,29.18,0,0,0-3.2-4.84q-.51-.65-1.08-1.26a1.46,1.46,0,0,1-.12-1.83q3.68-5.1,7.39-10.19a1.43,1.43,0,0,1,1.11-.58l2.74,0h.64c2.23,0,4.45-.06,6.68-.14,1,0,2-.08,3-.13,2.34-.13,4.67-.31,7-.58,1.07-.12,2.14-.26,3.21-.43s2.25-.36,3.37-.58a16.48,16.48,0,0,0,7.15-2.79l.48-.2A168.86,168.86,0,0,1,854.26,706.09Z"/><path d="M850.14,826.67c.22-.35.43-.7.64-1C850.57,826,850.36,826.32,850.14,826.67Z"/><path d="M848.07,829.82l.79-1.16C848.6,829.05,848.34,829.44,848.07,829.82Z"/><path d="M848,830l-.32.45,0,.06Z"/><path class="cls-1" d="M847.41,1206.67,814,1221.87c-7.47-24.84-12.78-43-13.2-45.82a18.74,18.74,0,0,0-1.93-4.29l34.55-20a14.12,14.12,0,0,1,1.35,3.29C835.23,1158,840.35,1178.72,847.41,1206.67Z"/><path d="M845.93,830.88q.52.21,1.05.45c-6.94,9.45-16.2,16.94-27.36,20.43-6.62,2.07-13.6,2.67-20.52,3-5.25.23-10.65.25-15.65-1.14-.45-.13-.91-.27-1.35-.42-.26-.08-.52-.17-.77-.27h0l.29-.79A56.16,56.16,0,0,1,790.48,841c.4-.4.82-.8,1.26-1.21.65-.6,1.33-1.21,2-1.82s1.46-1.2,2.23-1.8q.78-.6,1.59-1.17l1.67-1.14c1.15-.74,2.34-1.46,3.6-2.14a44.92,44.92,0,0,1,24-5.43c.83,0,1.67.11,2.52.2,1.28.14,2.59.33,3.92.57s2.68.55,4.06.91q1.38.36,2.79.81l1.43.47,1.43.51,1.46.56,1.47.6Z"/><path d="M845.92,830.88l-1.47-.6Q845.19,830.55,845.92,830.88Z"/><path d="M845.62,680.38l-.51-1.15Z"/><path d="M844.45,830.28l-1.46-.56C843.47,829.89,844,830.08,844.45,830.28Z"/><path d="M842.68,711l1-.28Z"/><path d="M843,674.86c-.28-.58-.57-1.14-.87-1.7C842.47,673.72,842.76,674.29,843,674.86Z"/><path d="M843,829.72l-1.43-.51C842,829.36,842.51,829.53,843,829.72Z"/><path d="M841.84,711.19l.84-.24Z"/><path class="cls-1" d="M842.6,1315.53,823,1324.31l-.71.25c-5.42-15.64-11-31.57-16.45-46.82l.74-.26,21.58-9.17C832.9,1284,837.87,1300.15,842.6,1315.53Z"/><path d="M841.56,829.21l-1.43-.47C840.6,828.88,841.08,829,841.56,829.21Z"/><path d="M839.57,711.74l1-.23Z"/><path d="M839.39,668.16c.14.24.29.49.42.73l-.49-.83A.36.36,0,0,1,839.39,668.16Z"/><path d="M840.13,828.74q-1.41-.45-2.79-.81Q838.72,828.28,840.13,828.74Z"/><path class="cls-1" d="M837.24,1091.67l-1.49.78-27.81,17.88c-9.89-15.27-21.47-32.79-32.87-49.88l30.34-20.1,1.57-1C817,1055.41,827.6,1073.3,837.24,1091.67Z"/><path d="M837.34,827.93c-1.38-.36-2.73-.66-4.06-.91C834.61,827.26,836,827.56,837.34,827.93Z"/><path d="M835.91,687c-1.07.17-2.14.31-3.21.43C833.77,687.32,834.84,687.18,835.91,687Z"/><path class="cls-1" d="M833.44,1151.76l-34.55,20c-3.84-7.08-13-21.58-24.87-39.62l33.92-21.81C820.28,1129.37,830,1144.91,833.44,1151.76Z"/><path d="M833.28,827c-1.33-.24-2.64-.43-3.92-.57C830.64,826.58,832,826.77,833.28,827Z"/><path class="cls-1" d="M828.12,1268.31l-21.58,9.17-.74.26c-5.72-16-11.3-31.29-16.37-44.69l.33-.13L814,1221.87C818.2,1235.77,823.06,1251.76,828.12,1268.31Z"/><path d="M829.36,826.45c-.85-.09-1.69-.15-2.52-.2C827.67,826.29,828.51,826.35,829.36,826.45Z"/><path d="M802.87,831.68a44.74,44.74,0,0,1,24-5.43A44.92,44.92,0,0,0,802.87,831.68Z"/><path class="cls-1" d="M676.69,560.5q1.83-2.89,3.84-5.66c2.81-3.85,5.9-7.47,9-11.08,5.64-6.61,11.5-13.39,19.16-17.34,12.27-6.32,26.85-4.33,40.42-2.19q27.38,4.32,54.77,8.62a43,43,0,0,1,4.78,1,13.75,13.75,0,0,1,4.4,2c2.67,1.87,4.47,5.48,3.29,8.57s-4.77,4.41-8.18,4.9h0c-.47.06-.93.12-1.38.16a102.87,102.87,0,0,1-25.28-.8h0l.07.11a21.82,21.82,0,0,1,.41,8c-.38,4-1.1,8.11-3.45,11.34s-6.79,5.27-10.47,3.71l-1-.25h0a14.32,14.32,0,0,1-2.66,5.73,13.68,13.68,0,0,1-2,2.08c-3.7,3.16-8.85,4.51-13.7,5.59-3.84.86-7.8,1.68-11.7,1.14l-.09.62c-4.54,9.12-11.95,25.45-16.49,34.57l-.06.23-5-1.6c-20.78-6.69-42.16-11.26-63.52-15.74l-.15-.07a122.2,122.2,0,0,0,8.28-13C665.57,581,670.45,570.29,676.69,560.5Z"/><path class="cls-1" d="M814,1221.87l-24.26,11.05-.33.13c-8-21-14.7-37.45-18.85-44.91l.47-.26,27.84-16.12a18.74,18.74,0,0,1,1.93,4.29C801.24,1178.86,806.55,1197,814,1221.87Z"/><path d="M812,688.33h.69a1.43,1.43,0,0,0-1.11.58Z"/><path d="M810.76,712.39c-.08-.29-.17-.58-.27-.86C810.59,711.81,810.68,712.1,810.76,712.39Z"/><path d="M810.49,711.53c-.19-.57-.39-1.14-.62-1.7C810.1,710.39,810.3,711,810.49,711.53Z"/><path class="cls-1" d="M807.94,1110.33,774,1132.14c-9.67-14.75-21.11-31.88-32.81-49.25l33.86-22.44C786.47,1077.54,798.05,1095.06,807.94,1110.33Z"/><path class="cls-1" d="M807,1039.36l-1.57,1-30.34,20.1c-11-16.53-21.89-32.66-30.88-46L774.1,993.4l1.24-1.57C783.53,1003.45,794.9,1020.08,807,1039.36Z"/><path d="M803.47,700.06l.7-1a1.46,1.46,0,0,0,.12,1.83C804,700.63,803.75,700.34,803.47,700.06Z"/><path d="M799.27,833.82c1.15-.75,2.34-1.47,3.6-2.14C801.61,832.36,800.42,833.08,799.27,833.82Z"/><path class="cls-1" d="M798.89,1171.76l-27.84,16.12-.47.26a25.59,25.59,0,0,0-1.82-2.93c-4.06-5.47-13.5-18.16-25.18-33.85l1.32-.5L774,1132.14C785.86,1150.18,795.05,1164.68,798.89,1171.76Z"/><path d="M797.6,835c.55-.39,1.1-.77,1.67-1.14Z"/><path d="M793.78,837.93c.71-.61,1.46-1.21,2.23-1.8C795.24,836.73,794.49,837.33,793.78,837.93Z"/><path d="M791.74,839.75c.65-.61,1.33-1.22,2-1.82C793.07,838.54,792.39,839.15,791.74,839.75Z"/><path d="M790.48,841c.4-.4.82-.81,1.26-1.21C791.3,840.16,790.88,840.56,790.48,841Z"/><path d="M787.88,620.53a3.73,3.73,0,0,0-.2-.56c.07.15.12.31.18.47A.29.29,0,0,1,787.88,620.53Z"/><path d="M787.37,622.07c-.27.27-.53.54-.78.82C786.84,622.61,787.1,622.34,787.37,622.07Z"/><path d="M784.34,625.41c-.26.3-.51.6-.75.91C783.83,626,784.09,625.71,784.34,625.41Z"/><path d="M782.24,628.06l-.55.72Z"/><path d="M780.49,630.49c-.23.33-.45.67-.67,1C780,631.16,780.26,630.82,780.49,630.49Z"/><path d="M779.75,601.26c.09.28.19.57.29.85C779.94,601.83,779.84,601.54,779.75,601.26Z"/><path d="M778.75,597.68c0,.23.1.46.16.68C778.85,598.13,778.8,597.91,778.75,597.68Z"/><path d="M778.56,596.78c.06.3.12.6.19.9C778.68,597.38,778.62,597.08,778.56,596.78Z"/><path d="M778.56,596.78c-.11-.58-.21-1.16-.29-1.75C778.35,595.61,778.45,596.2,778.56,596.78Z"/><path d="M778.16,594l.09.84C778.22,594.58,778.18,594.3,778.16,594Z"/><path d="M776.48,637.25c-.18.33-.34.65-.5,1C776.14,637.9,776.3,637.57,776.48,637.25Z"/><path class="cls-1" d="M744.19,1014.48,710.8,1038c-9.55-14-18.32-26.84-25.31-37l38.67-24.33c12.83-.64,25.64-1.59,38.41-3l.08.68s4.92,6.51,12.69,17.52l-1.24,1.57Z"/><path class="cls-1" d="M775.07,1060.45l-33.86,22.44c-10.27-15.25-20.74-30.68-30.41-44.87l33.39-23.54C753.18,1027.79,764,1043.92,775.07,1060.45Z"/><path d="M774.89,870.81c.24,7.09.18,14.21.08,20.9l-1.42,0h-.15l-.1,0-2.43.42-2.28.37c-1.65.26-3.3.5-5,.72-1.46.2-2.93.38-4.4.55s-3.17.34-4.75.49a8.68,8.68,0,0,1-3.41-.13,8.9,8.9,0,0,1-3.3-2.26l-4.71-4.39a1.43,1.43,0,0,1-.5-.67,1.48,1.48,0,0,1,.24-1,53.58,53.58,0,0,1,5.51-8.74,3.91,3.91,0,0,1,1.12-1.1,4,4,0,0,1,2-.37c4-.06,8.12.19,12.14-.3s8.07-1.77,11.07-4.49Z"/><path d="M774.9,896c0-.93,0-1.87.05-2.82C774.93,894.1,774.92,895,774.9,896Z"/><path d="M775.5,849.7a1.43,1.43,0,0,0-2.26,1.37c0,.23.07.46.1.69-.22-1.57-.48-3.12-.77-4.64A26.51,26.51,0,0,0,775.5,849.7Z"/><path class="cls-1" d="M774,1132.14l-29.12,18.72-1.32.5c-10.65-14.31-23.16-31.11-35.15-47.2l1.36-.45,31.42-20.82C752.91,1100.26,764.35,1117.39,774,1132.14Z"/><path d="M768.59,892.5l2.28-.37Z"/><path d="M770.78,671.72l-1.32.08c0-.47-.07-.94-.1-1.41A1.44,1.44,0,0,0,770.78,671.72Z"/><path d="M769.28,668.57c0,.59,0,1.18.08,1.76C769.32,669.74,769.29,669.16,769.28,668.57Z"/><path d="M769.25,666.77q0,.9,0,1.8Q769.25,667.67,769.25,666.77Z"/><path d="M763.63,893.22c-1.46.2-2.93.39-4.4.55C760.7,893.6,762.17,893.42,763.63,893.22Z"/><path class="cls-1" d="M757.74,912.29a254.55,254.55,0,0,0,3.89,31c-2.86.3-5.72.6-8.58.87-13.59,1.32-27.21,2.33-40.83,3.22q-95,6.14-190.2,3.6-7.31-.19-14.6-.44a2.36,2.36,0,0,1-2.77-3.25q2.46-16,4.92-32l.29-2.64a158.16,158.16,0,0,0,24.52.69s109.18,2.35,116,.06,4.81-9.17,4.81-9.17c-.32-32.32,1.44-59.87,8-91.45a291.21,291.21,0,0,0,17.54-29.65c7.89-15.11,16-36,23.5-57.65l.33.12a886.73,886.73,0,0,0,9.24,134.78q1.41,9.74,3,19.41,1.07,6.45,2.24,12.86c.26,1.48.53,3,.82,4.42q.85,4.64,1.77,9.26c.42,2.16.86,4.32,1.3,6.48.35,0,.69.09,1,.12.6.08,1.2.14,1.8.2q1.47.17,2.94.27,3,.24,6.07.33c1.2,0,2.4,0,3.61,0a122.85,122.85,0,0,0,19.14-1.5Z"/><path d="M667.15,978l-7.09.07-36.36.31-49.23.36q-20.79.15-41.59.27l-8.36.05-5.95,0a205.4,205.4,0,0,0,3.4-26.27l0-1.87q95.12,2.53,190.2-3.6c13.62-.89,27.24-1.9,40.83-3.22l.06.56a299.18,299.18,0,0,0,9.46,28.9c-12.77,1.43-25.58,2.38-38.41,3-18.13.9-36.3,1.18-54.46,1.36Z"/><path d="M747.07,696.59l1.07.88a10.69,10.69,0,0,0-.78,1A1.43,1.43,0,0,0,747.07,696.59Z"/><path d="M747.07,696.59a1.43,1.43,0,0,1,.29,1.87.22.22,0,0,0-.05.08,5.78,5.78,0,0,0-.33.48,5.69,5.69,0,0,0-.33.52,6.16,6.16,0,0,0-.33.55,6.65,6.65,0,0,0-.33.58c-.23.4-.45.82-.67,1.27s-.37.74-.55,1.13l-.12.26c-.23.48-.45,1-.67,1.52-.35.8-.69,1.65-1,2.54-.2.51-.4,1-.59,1.58a1.18,1.18,0,0,0-.07.2c-.44,1.17-.86,2.41-1.29,3.71-.25.77-.51,1.56-.76,2.37s-.44,1.43-.66,2.16-.47,1.58-.7,2.39-.46,1.59-.68,2.41c-.12.41-.23.82-.34,1.23-.36,1.29-.71,2.61-1.06,4-.22.83-.43,1.66-.64,2.51-.12.45-.23.9-.34,1.35-.23.91-.45,1.83-.67,2.76-.16.64-.31,1.29-.46,1.93s-.37,1.54-.55,2.31l-.09.37-.57,2.53c-.22,1-.45,2-.66,3l-.33,1.5-.33,1.51-.33,1.52c-.43,2-.87,4.1-1.29,6.18-.11.52-.21,1-.32,1.57-.22,1.05-.43,2.1-.63,3.16-.11.53-.22,1.06-.32,1.59l-.18.9q-.32,1.62-.63,3.27l-.12.64-.51,2.65c-.79,4.17-1.56,8.38-2.3,12.58l-.42,2.37c-.34,2-.68,3.89-1,5.82-.15.83-.29,1.66-.43,2.48-1.6,9.52-3.07,18.83-4.34,27.46-.11.68-.21,1.35-.3,2-.61,4.14-1.17,8.1-1.68,11.83l-.18,1.33c-.61,4.53-1.15,8.72-1.6,12.44-.07.61-.14,1.2-.21,1.78s-.1.87-.15,1.29-.08.65-.11,1l0,.27c-.06.48-.11,1-.16,1.41a1.49,1.49,0,0,1,0,.21c0,.45-.1.89-.14,1.31-.26,2.43-.45,4.52-.58,6.2l-.3,0a886.73,886.73,0,0,1-9.24-134.78l-.33-.12c11.62-33.66,21.62-69,26.52-87l.48.57,14.08,16.62a1.43,1.43,0,0,1,.12,1.7l-13.8,21.77c-.73,1.16-1.49,2.48-.91,3.69a5.18,5.18,0,0,0,1.47,1.57Z"/><path d="M745.39,655.69l.69.81-.57.89A1.43,1.43,0,0,0,745.39,655.69Z"/><path class="cls-1" d="M741.21,1082.89l-31.42,20.82-1.36.45L677,1061.92l.77-.58L710.8,1038C720.47,1052.21,730.94,1067.64,741.21,1082.89Z"/><path d="M738.49,913.81c-1.21,0-2.41,0-3.61,0C736.09,913.79,737.29,913.81,738.49,913.81Z"/><path d="M734,626.51l-.32,1.22a1.42,1.42,0,0,0-.83-1.67Z"/><path d="M626.93,636.76l.09,0c11.09,7.75,31,14,44.41,15.64,2.34.28,4.78.55,7-.2a15.54,15.54,0,0,0,4.14-2.37l12.64-9,1.85-1.32c-.77-.61-1.52-1.26-2.23-1.94l0,0-.91-.91c-.39-.4-.77-.82-1.14-1.25s-.62-.73-.92-1.11a.94.94,0,0,1-.09-.12c-.25-.3-.48-.61-.7-.93s-.48-.66-.7-1a5.81,5.81,0,0,1-.4-.61c-.24-.35-.46-.71-.67-1.08a4.11,4.11,0,0,0-4.47-2.8c-1.31,0-2.67-.15-4.07-.32-1.13-.14-2.27-.31-3.44-.52-.63-.11-1.26-.24-1.9-.37-1.87-.39-3.78-.87-5.69-1.41a105.46,105.46,0,0,1-13.09-4.72c-.9-.4-1.79-.8-2.66-1.21-.46-.21-.91-.42-1.35-.64-.84-.41-1.66-.82-2.47-1.24a80.48,80.48,0,0,1-8.37-5l-.14-.07-1.56-.81c-.28.54-.56,1.07-.83,1.61Q633.07,625,626.93,636.76Zm36.34,176c-8.64,12.63-17,22-25.25,28.74-1.48-3.55-9.66-18.9-40.45-20.26-34.87-1.55-50.46,23.94-50.46,23.94l-.32.69h0A92.16,92.16,0,0,1,525.61,832q-1.8-1.57-3.5-3.24c-11.32-11-18.87-24.37-23.78-38.41-14.51-41.34-6.18-88.91-4.15-103.18,3.26-22.79,35-105.55,40.44-119.6l1,.25s18.7,13.11,26.59,13h.43c.26,0,.54,0,.85-.08h.06a74.56,74.56,0,0,0,8.55-1.66l1.65-.4c9.65-2.32,22.62-6,31-8.45a39,39,0,0,0,5.45,12.4c8.56,12.5,31.52,16,49.33,8.39l.25.14a122.2,122.2,0,0,1-8.28,13l0,0,.18,0c21.36,4.48,42.74,9.05,63.52,15.74l5,1.6c1.46.47,2.82.93,4.16,1.39l1.62.56c1.12.39,2.24.8,3.44,1.25l1.65.63c.58.22,1.17.46,1.79.71a1.42,1.42,0,0,1,.83,1.67c-.05.21-.12.46-.19.73l-.9,3.42c0,.17-.09.34-.14.51q-.26.93-.54,2a1.94,1.94,0,0,1-.05.2c-.17.59-.34,1.22-.51,1.87-.12.42-.23.85-.35,1.29,0,0,0,0,0,0l-.19.7c-4.9,18-14.9,53.35-26.52,87-7.48,21.63-15.61,42.54-23.5,57.65A291.21,291.21,0,0,1,663.27,812.81Z"/><path d="M733.52,628.46l-.9,3.42Z"/><path d="M731.94,634.4q.28-1.08.54-2Q732.24,633.32,731.94,634.4Z"/><path d="M731.89,634.6l-.51,1.87C731.55,635.82,731.72,635.19,731.89,634.6Z"/><path d="M731,637.76c.12-.44.23-.87.35-1.29C731.27,636.89,731.15,637.32,731,637.76Z"/><path d="M731.09,625.35l-1.65-.63Z"/><path class="cls-1" d="M724.16,976.65,685.49,1001c-8.22-12-14-20.39-15.79-23C687.86,977.83,706,977.55,724.16,976.65Z"/><path d="M715.08,851.25c-.06.48-.11,1-.16,1.41C715,852.2,715,851.73,715.08,851.25Z"/><path class="cls-1" d="M710.8,1038l-33.08,23.32-.77.58-15.07-20.23-.4,0c.48-4.71,1.13-11.64,1.81-19.24.23-2.58.47-5.24.71-7.92L685.49,1001C692.48,1011.18,701.25,1024,710.8,1038Z"/><path d="M695.35,638.08a1.81,1.81,0,0,1-.12,2.79l-12.64,9a15.54,15.54,0,0,1-4.14,2.37c-2.24.75-4.68.48-7,.2-13.43-1.66-33.32-7.89-44.41-15.64l-.09,0q6.15-11.76,12.32-23.64a1.8,1.8,0,0,1,2.39-.8l.14.07a80.48,80.48,0,0,0,8.37,5c.81.42,1.63.84,2.47,1.24.44.22.89.43,1.35.64.87.42,1.76.82,2.66,1.21a105.46,105.46,0,0,0,13.09,4.72c1.92.54,3.82,1,5.69,1.41.64.13,1.27.26,1.9.37,1.17.21,2.32.38,3.44.52,1.4.17,2.76.28,4.07.32a4.11,4.11,0,0,1,4.47,2.8c.21.37.43.73.67,1.08s.26.41.4.61.45.67.7,1,.45.63.7.93a.94.94,0,0,0,.09.12c.3.38.6.75.92,1.11s.75.85,1.14,1.25.6.61.91.91l0,0Zm-19.56,4.41a3.16,3.16,0,0,0,0-3.63,3.4,3.4,0,0,0-1.09-.82c-1.23-.61-3.59-.56-3.78,1.22-.11,1.17.26,3.67,1.52,4.14a2.48,2.48,0,0,0,.86.11,3.3,3.3,0,0,0,1.82-.32A2.21,2.21,0,0,0,675.79,642.49Z"/><path class="cls-1" d="M651.72,383.73a19.25,19.25,0,0,1,4.08,3.7c19.43,23.86,26.77,55.08,32.89,85.24,2.06,10.1,4,20.34,3.64,30.65s-3.43,20.83-10.3,28.54c-3.29,3.69-7.67,7.25-7.79,12.19-.09,3.28,3.06,12.71,2.45,16.45-6.24,9.79-11.12,20.51-16.85,30.65l-.25-.14c-17.81,7.63-40.77,4.11-49.33-8.39a39,39,0,0,1-5.45-12.4c0-.15-.08-.29-.12-.44a97.09,97.09,0,0,1-2.38-18c0-.54-.07-1.08-.1-1.61-.27-4.92-.52-9.89-2-14.61-1.48-4.89-4.2-9.3-6.67-13.77a220,220,0,0,1-14.86-34.13c-2.25-6.38-4.3-12.83-6.28-19.3-.29-1-.6-1.94-.89-2.91-3.79-12.7-7-25.79-5.69-38.92a56.78,56.78,0,0,1,65.94-50.18l1.29.24a53.92,53.92,0,0,1,7.2,1.85A45.58,45.58,0,0,1,651.72,383.73Z"/><path d="M690,631.65a5.81,5.81,0,0,0,.4.61C690.22,632.06,690.08,631.86,690,631.65Z"/><path class="cls-1" d="M685.49,1001,664,1014.49c1.42-16,2.82-32.59,3.15-36.46l2.55,0C671.48,980.59,677.27,989,685.49,1001Z"/><path d="M669.72,625.15c1.91.54,3.82,1,5.69,1.41C673.54,626.17,671.64,625.69,669.72,625.15Z"/><path class="cls-1" d="M669.16,341.74c2.58,6.89-11.18,19-15.37,23.32,7.19-.52,16.86-.15,9.76,8.06a78.23,78.23,0,0,1-11.83,10.61,45.58,45.58,0,0,0-11.42-5.26,53.92,53.92,0,0,0-7.2-1.85l-1.29-.24a56.78,56.78,0,0,0-65.94,50.18c-1.33,13.13,1.9,26.22,5.69,38.92.29,1,.6,1.95.89,2.91,2,6.47,4,12.92,6.28,19.3l-.61.21c-9-.36-35.4-9.95-31.29-20.49.7-1.81,3.76-1.8,4-3.91s-6.39-8.34-7.65-10c-6-8.07-13.55-21.89-14.4-34.95-.15-2.27-.28-3.05,1.57-4.63,1.41-1.21,4.84-.22,5.84-1.08,2.34-2,.7-2.58-.56-6.38-1.84-5.51-2-10.59-1.94-16.32.08-8.24,1.25-18.8,6-25.87,5.09-7.61,9.41,1,16,2.75,4.08-6.85,30.35-48.31,41.32-47.84,4.85.21,9.49,7,11.82,10.12,11.95-13.78,41.58-16,42.37-13.68,2.5,7.24-3.1,17.33-5.16,24.48C652.38,339.38,667.7,337.84,669.16,341.74Z"/><path class="cls-1" d="M664,1014.49c-.24,2.68-.48,5.34-.71,7.92l-.65-.06-41.47,1.38c1.55-25.88,2.54-43.5,2.54-43.5v-1.82l36.36-.31,7.09-.07C666.82,981.9,665.42,998.47,664,1014.49Z"/><path class="cls-1" d="M662.64,1022.35l.65.06c-.68,7.6-1.33,14.53-1.81,19.24-.88,8.66-2,18.9-3.24,30.17l-.94-.11-39.16,1c1.14-17.81,2.17-34.68,3-49Z"/><path class="cls-1" d="M657.3,1071.71l.94.11c-1.71,15.13-3.77,32.09-6.13,49.49l-1.68-.23-35.52.61c1.12-16.31,2.22-33,3.23-49Z"/><path d="M638,841.55c8.24-6.76,16.61-16.11,25.25-28.74-6.59,31.58-8.35,59.13-8,91.45,0,0,2.06,6.88-4.81,9.17s-116-.06-116-.06a158.16,158.16,0,0,1-24.52-.69l-1.74-.19a16.53,16.53,0,0,1-7-2c-3.41-2.18-4.84-6.41-5.66-10.38-.48-2.31-.84-4.63-1.1-7l.69-.08c7.31,2.29,15.08,2.54,22.74,2.78q24.64.78,49.28,1.54c4.32.14,9,.19,12.58-2.2,3.13-2.1,5.74-6.75,7.36-10.16-3-5.58-9-9.11-15.14-10.69s-12.6-1.46-19-1.45q-29.48.09-58.86-2.71H494l.06-1.61c.86-21.47,2.13-56.68,3.85-78.09l.4-.14c4.91,14,12.46,27.36,23.78,38.41q1.68,1.66,3.5,3.24a92.16,92.16,0,0,0,21.16,13.88h0a122.43,122.43,0,0,0,34.42,10.25C600.48,859.14,618.9,857.26,638,841.55Z"/><path class="cls-1" d="M650.43,1121.08l1.68.23c-2.27,16.79-4.84,34-7.65,50.31l-.9-.15-32.41,1.17c1.24-15.49,2.52-33,3.76-51Z"/><path class="cls-1" d="M643.56,1171.47l.9.15c-3.55,20.65-7.51,39.93-11.79,55.29l-1.71-.47-25.27-1c1.55-8.24,3.46-28,5.46-52.81Z"/><path class="cls-1" d="M631,1226.44l1.71.47c-.94,3.34-1.89,6.5-2.85,9.45-3.31,10.09-8.17,23.74-14,39.55l-1.64-.61-25.38-2.78c8.38-23.41,14.52-40.24,16-43.41a19,19,0,0,0,.94-3.66Z"/><path d="M597.57,821.29c30.79,1.36,39,16.71,40.45,20.26-19.12,15.71-37.54,17.59-56.81,14.62a122.43,122.43,0,0,1-34.42-10.25l.32-.69S562.7,819.74,597.57,821.29Z"/><path class="cls-1" d="M623.7,978.41v1.82s-1,17.62-2.54,43.5l-48.69,1.62c1.23-27.38,2-46.27,2-46.27v-.31Z"/><path class="cls-1" d="M572.48,1025.35l48.69-1.62c-.86,14.33-1.89,31.2-3,49L570.21,1074C571.06,1056.45,571.84,1039.73,572.48,1025.35Z"/><path class="cls-1" d="M570.21,1074l47.93-1.27c-1,15.94-2.11,32.64-3.23,49l-47.19.8C568.6,1106.39,569.44,1089.86,570.21,1074Z"/><path class="cls-1" d="M616.43,1607.49c.23,8.18-6.26,14.49-6.26,14.49h-46.4l-.43-14.09,9.84-.08h1.37Z"/><path class="cls-1" d="M616.43,1607.47v0l-41.88.31h-1.37v-1.47s.17-15.14,5.65-22.65l.14-.74h0c11.15,2.27,20.32,4.69,24.43,7.11C613.21,1595.84,616.29,1602.06,616.43,1607.47Z"/><path class="cls-1" d="M614.17,1275.3l1.64.61c-5.72,15.48-12.37,33-19.4,51.32l-1.71-.4-23.94-3.6c6.5-18.35,12.72-35.86,18-50.71Z"/><path class="cls-1" d="M567.72,1122.49l47.19-.8c-1.24,18-2.52,35.46-3.76,51l-46.52,1.69C565.67,1158.71,566.72,1140.88,567.72,1122.49Z"/><path class="cls-1" d="M564.63,1174.33l46.52-1.69c-2,24.86-3.91,44.57-5.46,52.81l-45.53-1.78C561.54,1215.65,563.09,1197.42,564.63,1174.33Z"/><path class="cls-1" d="M560.16,1223.67l45.53,1.78a19,19,0,0,1-.94,3.66c-1.44,3.17-7.58,20-16,43.41L547.36,1268c6-21.85,10.46-37.38,11.84-40.41A19,19,0,0,0,560.16,1223.67Z"/><path d="M604.69,569.78c0,.15.07.29.12.44-8.4,2.44-21.37,6.13-31,8.45,12.84-3.2,30.45-8.79,30.45-8.79Z"/><path d="M604.69,569.78l-.45.1s-17.61,5.59-30.45,8.79l-1.65.4a86.64,86.64,0,0,1-8.55,1.66h-.06l-.85.08h-.43c-7.89.13-26.59-13-26.59-13l-1-.25c.51-1.33.79-2,.79-2s3.48-.53,8.93-1.43c4-.67,9.11-1.53,14.67-2.55h0c5.94-1.07,12.42-2.3,18.73-3.62,5-1,9.9-2.13,14.3-3.24h0c3.88-1,7.38-2,10.25-2.91A97.09,97.09,0,0,0,604.69,569.78Z"/><path class="cls-1" d="M594.7,1326.83l1.71.4c-6.71,17.46-13.77,35.6-20.71,53.29l-1.61-.25L552,1376.43c6.15-17.46,12.59-35.71,18.78-53.2Z"/><path class="cls-1" d="M591.68,553.22l.37,1.5c-4.4,1.11-9.29,2.2-14.3,3.24l-.45-2.19c.64-2.76,2.8-15.08,5.06-15.53S590.82,550.61,591.68,553.22Z"/><path class="cls-1" d="M547.36,1268l41.43,4.53c-5.31,14.85-11.53,32.36-18,50.71L534,1317.7C538.79,1299.56,543.41,1282.4,547.36,1268Z"/><path d="M587,885.07c-1.62,3.41-4.23,8.06-7.36,10.16-3.61,2.39-8.26,2.34-12.58,2.2q-24.63-.75-49.28-1.54c-7.66-.24-15.43-.49-22.74-2.78l-.69.08h0a155.62,155.62,0,0,1-.37-23h.06q29.34,2.79,58.86,2.71c6.36,0,12.81-.12,19,1.45S584,879.49,587,885.07Z"/><path class="cls-1" d="M563.34,1607.89l-131.14,1h-1.37v-1.13l28.53-79.4,38.2.48,3.84.05,19.22.23-12.31,41.61-2.6,1.42,2.42.28c9.55,1.09,45.37,5.35,70.84,10.51l-.14.74c-5.48,7.51-5.65,22.65-5.65,22.65v1.47Zm-76.16-45.13a11.23,11.23,0,0,0,1.87-11,12.88,12.88,0,0,0-8.32-7.66c-3.74-1.13-8.16-1-11.33,1.31-8.2,5.88-7.9,19.34,4,22A14.73,14.73,0,0,0,487.18,1562.76Z"/><path class="cls-1" d="M577.3,555.77l.45,2.19c-6.31,1.32-12.79,2.55-18.73,3.62h0l-.41-2.29a92.25,92.25,0,0,1,2.56-9.2c.23-.67,1.66-6.81,3.89-7.43s5.56,4.23,6.66,5.43C573.83,550.44,575.05,553.52,577.3,555.77Z"/><path class="cls-1" d="M534.13,1427.19c5.2-14.8,11.36-32.34,17.85-50.76l22.11,3.84,1.61.25c-13.88,35.38-27.26,69-36.34,91.65l-1.53-.29-18.76-.78,0-1.13S525.2,1452.61,534.13,1427.19Z"/><path class="cls-1" d="M574.47,978.77v.31s-.76,18.89-2,46.27l-45.58,1.51h-.54c-.34-18.61-.94-35.19-1.84-47.78l8.36-.05Q553.67,978.92,574.47,978.77Z"/><path class="cls-1" d="M526.9,1026.86l45.58-1.51c-.64,14.38-1.42,31.1-2.27,48.66l-43.06,1.14h-.45c0-16.73-.07-33.17-.34-48.28Z"/><path class="cls-1" d="M534,1317.7l36.81,5.53c-6.19,17.49-12.63,35.74-18.78,53.2l-32.09-5.58C524.51,1353.28,529.33,1335,534,1317.7Z"/><path class="cls-1" d="M527.15,1075.15l43.06-1.14c-.77,15.85-1.61,32.38-2.49,48.48l-40.94.7h-.54c.27-15.65.43-32,.46-48Z"/><path class="cls-1" d="M526.78,1123.19l40.94-.7c-1,18.39-2.05,36.22-3.09,51.84l-37.11,1.34-2.68-.1c.59-15.34,1.08-33.37,1.4-52.39Z"/><path class="cls-1" d="M527.52,1175.67l37.11-1.34c-1.54,23.09-3.09,41.32-4.47,49.34l-36.46-1.43-2.51-.36c1.28-9.25,2.15-17,2.51-22.93.41-6.71.79-14.61,1.14-23.38Z"/><path d="M563.59,580.73a86.64,86.64,0,0,0,8.55-1.66A74.56,74.56,0,0,1,563.59,580.73Z"/><polygon class="cls-1" points="563.34 1607.89 563.77 1621.98 562.4 1621.98 427.35 1621.98 428.87 1608.91 430.24 1608.9 430.83 1608.9 432.2 1608.89 563.34 1607.89"/><path d="M562.68,580.82l.85-.08C563.22,580.78,562.94,580.8,562.68,580.82Z"/><path class="cls-1" d="M523.7,1222.24l36.46,1.43a19,19,0,0,1-1,3.91c-1.38,3-5.84,18.56-11.84,40.41l-30.91-3.38-2.1-.37c2.84-16,5.19-30.39,6.84-42.36Z"/><path class="cls-1" d="M558.6,559.29l.41,2.29c-5.56,1-10.65,1.88-14.67,2.55L544.1,563a95,95,0,0,1,3.17-13.2c.51-1.6,1.57-3.52,3.23-3.3,1.13.16,1.84,1.28,2.39,2.28Q555.74,554,558.6,559.29Z"/><path class="cls-1" d="M519.89,1370.85l32.09,5.58c-6.49,18.42-12.65,36-17.85,50.76l-28.29-2.72C509.93,1408.81,514.79,1390.24,519.89,1370.85Z"/><path class="cls-1" d="M516.45,1264.61l30.91,3.38c-4,14.41-8.57,31.57-13.41,49.71l-28.19-4.23-.66-.13c3.41-17.23,6.55-33.86,9.25-49.1Z"/><path class="cls-1" d="M537.83,1471.88l1.53.29c-7.11,17.77-11.59,28.85-11.59,28.85l-17-.81-3.85-.18-38.37-1.82-5.44-.25c2.26-7.92,4.86-17.82,7.69-29.18l.21,0c.59.15,10.89.64,23.23,1.2,8.11.36,17.11.74,24.81,1.07Z"/><path class="cls-1" d="M505.84,1424.47l28.29,2.72c-8.93,25.42-15,42.78-15,42.78l0,1.13c-7.7-.33-16.7-.71-24.81-1.07l.05-1.21S499,1450.74,505.84,1424.47Z"/><path class="cls-1" d="M505.76,1313.47,534,1317.7c-4.62,17.34-9.44,35.58-14.06,53.15l-24.82-4.32-.86-.18c3.78-17.73,7.47-35.67,10.89-53Z"/><path d="M522.11,828.79q1.7,1.66,3.5,3.24Q523.79,830.46,522.11,828.79Z"/><path class="cls-1" d="M495.07,1366.53l24.82,4.32c-5.1,19.39-10,38-14.05,53.62l-23-2.21-.92-.21c4-17.63,8.2-36.54,12.27-55.7Z"/><polygon class="cls-1" points="506.94 1500.03 506.86 1501.65 497.55 1528.85 459.35 1528.37 468.54 1498.79 468.57 1498.21 506.94 1500.03"/><path class="cls-1" d="M482.86,1422.26l23,2.21c-6.85,26.27-11.53,44.35-11.53,44.35l-.05,1.21c-12.34-.56-22.64-1-23.23-1.2l-.21,0c3.44-13.76,7.21-29.64,11.12-46.73Z"/><path class="cls-1" d="M489.05,1551.75a11.23,11.23,0,0,1-1.87,11,14.73,14.73,0,0,1-13.83,4.62c-11.85-2.64-12.15-16.1-4-22,3.17-2.28,7.59-2.44,11.33-1.31A12.88,12.88,0,0,1,489.05,1551.75Z"/><path class="cls-2" d="M768,571.81c3.68,1.56,8.12-.48,10.47-3.71s3.07-7.36,3.45-11.34a21.82,21.82,0,0,0-.41-8l0-.1a10.47,10.47,0,0,0-1.19-2.59c-2.29-3.46-14-7.29-19.14-6.68"/><path class="cls-2" d="M650.75,605.2c.26-.35.53-.7.78-1.05l0,0a122.2,122.2,0,0,0,8.28-13c5.73-10.14,10.61-20.86,16.85-30.65q1.83-2.89,3.84-5.66c2.81-3.85,5.9-7.47,9-11.08,5.64-6.61,11.5-13.39,19.16-17.34,12.27-6.32,26.85-4.33,40.42-2.19q27.38,4.32,54.77,8.62a43,43,0,0,1,4.78,1,13.75,13.75,0,0,1,4.4,2c2.67,1.87,4.47,5.48,3.29,8.57s-4.77,4.41-8.18,4.9h0c-.47.06-.93.12-1.38.16a102.87,102.87,0,0,1-25.28-.8h0l.07.11,1.13,1.9"/><path class="cls-2" d="M874.27,596.64a60.12,60.12,0,0,0-10.35-20.58c-.86-1.14-1.78-2.24-2.74-3.31-2.17-2.44-4.68-4.77-7.8-5.73s-7-.13-8.73,2.65c-2.16,3.45-.21,7.9,1.61,11.55,0,.1.1.18.14.28a183.94,183.94,0,0,1,9.45,22.71"/><path class="cls-2" d="M846.44,581.53l0,0c-2.37-1.62-6.73-1.24-9,.48a10.77,10.77,0,0,0-3.9,7.43,24,24,0,0,0,.86,8.55l0,.12a63.87,63.87,0,0,0,8.83,20"/><path class="cls-2" d="M833.64,598.28a7.57,7.57,0,0,0-7.16.65c-3.14,2.15-4.15,6.34-4.09,10.15a37.79,37.79,0,0,0,2.5,12c.84,2.4,1.83,4.76,2.81,7.08l3.57,8.53"/><path class="cls-2" d="M874.11,596.22c.06.14.11.27.16.42v0a2.1,2.1,0,0,1,.06.24,10.1,10.1,0,0,1-7.92,12.83c.5,4.42.61,9-1.15,13.13s-5.8,7.47-10.24,7.2c1.43,6.11-2.39,12.48-7.63,15.94s-11.61,4.62-17.79,5.67c.27,4.15.29,11.13.16,15.3"/><path class="cls-2" d="M736.77,586.72c-4.54,9.12-11.95,25.45-16.49,34.57"/><path class="cls-2" d="M544.1,563a95,95,0,0,1,3.17-13.2c.51-1.6,1.57-3.52,3.23-3.3,1.13.16,1.84,1.28,2.39,2.28q2.85,5.28,5.71,10.53a92.25,92.25,0,0,1,2.56-9.2c.23-.67,1.66-6.81,3.89-7.43s5.56,4.23,6.66,5.43c2.12,2.35,3.34,5.43,5.59,7.68.64-2.76,2.8-15.08,5.06-15.53s8.46,10.37,9.32,13"/><path class="cls-2" d="M757.66,911c0,.44.05.89.08,1.34a254.55,254.55,0,0,0,3.89,31c-2.86.3-5.72.6-8.58.87-13.59,1.32-27.21,2.33-40.83,3.22q-95,6.14-190.2,3.6-7.31-.19-14.6-.44a2.36,2.36,0,0,1-2.77-3.25q2.46-16,4.92-32"/><path class="cls-2" d="M524.46,978.25l.06.84c.9,12.59,1.5,29.17,1.84,47.78.27,15.11.38,31.55.34,48.28,0,16.06-.19,32.38-.46,48-.32,19-.81,37-1.4,52.39-.35,8.77-.73,16.67-1.14,23.38-.36,5.9-1.23,13.68-2.51,22.93-1.65,12-4,26.4-6.84,42.36-2.7,15.24-5.84,31.87-9.25,49.1s-7.11,35.28-10.89,53c-4.07,19.16-8.24,38.07-12.27,55.7-3.91,17.09-7.68,33-11.12,46.73-2.83,11.36-5.43,21.26-7.69,29.18l5.44.25,38.37,1.82,3.85.18,17,.81s4.48-11.08,11.59-28.85c9.08-22.69,22.46-56.27,36.34-91.65,6.94-17.69,14-35.83,20.71-53.29,7-18.3,13.68-35.84,19.4-51.32,5.84-15.81,10.7-29.46,14-39.55,1-2.95,1.91-6.11,2.85-9.45,4.28-15.36,8.24-34.64,11.79-55.29,2.81-16.33,5.38-33.52,7.65-50.31,2.36-17.4,4.42-34.36,6.13-49.49,1.28-11.27,2.36-21.51,3.24-30.17.48-4.71,1.13-11.64,1.81-19.24.23-2.58.47-5.24.71-7.92,1.42-16,2.82-32.59,3.15-36.46.05-.56.07-.85.07-.85"/><path class="cls-2" d="M762.65,974.31s4.92,6.51,12.69,17.52c8.19,11.62,19.56,28.25,31.64,47.53,10.06,16.05,20.62,33.94,30.26,52.31a467.21,467.21,0,0,1,21.3,45.89q2.65,6.72,4.89,13.3l9.55,44.63,10.63,49.63,10.23,47.82,10.3,48.1,8.55,40h0l6.46,30.19-10.33,4.56L901.4,1419l-32.86,14.52h0l-3.21,1.42-5,2.18s-3.82-11.58-9.91-29.77l-.24-.71c-3.55-10.58-7.85-23.34-12.61-37.34s-10-29.24-15.36-44.77-11-31.57-16.45-46.82c-5.72-16-11.3-31.29-16.37-44.69-8-21-14.7-37.45-18.85-44.91a25.59,25.59,0,0,0-1.82-2.93c-4.06-5.47-13.5-18.16-25.18-33.85-10.65-14.31-23.16-31.11-35.15-47.2L677,1061.92l-15.07-20.23"/><path class="cls-2" d="M825.64,621.22l-.75-.1-23.75-3.33s-9.1-1.9-6.43-9.92c.65-1.93,2.14-8.08,3.93-15.7,3.87-16.67,9.08-40.4,9.54-42.5l0-.15"/><path class="cls-2" d="M864,576l10.43-48.25s4.64-12.82-6.36-13.82c-8.78-.81-33-2.57-45.29-3.38a8.51,8.51,0,0,0-8.86,6.83l-2.59,15.68"/><path class="cls-2" d="M428.94,1608.27l-.07.63h0L427.35,1622H610.17s6.49-6.31,6.26-14.49v0c-.14-5.41-3.22-11.63-13-17.41-4.11-2.42-13.28-4.84-24.43-7.11h0c-25.47-5.16-61.29-9.42-70.84-10.51l-2.42-.28"/><polyline class="cls-2" points="428.25 1608.92 428.87 1608.91 430.24 1608.9 430.83 1608.9 432.2 1608.89 563.34 1607.89 573.18 1607.81 574.55 1607.8 616.43 1607.49 617.35 1607.48"/><path class="cls-2" d="M573.17,1606.34s.17-15.14,5.65-22.65"/><polyline class="cls-2" points="563.34 1607.8 563.34 1607.89 563.77 1621.98 563.82 1623.44"/><path class="cls-2" d="M469.4,1545.4c3.17-2.28,7.59-2.44,11.33-1.31a12.88,12.88,0,0,1,8.32,7.66,11.23,11.23,0,0,1-1.87,11,14.73,14.73,0,0,1-13.83,4.62C461.5,1564.74,461.2,1551.28,469.4,1545.4Z"/><path class="cls-2" d="M899.65,1472.77c3.2-2.3,7.67-2.46,11.44-1.32a13,13,0,0,1,8.4,7.73,11.36,11.36,0,0,1-1.89,11.13,14.88,14.88,0,0,1-14,4.66C891.67,1492.31,891.36,1478.72,899.65,1472.77Z"/><path class="cls-2" d="M911.79,1452.36l-32.24,13.56-2.87,1.21-3.44,1.45s21.06,58.82,20.93,71a45.83,45.83,0,0,0,2.28,13.73,75.37,75.37,0,0,0,4.91,12.1L1025.85,1513l44-18.52s3.53-8.32.17-15.78c-2.24-4.93-7.48-9.49-18.78-11-4.73-.64-14.13.67-25.29,2.92-29.63,6-71.7,18.46-71.7,18.46L929,1445.14l-10.77,4.53Z"/><polyline class="cls-2" points="895.84 1553.51 896.45 1553.26 1019.98 1500.18 1030.27 1495.75 1030.28 1495.75 1069.6 1478.86"/><path class="cls-2" d="M1029.7,1494.42s-5.73-14-3.58-23.07"/><polyline class="cls-2" points="1019.94 1500.09 1019.98 1500.18 1025.85 1513 1026.45 1514.33"/><polyline class="cls-2" points="508.3 1570.74 520.61 1529.13 501.39 1528.9 497.55 1528.85 459.35 1528.37 430.82 1607.77"/><path class="cls-2" d="M471,1468.83c.59.15,10.89.64,23.23,1.2,8.11.36,17.11.74,24.81,1.07l18.76.78"/><polyline class="cls-2" points="850.89 1407.24 868.75 1399.54 894.19 1388.56 910.76 1381.42"/><polyline class="cls-2" points="497.32 1529.51 497.53 1528.9 497.55 1528.85 506.86 1501.65"/><line class="cls-2" x1="459.35" y1="1528.37" x2="468.54" y2="1498.79"/><path class="cls-3" d="M722,981.76s9.13,13.38,22.19,32.72c9,13.31,19.85,29.44,30.88,46,11.4,17.09,23,34.61,32.87,49.88,12.34,19,22,34.58,25.5,41.43a14.12,14.12,0,0,1,1.35,3.29c.44,3,5.56,23.67,12.62,51.62,3.68,14.61,7.89,31.19,12.24,48.24,4,15.85,8.2,32.11,12.16,47.56,4.43,17.28,8.61,33.56,12.1,47.13,5.78,22.47,9.67,37.54,9.67,37.54"/><path class="cls-3" d="M669.13,977.18s.2.28.57.83c1.78,2.58,7.57,11,15.79,23,7,10.2,15.76,23,25.31,37,9.67,14.19,20.14,29.62,30.41,44.87,11.7,17.37,23.14,34.5,32.81,49.25,11.84,18,21,32.54,24.87,39.62a18.74,18.74,0,0,1,1.93,4.29c.42,2.81,5.73,21,13.2,45.82,4.18,13.9,9,29.89,14.1,46.44,4.78,15.67,9.75,31.84,14.48,47.22,5.15,16.77,10,32.59,14.12,45.8,6.74,21.82,11.29,36.5,11.29,36.5"/><path class="cls-3" d="M574.47,979.08s-.76,18.89-2,46.27c-.64,14.38-1.42,31.1-2.27,48.66-.77,15.85-1.61,32.38-2.49,48.48-1,18.39-2.05,36.22-3.09,51.84-1.54,23.09-3.09,41.32-4.47,49.34a19,19,0,0,1-1,3.91c-1.38,3-5.84,18.56-11.84,40.41-4,14.41-8.57,31.57-13.41,49.71-4.62,17.34-9.44,35.58-14.06,53.15-5.1,19.39-10,38-14.05,53.62-6.85,26.27-11.53,44.35-11.53,44.35"/><path class="cls-3" d="M623.71,980.23s-1,17.62-2.54,43.5c-.86,14.33-1.89,31.2-3,49-1,15.94-2.11,32.64-3.23,49-1.24,18-2.52,35.46-3.76,51-2,24.86-3.91,44.57-5.46,52.81a19,19,0,0,1-.94,3.66c-1.44,3.17-7.58,20-16,43.41-5.31,14.85-11.53,32.36-18,50.71-6.19,17.49-12.63,35.74-18.78,53.2-6.49,18.42-12.65,36-17.85,50.76-8.93,25.42-15,42.78-15,42.78"/><path class="cls-3" d="M522,952.86a205.4,205.4,0,0,1-3.4,26.27l5.95,0,8.36-.05q20.79-.12,41.59-.27l49.23-.36,36.36-.31,7.09-.07,2.55,0c18.16-.18,36.33-.46,54.46-1.36,12.83-.64,25.64-1.59,38.41-3a299.18,299.18,0,0,1-9.46-28.9"/><path class="cls-4" d="M641.78,612.39a80.48,80.48,0,0,0,8.37,5c.81.42,1.63.83,2.47,1.24.44.22.89.43,1.35.64.87.41,1.76.81,2.66,1.21a105.46,105.46,0,0,0,13.09,4.72c1.92.54,3.82,1,5.69,1.41.64.13,1.27.26,1.9.37,1.17.21,2.31.38,3.44.52,1.4.17,2.76.28,4.07.32a4.11,4.11,0,0,1,4.47,2.8c.21.37.43.73.67,1.08s.26.41.4.61.45.67.7,1,.45.63.7.93a.94.94,0,0,0,.09.12c.3.38.6.75.92,1.11s.75.85,1.14,1.25l.91.91,0,0c.71.68,1.46,1.33,2.23,1.94l-1.85,1.32-12.64,9a15.54,15.54,0,0,1-4.14,2.37c-2.24.75-4.68.48-7,.2-13.43-1.66-33.32-7.89-44.41-15.64"/><path class="cls-4" d="M652,604.31a1.49,1.49,0,0,0-.25-.13l-.15-.07c-2-.78-6,.52-7.59,1.81a15.6,15.6,0,0,0-3.74,5.29l-.15.3c-.28.54-.56,1.07-.83,1.61q-6.18,11.89-12.32,23.64C620,649.9,613.11,663,606,676.15c-13.49,25-27,50.12-43.21,73.48"/><path class="cls-4" d="M651.23,604.08l.3.07.18,0c21.36,4.48,42.74,9.05,63.52,15.74l5,1.6c1.46.47,2.82.93,4.16,1.39l1.62.56c1.12.39,2.24.8,3.44,1.25l1.65.63c.58.22,1.17.46,1.79.71l1.15.45-.32,1.22c-.05.21-.12.46-.19.73l-.9,3.42c0,.17-.09.34-.14.51q-.24.93-.54,2a1.94,1.94,0,0,1-.05.2l-.51,1.87c-.11.42-.23.85-.35,1.29,0,0,0,0,0,0l-.19.7c-4.9,18-14.9,53.35-26.52,87-7.48,21.63-15.61,42.54-23.5,57.65a291.21,291.21,0,0,1-17.54,29.65c-8.64,12.63-17,22-25.25,28.74-19.12,15.71-37.54,17.59-56.81,14.62a122.43,122.43,0,0,1-34.42-10.25h0A92.16,92.16,0,0,1,525.61,832q-1.8-1.57-3.5-3.24c-11.32-11-18.87-24.37-23.78-38.41-14.51-41.34-6.18-88.91-4.15-103.18,3.26-22.79,35-105.55,40.44-119.6.51-1.33.79-2,.79-2s3.48-.53,8.93-1.43c4-.67,9.11-1.53,14.67-2.55h0c5.94-1.07,12.42-2.3,18.73-3.62,5-1,9.9-2.13,14.3-3.24h0c3.88-1,7.38-2,10.25-2.91.33-.12,8.29-2.28,1-.34"/><path class="cls-4" d="M497.93,790.52c-1.72,21.41-3,56.62-3.85,78.09l-.06,1.61a155.62,155.62,0,0,0,.37,23h0c.26,2.33.62,4.65,1.1,7,.82,4,2.25,8.2,5.66,10.38a16.53,16.53,0,0,0,7,2l1.74.19a158.16,158.16,0,0,0,24.52.69s109.18,2.35,116,.06,4.81-9.17,4.81-9.17c-.32-32.32,1.44-59.87,8-91.45,0-.22.08-.44.13-.66"/><path class="cls-4" d="M775,893.13c0-.47,0-1,0-1.42.1-6.69.16-13.81-.08-20.9,0-.84-.06-1.69-.1-2.53s-.07-1.68-.12-2.51-.09-1.68-.15-2.51c-.07-1.13-.15-2.25-.26-3.36,0-.54-.08-1.07-.14-1.6-.15-1.64-.33-3.26-.55-4.85-.06-.57-.14-1.13-.23-1.69-.22-1.57-.48-3.12-.77-4.64l-.09-.49"/><path class="cls-4" d="M704.64,725.63a886.73,886.73,0,0,0,9.24,134.78q1.41,9.74,3,19.41,1.07,6.45,2.24,12.86c.26,1.48.53,3,.82,4.42q.85,4.64,1.77,9.26c.42,2.16.86,4.32,1.3,6.48.35,0,.69.09,1,.12.6.08,1.2.14,1.8.2q1.47.17,2.94.27,3,.24,6.07.33c1.21,0,2.41,0,3.61,0a122.85,122.85,0,0,0,19.14-1.5l.11,0a117.53,117.53,0,0,0,12.12-2.54,6.7,6.7,0,0,0,3.73-2c1.09-1.33,1.19-3.28,1.21-5.07,0-2.17.06-4.43.1-6.76,0-.93,0-1.87.05-2.82"/><path class="cls-4" d="M494.08,870.22q29.34,2.79,58.86,2.71c6.36,0,12.81-.12,19,1.45S584,879.49,587,885.07c-1.62,3.41-4.23,8.06-7.36,10.16-3.61,2.39-8.26,2.34-12.58,2.2q-24.63-.75-49.28-1.54c-7.66-.24-15.43-.49-22.74-2.78"/><path class="cls-4" d="M675.79,642.49a2.21,2.21,0,0,1-.66.7,3.3,3.3,0,0,1-1.82.32,2.48,2.48,0,0,1-.86-.11c-1.26-.47-1.63-3-1.52-4.14.19-1.78,2.55-1.83,3.78-1.22a3.4,3.4,0,0,1,1.09.82A3.16,3.16,0,0,1,675.79,642.49Z"/><path class="cls-4" d="M846.43,683.64a16.48,16.48,0,0,1-7.15,2.79c-1.12.22-2.24.42-3.37.58s-2.14.31-3.21.43c-2.33.27-4.66.45-7,.58-1,.05-2,.1-3,.13-2.23.08-4.45.12-6.68.14h-.64l-2.74,0H812l-.42.58q-3.7,5.1-7.39,10.19l-.7,1c.28.28.56.57.82.87s.74.83,1.08,1.26a29.18,29.18,0,0,1,3.2,4.84c.12.21.23.43.33.64.36.71.68,1.43,1,2.16.23.56.43,1.13.62,1.7.1.28.19.57.27.86a1.33,1.33,0,0,0,.42.77,1.28,1.28,0,0,0,.84.18l8.93-.09a105,105,0,0,0,15.46-.91l1.17-.2,1.16-.22.83-.18,1-.23,1.26-.32.84-.24,1-.28a52.21,52.21,0,0,0,6.51-2.48l.94-.45c.51-.24,1-.49,1.52-.76s1.1-.58,1.64-.89l.79-.46"/><path class="cls-4" d="M818.69,699.44s0,0,0,0a3.46,3.46,0,0,1,3.19-1.2,3.14,3.14,0,0,1,2.47,2.35,2.82,2.82,0,0,1-1.45,3,2.93,2.93,0,0,1-3.33-.68,3.67,3.67,0,0,1-.78-3.4"/><path class="cls-4" d="M774.59,870.82c-3,2.72-7.05,4-11.07,4.49s-8.09.24-12.14.3a4,4,0,0,0-2,.37,3.91,3.91,0,0,0-1.12,1.1,53.58,53.58,0,0,0-5.51,8.74,1.48,1.48,0,0,0-.24,1,1.43,1.43,0,0,0,.5.67l4.71,4.39a8.9,8.9,0,0,0,3.3,2.26,8.68,8.68,0,0,0,3.41.13c1.58-.15,3.17-.31,4.75-.49s2.94-.35,4.4-.55c1.66-.22,3.31-.46,5-.72l2.28-.37,2.43-.42.1,0"/><path class="cls-4" d="M762.27,579.38s9.69,1.78,15.78,12.76h0c.09.15.18.3.26.45"/><path class="cls-4" d="M535.66,567.85s18.7,13.11,26.59,13h.43l.85-.08h.06a86.64,86.64,0,0,0,8.55-1.66l1.65-.4c9.65-2.32,22.62-6,31-8.45,5.07-1.47,8.47-2.5,8.47-2.5"/><path class="cls-4" d="M547.11,845.23s15.59-25.49,50.46-23.94c30.79,1.36,39,16.71,40.45,20.26a5.57,5.57,0,0,1,.28.73"/><path class="cls-4" d="M781.61,852.1A56.16,56.16,0,0,1,790.48,841c.4-.4.82-.81,1.26-1.21.65-.61,1.33-1.22,2-1.82s1.46-1.21,2.23-1.8q.78-.6,1.59-1.17c.55-.39,1.1-.77,1.67-1.14,1.15-.75,2.34-1.47,3.6-2.14a44.74,44.74,0,0,1,24-5.43c.83,0,1.67.1,2.52.2,1.28.13,2.59.32,3.92.57s2.68.54,4.06.91q1.38.35,2.79.81c.47.14,1,.3,1.43.47s1,.32,1.43.51,1,.36,1.46.56,1,.38,1.47.6h0q.52.21,1.05.45c.48.21,1,.42,1.44.65"/><path class="cls-4" d="M621.4,606.14a300.73,300.73,0,0,1-20,35.89,51.54,51.54,0,0,1,15.32,11.22"/><path class="cls-4" d="M714.18,860.38c.13-1.68.32-3.77.58-6.2,0-.42.09-.86.14-1.31a1.49,1.49,0,0,0,0-.21c.05-.46.1-.93.16-1.41l0-.27c0-.32.07-.64.11-1s.1-.85.15-1.29.14-1.17.21-1.78c.45-3.72,1-7.91,1.6-12.44l.18-1.33c.51-3.73,1.07-7.69,1.68-11.83.09-.67.19-1.34.3-2,1.27-8.63,2.74-17.94,4.34-27.46.14-.82.28-1.65.43-2.48.32-1.93.66-3.87,1-5.82l.42-2.37c.74-4.2,1.51-8.41,2.3-12.58l.51-2.65.12-.64q.31-1.65.63-3.27l.18-.9c.1-.53.21-1.06.32-1.59.2-1.06.41-2.11.63-3.16.11-.53.21-1,.32-1.57.42-2.08.86-4.15,1.29-6.18l.33-1.52.33-1.51.33-1.5c.21-1,.44-2,.66-3l.57-2.53.09-.37c.18-.77.36-1.54.55-2.31s.3-1.29.46-1.93c.22-.93.44-1.85.67-2.76.11-.45.22-.9.34-1.35.21-.85.42-1.68.64-2.51.35-1.35.7-2.67,1.06-4,.11-.41.22-.82.34-1.23.22-.82.45-1.62.68-2.41s.46-1.61.7-2.39.44-1.45.66-2.16.51-1.6.76-2.37c.43-1.3.85-2.54,1.29-3.71a1.18,1.18,0,0,1,.07-.2c.19-.54.39-1.07.59-1.58.34-.89.68-1.74,1-2.54.22-.53.44-1,.67-1.52l.12-.26c.18-.39.36-.77.55-1.13s.44-.87.67-1.27a6.65,6.65,0,0,1,.33-.58,6.16,6.16,0,0,1,.33-.55A5.69,5.69,0,0,1,747,699a5.78,5.78,0,0,1,.33-.48.22.22,0,0,1,.05-.08,10.69,10.69,0,0,1,.78-1l-1.07-.88-14.8-12.17a5.18,5.18,0,0,1-1.47-1.57c-.58-1.21.18-2.53.91-3.69l13.8-21.77.57-.89-.69-.81-14.08-16.62-.48-.57-1-1.18"/><path class="cls-4" d="M580.45,720.79s-4.84-8.14-4.58-24.94"/><path class="cls-2" d="M798.15,592.06c-1.31-3.39-3.15-6.72-6.11-8.82s-7.21-2.69-10.18-.62-3.88,6-3.81,9.52"/><path class="cls-2" d="M778.05,592.15c0,.63.05,1.25.11,1.87,0,.28.06.56.09.84a.88.88,0,0,1,0,.17c.08.59.18,1.17.29,1.75.06.3.12.6.19.9s.1.45.16.68c.12.47.24.95.38,1.42.08.28.16.55.25.82l.21.66c.09.28.19.57.29.85,0,.11.07.21.11.31l.33.91c1.52,4,3.5,7.88,5.25,11.84.22.49.44,1,.64,1.47.08.16.14.32.21.48.17.41.34.82.49,1.23a4.45,4.45,0,0,1,.22.57,11.16,11.16,0,0,1,.39,1.05,3.73,3.73,0,0,1,.2.56q.15.38.27.75l-.63.63-.15.16c-.27.27-.53.54-.78.82q-1.17,1.23-2.25,2.52c-.25.3-.51.6-.75.91q-.71.85-1.35,1.74l-.55.72q-.62.84-1.2,1.71c-.23.33-.45.67-.67,1-.5.76-1,1.54-1.45,2.33-.23.38-.45.76-.66,1.15a.75.75,0,0,0-.07.12c-.24.42-.47.84-.7,1.27s-.31.59-.46.89-.34.65-.5,1a62.22,62.22,0,0,0-2.94,6.94c-.17.47-.34,1-.49,1.42s-.33,1-.48,1.51-.24.79-.35,1.19q-.48,1.68-.87,3.39c-.12.51-.23,1-.33,1.54-.07.34-.14.68-.2,1-.13.7-.25,1.4-.35,2.1-.08.52-.16,1-.22,1.57-.13,1-.24,2.09-.32,3.14,0,.35,0,.7-.07,1.05-.07,1.23-.11,2.45-.11,3.68q0,.9,0,1.8c0,.59,0,1.17.08,1.76v.06c0,.47.06.94.1,1.41,0,.25,0,.49.06.73"/><path class="cls-2" d="M746.67,568.08a42.92,42.92,0,0,0-5.42.8c-3.47.72-7,1.94-9.39,4.54s-3.23,6.89-1.07,9.69a8.92,8.92,0,0,0,5.82,3l.21,0h0c3.9.54,7.86-.28,11.7-1.14,4.85-1.08,10-2.43,13.7-5.59a13.68,13.68,0,0,0,2-2.08,14.32,14.32,0,0,0,2.66-5.73h0c1-4.54.22-9.68-1.5-14.12a11.67,11.67,0,0,0-3.14-5c-1.81-1.49-4.24-1.93-6.57-2.17a54.5,54.5,0,0,0-12.89.17"/><path class="cls-4" d="M770.78,671.72l-1.32.08c-4.5.28-8.67.54-12.32.75,2.42,32.46,4.86,65.1,12.74,96.68"/><path class="cls-4" d="M760.36,816.5c1.24,6.87,2.5,13.81,5.31,20.21a34.68,34.68,0,0,0,6.9,10.41,26.51,26.51,0,0,0,2.93,2.58c.3.23.6.44.91.65s.61.41.93.6a7.24,7.24,0,0,0,.71.41c.41.24.83.46,1.26.67a18.68,18.68,0,0,0,2,.86h0c.25.1.51.19.77.27.44.15.9.29,1.35.42,5,1.39,10.4,1.37,15.65,1.14,6.92-.3,13.9-.9,20.52-3,11.16-3.49,20.42-11,27.36-20.43l.63-.87L848,830l.09-.13.79-1.16c.44-.66.87-1.32,1.28-2,.22-.35.43-.7.64-1,.69-1.14,1.34-2.3,2-3.48.19-.36.38-.72.56-1.08.42-.83.83-1.67,1.22-2.52q.35-.74.66-1.47c.24-.52.46-1,.67-1.57.85-2,1.61-4.14,2.27-6.25q.24-.74.45-1.47.28-1,.54-1.92c5.45-20.34,3.77-41.85,1.57-62.8l-.24-2.21c-.16-1.37-.32-2.75-.5-4.15-.21-1.63-.43-3.28-.67-5-.22-1.51-.45-3-.7-4.55q-.47-2.93-1-5.88c-.13-.74-.27-1.49-.42-2.23-.23-1.19-.47-2.4-.72-3.6-.12-.61-.25-1.21-.38-1.82-.42-1.93-.86-3.86-1.34-5.79-.14-.6-.29-1.19-.44-1.79a168.86,168.86,0,0,0-7.35-22.65q-.4-1-.84-2l-.45-1-.51-1.15c-.26-.59-.53-1.17-.8-1.75-.19-.41-.39-.82-.59-1.23s-.45-.93-.68-1.39-.57-1.14-.87-1.7-.57-1.09-.86-1.63-.53-1-.8-1.43-.46-.81-.7-1.21l-.49-.83,0,0c-.11-.2-.23-.4-.35-.6l-.87.06-.31,0-.27,0-3.84.24-2.36.15-1.43.09h0l-8.68.56-5.5.35L798.82,670l-9.19.58-4.17.26-6.87.43-7.79.48"/><polyline class="cls-3" points="840.27 1368.43 856.72 1361.33 883.91 1349.6 903.38 1341.2"/><polyline class="cls-3" points="822.96 1324.31 842.6 1315.53 871.81 1302.47 892.44 1293.24"/><polyline class="cls-3" points="806.54 1277.48 828.12 1268.31 859.65 1254.91 881.75 1245.52"/><polyline class="cls-3" points="789.76 1232.92 814.02 1221.87 847.41 1206.67 871.06 1195.9"/><polyline class="cls-3" points="771.05 1187.88 798.89 1171.76 833.44 1151.76 856.75 1138.26"/><polyline class="cls-3" points="744.9 1150.86 774.02 1132.14 807.94 1110.33 835.75 1092.45"/><polyline class="cls-3" points="709.79 1103.71 741.21 1082.89 775.07 1060.45 805.41 1040.35"/><polyline class="cls-3" points="677.72 1061.34 710.8 1038.02 744.19 1014.48 774.1 993.4"/><polyline class="cls-3" points="526.9 1026.86 572.48 1025.35 621.17 1023.73 662.64 1022.35"/><polyline class="cls-3" points="527.15 1075.15 570.21 1074.01 618.14 1072.74 657.3 1071.71"/><polyline class="cls-3" points="526.78 1123.19 567.72 1122.49 614.91 1121.69 650.43 1121.08"/><polyline class="cls-3" points="527.52 1175.67 564.63 1174.33 611.15 1172.64 643.56 1171.47"/><polyline class="cls-3" points="523.7 1222.24 560.16 1223.67 605.69 1225.45 630.96 1226.44"/><polyline class="cls-3" points="516.45 1264.61 547.36 1267.99 588.79 1272.52 614.17 1275.3"/><polyline class="cls-3" points="505.76 1313.47 533.95 1317.7 570.76 1323.23 594.7 1326.83"/><polyline class="cls-3" points="495.07 1366.53 519.89 1370.85 551.98 1376.43 574.09 1380.27"/><polyline class="cls-3" points="482.86 1422.26 505.84 1424.47 534.13 1427.19 553.46 1429.05"/><polyline class="cls-3" points="663.92 1014.54 664 1014.49 685.49 1000.98 724.16 976.65 726.96 974.89"/><path class="cls-2" d="M676.57,561a4,4,0,0,0,.12-.52c.61-3.74-2.54-13.17-2.45-16.45.12-4.94,4.5-8.5,7.79-12.19,6.87-7.71,9.89-18.23,10.3-28.54s-1.58-20.55-3.64-30.65c-6.12-30.16-13.46-61.38-32.89-85.24a19.25,19.25,0,0,0-4.08-3.7,45.58,45.58,0,0,0-11.42-5.26,53.92,53.92,0,0,0-7.2-1.85l-1.29-.24a56.78,56.78,0,0,0-65.94,50.18c-1.33,13.13,1.9,26.22,5.69,38.92.29,1,.6,1.95.89,2.91,2,6.47,4,12.92,6.28,19.3a220,220,0,0,0,14.86,34.13c2.47,4.47,5.19,8.88,6.67,13.77,1.43,4.72,1.68,9.69,2,14.61,0,.53.06,1.07.1,1.61a97.09,97.09,0,0,0,2.38,18c0,.15.07.29.12.44a39,39,0,0,0,5.45,12.4c8.56,12.5,31.52,16,49.33,8.39"/><path class="cls-2" d="M578.12,487.9c-9-.36-35.4-9.95-31.29-20.49.7-1.81,3.76-1.8,4-3.91s-6.39-8.34-7.65-10c-6-8.07-13.55-21.89-14.4-34.95-.15-2.27-.28-3.05,1.57-4.63,1.41-1.21,4.84-.22,5.84-1.08,2.34-2,.7-2.58-.56-6.38-1.84-5.51-2-10.59-1.94-16.32.08-8.24,1.25-18.8,6-25.87,5.09-7.61,9.41,1,16,2.75,4.08-6.85,30.35-48.31,41.32-47.84,4.85.21,9.49,7,11.82,10.12,11.95-13.78,41.58-16,42.37-13.68,2.5,7.24-3.1,17.33-5.16,24.48,6.33-.68,21.65-2.22,23.11,1.68,2.58,6.89-11.18,19-15.37,23.32,7.19-.52,16.86-.15,9.76,8.06a78.23,78.23,0,0,1-11.83,10.61l-.44.28"/><line class="cls-2" x1="876.19" y1="1465.96" x2="866.13" y2="1436.81"/><line class="cls-2" x1="911.25" y1="1451.08" x2="901.98" y2="1420.35"/></g></svg>