<svg id="Layer_1" data-name="Layer 1" xmlns="http://www.w3.org/2000/svg" viewBox="0 0 1498.85 1672.4"><defs><style>.cls-1{fill:#fff;}.cls-2,.cls-3,.cls-4{fill:none;stroke-linejoin:round;}.cls-2{stroke:#000;}.cls-2,.cls-4{stroke-width:5px;}.cls-3,.cls-4{stroke:#fff;}.cls-3{stroke-width:4px;}</style></defs><title>Phonies_Phonies extended 19By_Growwwkit_</title><path class="cls-1" d="M921.55,116.68c45.34-14.38,201.24-63.55,190.79-56.31l-.4.26C1075.7,82.41,982.14,136,952.57,152.05c-5.63,3.06-8.94,4.76-9.09,4.64-7-6-34.11-36.14-34.11-36.14Z"/><path class="cls-1" d="M1112.61,60.73,968.5,171.86l-15.93-19.81c29.57-16.1,123.13-69.64,159.37-91.42l.4-.26Z"/><path class="cls-1" d="M1112.34,60.37c10.45-7.24-145.45,41.93-190.79,56.31l-.34-1s-7.23-10.1-21-27.76c-1.15-1.47,215-30.14,215-30.14l.47.62-3.09,2.37Z"/><path d="M773.06,1565.92v.06l-126.28-.46c-1.1-5.88-5-15.21-21.07-17.21a195.26,195.26,0,0,1-19.4-3.63c0-3,0-6.48,0-10.32,3.71-2.3,8.51-2.07,12.69-.8s8.07,3.52,12.19,5.07a18.59,18.59,0,0,0,4.61,1.17,11.57,11.57,0,0,0,5.31-.75,6,6,0,0,0,2.87-2.06,8.33,8.33,0,0,0,1-3c.86-4.13,2.15-8.67,5.76-10.86,1.53-.92,9.53-5.39,17.47-.63h0c4.9,3.55,11,5.75,17.46,8.14,17.87,6.6,47.33,15.34,66.24,17.69C768.4,1550.35,772.05,1560.07,773.06,1565.92Z"/><path class="cls-1" d="M707.27,407.06l14.33-6.21c-1.62,1.66-6.48,4.36-13.27,7.61C708,408.05,707.64,407.58,707.27,407.06Z"/><path class="cls-1" d="M579.58,1143.54l-.2,2c-2.14.25-8.54.7-18.16,1.13-20.3.92-54.91,1.79-93.84.73-9.67-.27-19.61-.65-29.67-1.18-1.19-.07,10.76-221.9,11.47-235.13l267.92-9.44-7.5,244.7s-8.93,0-22.09-.16c-27-.23-71.9-.72-94-1.55-8-.3-13-.64-13.14-1Z"/><path class="cls-1" d="M642.46,199.6a297.11,297.11,0,0,1,14.91-48.08,36,36,0,0,1,4-7.85,11.26,11.26,0,0,1,6.6-4.73,5.4,5.4,0,0,1,3.74.52,6.27,6.27,0,0,1,2,1.95c1.85,2.76,2.12,6.58,1.48,10S669.08,169,667.34,174l.36.13c5.55-8.56,10-18.29,17.72-21.86,2.26-1.05,6.27-1.1,7.74,1.59a10.13,10.13,0,0,1,.94,4.3c.11,5.41-2.44,10.18-5.12,14-.3.43-.6.86-.92,1.28a22.57,22.57,0,0,1,4.84-4.64c3.14-2.44,7.05-5,10.73-3.58,2.72,1,4.35,4.14,4.43,7.13s-1.89,4.61-4,7c-1.95,2.22-8,8.07-6.56,16.93.17,1.05,7.79,34.55,8,46.68a8.65,8.65,0,0,0-2,.15,17.2,17.2,0,0,0-3.78,1.34l-17.68,7.83-12.39,5.5c-5.73,2.53-11.53,5.11-16.32,9.14a13.48,13.48,0,0,0-2.1,2.17c-4.65-12.14-10.91-16.5-13.64-29.28s-2.54-26.86,3.73-38.3C641.69,200.84,642.05,200.22,642.46,199.6Z"/><path class="cls-1" d="M707.27,407.06c.37.52.73,1,1.06,1.4-27.6,13.29-87.14,36.07-90.57,37.38Z"/><path class="cls-1" d="M681.46,1214.19l-21.39,234.87-1.25-.12L604,1450.58h-.34C597.78,1316,593.48,1145,593.48,1145v-.34c22.12.83,67,1.32,94,1.55l0,1.85Z"/><path class="cls-1" d="M667.13,533.18l.18.21c2.45,6.1,2.16,10-2,14.83h0c1.23,5.33,4.16,11.17-2.35,18.32-9.38,10.29-24.09,22.6-34.4,31.94h0a10.2,10.2,0,0,0-2.67-5.79,17.7,17.7,0,0,0-3.2-2.42l-16.27-10.46-11.41-7.32c-4.6-3-9.27-6-14.39-7.84l2.19-.23c1.91-7.71.24-13-1.44-18.25s-2.26-15.74,18.3-27.68a15.5,15.5,0,0,1,7.71-1.18c-2.15,6.44-4.44,12.88-6.92,19.47l.43-.13h0c19-5.33,40.22-12.32,56.47-17.68,2.68-.88,5.44-1.77,8.25-1.57l.53.06c2.7.31,5.73,1.71,6.16,4.31C672.92,525.87,671.08,529.57,667.13,533.18Z"/><path class="cls-1" d="M668.2,1522.48h0c-7.94-4.76-15.94-.29-17.47.63-3.61,2.19-4.9,6.73-5.76,10.86a8.33,8.33,0,0,1-1,3,6,6,0,0,1-2.87,2.06,11.57,11.57,0,0,1-5.31.75,18.59,18.59,0,0,1-4.61-1.17c-4.12-1.55-8-3.78-12.19-5.07s-9-1.5-12.69.8c-.24-21.23-1.23-52.21-1.23-52.21-.48-10.21-1-20.77-1.43-31.56H604l54.87-1.64,1.25.12-3.16,34.74H657C654.73,1506.14,659.73,1516.33,668.2,1522.48Z"/><path class="cls-1" d="M646.78,1565.52l126.28.46,5.87,0-1.1,17.11-126.1-1.5,1-15.61-5.87,0v-.06C646.84,1565.78,646.81,1565.66,646.78,1565.52Z"/><path class="cls-1" d="M646.86,1565.92v.06l-41.41-.16c0-.13,0-.29,0-.46l41.3.16C646.81,1565.66,646.84,1565.78,646.86,1565.92Z"/><path d="M646.78,1565.52l-41.3-.16c.16-2.27.4-6.7.72-14.87.06-1.51.1-3.49.11-5.81a195.26,195.26,0,0,0,19.4,3.63C641.82,1550.31,645.68,1559.64,646.78,1565.52Z"/><path class="cls-1" d="M637.67,483.21a3,3,0,0,1-3.15.72l-.14-.77a3.75,3.75,0,0,1-2.31-2.72,4.53,4.53,0,0,1,.09-2,3.88,3.88,0,0,1,2.83-3,4.13,4.13,0,0,1,1.88.18,3.81,3.81,0,0,1,1.78,1,4.09,4.09,0,0,1,.54,3.57A5.76,5.76,0,0,1,637.67,483.21Z"/><path class="cls-1" d="M619.67,360.87c3.81,14.18,5.19,26,2,31.21-5.3,8.68-12.48,11.5-10.88,19.15.2,1,2.38,17.6,5,33.1h-.16c1.84,18-5.6,27.15-14.61,30.2s-18.79,1.14-27.77-2c-7-2.47-13.4-7.3-20.68-16.41a33.76,33.76,0,0,0-6.2-6l1.71-.06c-2.84-29.14-8.3-38.76-15.39-56.23a122.4,122.4,0,0,0,12.58-10.18c2.63-2.42-4.24-14.83-6.28-19.92-5.87-14.69-13.26-29.81-19.07-42.76,0,0,27.79-27.53,68.42-35.12C598.38,302.83,612.88,335.64,619.67,360.87Z"/><path d="M580.54,564.67c5.12,1.89,9.79,4.87,14.39,7.84l11.41,7.32,16.27,10.46a17.7,17.7,0,0,1,3.2,2.42,10.2,10.2,0,0,1,2.67,5.79h0c10.31-9.34,25-21.65,34.4-31.94,6.51-7.15,3.58-13,2.35-18.32h0c4.21-4.88,4.5-8.73,2-14.83l-.18-.21c4-3.61,5.79-7.31,5.12-11.39-.43-2.6-3.46-4-6.16-4.31l2.71-.71q3.81-10.32,7.61-20.64c3-8.18,6.06-16.5,6.57-25.21.1-1.91-.1-4.19-1.73-5.18a5.86,5.86,0,0,0-2.66-.59q-23.51-1.31-47-1.64a10.85,10.85,0,0,0-4.95.72c-2.05,1-3.21,3.23-4.14,5.33-3.08,7-5.05,14.42-7.14,21.78-2.55,9-5.17,17.48-8,26a15.5,15.5,0,0,0-7.71,1.18c-20.56,11.94-20,22.4-18.3,27.68s3.35,10.54,1.44,18.25Zm81.33-264.15-.08-.42c-3.25-7.25-7.29-16.12-10.54-23.36a9.35,9.35,0,0,1-1.2-5,5.68,5.68,0,0,1,1.19-2.7,13.48,13.48,0,0,1,2.1-2.17c4.79-4,10.59-6.61,16.32-9.14l12.39-5.5,17.68-7.83a17.2,17.2,0,0,1,3.78-1.34,8.65,8.65,0,0,1,2-.15,12.51,12.51,0,0,1,7.7,3.4c2.64,2.38,4.43,5.54,6.06,8.69,2.23,4.29,4.26,8.7,6.07,13.19,1.2,3,2.45,6.19,4.76,8.34a9.16,9.16,0,0,1,10.79,1.13S838,401.82,827.52,443.44C815,493.05,725.44,544.61,711.79,552.22c11.8,77.71,37.84,311.23,9.27,320.61-.59.19.45,28.66.45,28.66l-4.41.16-267.92,9.44-6.52.23s.32-27.34,0-27.64c-18.23-15.15-6.3-56.9-8.74-113.76l.69-.9a54.11,54.11,0,0,1-14.31-16.45c-11.63-20.5-14.81-44.86-13.34-68.35s7.3-46.46,12.71-69.38c12.22-51.64,23.79-106.45,59.72-145.65,7.22-7.85,20.78-20,31-23.29,16.41-5.27,28.32-1.51,36,4.23a33.76,33.76,0,0,1,6.2,6c7.28,9.11,13.66,13.94,20.68,16.41,9,3.16,18.76,5.08,27.77,2s16.45-12.19,14.61-30.2h.16c.09.58.2,1.15.29,1.72l1.53-.15.16-.06c3.43-1.31,63-24.09,90.57-37.38,6.79-3.25,11.65-5.95,13.27-7.61l-14.33,6.21c-11.91-16.49-47.29-88.91-49.68-97.24C656.32,305.37,659,302.38,661.87,300.52Z"/><path d="M606.31,1544.68c0,2.32,0,4.3-.11,5.81-.32,8.17-.56,12.6-.72,14.87h-1.12v.46l-125.06-.46c.15-2.27.39-6.7.72-14.87.13-3.45.13-9.29.06-16.14,3.71-2.29,8.51-2.06,12.69-.79s8.07,3.52,12.19,5.07a18.44,18.44,0,0,0,4.62,1.17,11.55,11.55,0,0,0,5.3-.75,6,6,0,0,0,2.86-2.06,8.36,8.36,0,0,0,1-3c.84-4.13,2.13-8.67,5.75-10.86,1.53-.92,9.53-5.39,17.47-.63h0c4.9,3.55,11,5.75,17.46,8.14A427.44,427.44,0,0,0,606.31,1544.68Z"/><polygon class="cls-1" points="604.16 1581.05 604.35 1565.82 605.45 1565.82 646.86 1565.98 652.73 1566 651.73 1581.62 604.16 1581.05"/><path d="M605.45,1565.82h-1.1v-.46h1.12C605.47,1565.53,605.46,1565.69,605.45,1565.82Z"/><path d="M603.46,284l-.47.15a111.27,111.27,0,0,0-14.66,1.76c-2.8-4.75-5.27-8.26-7.11-10L514.33,314a90.2,90.2,0,0,0,.43,13.95c1.71,16.18,8.24,39.7,13.72,55,1.45,4.06,2.85,7.66,4.2,11-8.27,5.83-15.71,9.51-22.9,13.56-2.88,1.64-7.29-.34-9-3.29-13.3-23.34-17.65-58.53-18.13-84.87-1.21-65.05,52.2-83.91,89.84-70.39C586.05,253.71,596.7,260.88,603.46,284Z"/><path d="M603,284.1l.47-.15c.06.18.12.37.17.55l1.89,4.58c8,17.23,15.84,29.3,26.9,44.55,2.55,3.52,5.34,7.84,4,12a11.93,11.93,0,0,1-3.21,4.52c-5.63,5.64-7,6.88-13.51,10.74-6.79-25.23-21.29-58-31.34-75A111.27,111.27,0,0,1,603,284.1Z"/><path class="cls-1" d="M607.3,517.33c2.85-8.51,5.47-17,8-26,2.09-7.36,4.06-14.79,7.14-21.78.93-2.1,2.09-4.3,4.14-5.33a10.85,10.85,0,0,1,4.95-.72q23.52.33,47,1.64a5.86,5.86,0,0,1,2.66.59c1.63,1,1.83,3.27,1.73,5.18-.51,8.71-3.56,17-6.57,25.21q-3.81,10.31-7.61,20.64l-2.71.71-.53-.06c-2.81-.2-5.57.69-8.25,1.57-16.25,5.36-37.51,12.35-56.47,17.68h0l-.43.13C602.86,530.21,605.15,523.77,607.3,517.33Zm31.89-37.15a4.09,4.09,0,0,0-.54-3.57,3.81,3.81,0,0,0-1.78-1,4.13,4.13,0,0,0-1.88-.18,3.88,3.88,0,0,0-2.83,3,4.53,4.53,0,0,0-.09,2,3.75,3.75,0,0,0,2.31,2.72l.14.77a3,3,0,0,0,3.15-.72A5.76,5.76,0,0,0,639.19,480.18Z"/><path d="M581.22,275.85c1.84,1.75,4.31,5.26,7.11,10C547.7,293.45,519.91,321,519.91,321c5.81,12.95,13.2,28.07,19.07,42.76,2,5.09,8.91,17.5,6.28,19.92a122.4,122.4,0,0,1-12.58,10.18c-1.35-3.31-2.75-6.91-4.2-11-5.48-15.27-12-38.79-13.72-55a90.2,90.2,0,0,1-.43-13.95Z"/><path class="cls-1" d="M561.28,1148l-27.41,301-1.25-.12-54.86,1.64h-.35c-5.82-134.23-10-303.11-10-303.11v-.08c38.93,1.06,73.54.19,93.84-.73Z"/><path class="cls-1" d="M542,1522.48h0c-7.94-4.76-15.94-.29-17.47.63-3.62,2.19-4.91,6.73-5.75,10.86a8.36,8.36,0,0,1-1,3,6,6,0,0,1-2.86,2.06,11.55,11.55,0,0,1-5.3.75,18.44,18.44,0,0,1-4.62-1.17c-4.12-1.55-8-3.78-12.19-5.07s-9-1.5-12.69.79c-.24-21.23-1.22-52.2-1.22-52.2-.5-10.22-1-20.78-1.44-31.56h.35l54.86-1.64,1.25.12-3.16,34.74h.06C528.52,1506.14,533.52,1516.33,542,1522.48Z"/><polygon class="cls-1" points="651.64 1583.11 477.96 1581.05 478.17 1565.36 479.29 1565.36 604.35 1565.82 604.16 1581.05 651.73 1581.62 651.64 1583.11"/><path class="cls-2" d="M449.21,910.47l0,.62c-.71,13.23-12.66,235.06-11.47,235.13,10.06.53,20,.91,29.67,1.18,38.93,1.06,73.54.19,93.84-.73,9.62-.43,16-.88,18.16-1.13l.2-2,19.73-194"/><path class="cls-2" d="M580.35,1143.61c.1.39,5.12.73,13.14,1,22.12.83,67,1.32,94,1.55,13.16.11,22.09.16,22.09.16l7.5-244.7,0-1.24"/><path class="cls-2" d="M532.68,393.84c7.09,17.47,12.55,27.09,15.39,56.23"/><path class="cls-2" d="M617.26,452.72c-.39-2.15-.8-4.39-1.19-6.67-.09-.57-.2-1.14-.29-1.72-2.62-15.5-4.8-32.11-5-33.1-1.6-7.65,5.58-10.47,10.88-19.15,3.2-5.25,1.82-17-2-31.21-6.79-25.23-21.29-58-31.34-75"/><path class="cls-2" d="M711.68,551.54c0,.22.07.45.11.68,11.8,77.71,37.84,311.23,9.27,320.61-.59.19.45,28.66.45,28.66l-4.41.16-267.92,9.44-6.52.23s.32-27.34,0-27.64c-18.23-15.15-6.3-56.9-8.74-113.76"/><path class="cls-2" d="M617.76,445.84c3.43-1.31,63-24.09,90.57-37.38,6.79-3.25,11.65-5.95,13.27-7.61"/><line class="cls-2" x1="617.76" y1="445.84" x2="617.6" y2="445.9"/><path class="cls-2" d="M710,553.18l1.75-1c13.65-7.61,103.2-59.17,115.73-108.78,10.51-41.62-86.6-165.76-86.6-165.76a9.16,9.16,0,0,0-10.79-1.13,13.08,13.08,0,0,0-2.11,1.54"/><path class="cls-2" d="M651.28,269.17s0-.07,0-.11c-4.65-12.14-10.91-16.5-13.64-29.28s-2.54-26.86,3.73-38.3c.36-.64.72-1.26,1.13-1.88a13,13,0,0,1,5.31-5c2.86-1.31,6.74-.72,8.41,2,2,3.21.18,7.32-1,10.93a29.75,29.75,0,0,0-1,13.19c4.1.53,7.49,3.77,9.4,7.55s2.57,8.05,3.22,12.25"/><path class="cls-2" d="M921.55,116.68l-12.18,3.87s27.14,30.1,34.11,36.14c.15.12,3.46-1.58,9.09-4.64,29.57-16.1,123.13-69.64,159.37-91.42l.4-.26C1122.79,53.13,966.89,102.3,921.55,116.68Z"/><polyline class="cls-2" points="952.45 151.89 952.57 152.05 968.5 171.86 1112.61 60.73 1115.7 58.35 1116.66 57.61"/><path class="cls-2" d="M1115.23,57.74s-216.18,28.67-215,30.14c13.78,17.66,21,27.76,21,27.76"/><path class="cls-2" d="M688,173.43c-2.44,3.33-5,6.62-6.28,11"/><path class="cls-2" d="M667.7,174.11c5.55-8.56,10-18.29,17.72-21.86,2.26-1.05,6.27-1.1,7.74,1.59a10.13,10.13,0,0,1,.94,4.3c.11,5.41-2.44,10.18-5.12,14-.3.43-.6.86-.92,1.28"/><path class="cls-2" d="M642.46,199.6a297.11,297.11,0,0,1,14.91-48.08,36,36,0,0,1,4-7.85,11.26,11.26,0,0,1,6.6-4.73,5.4,5.4,0,0,1,3.74.52,6.27,6.27,0,0,1,2,1.95c1.85,2.76,2.12,6.58,1.48,10S669.08,169,667.34,174l-.13.4"/><path class="cls-2" d="M688,173.43l0,0a22.57,22.57,0,0,1,4.84-4.64c3.14-2.44,7.05-5,10.73-3.58,2.72,1,4.35,4.14,4.43,7.13s-1.89,4.61-4,7c-1.95,2.22-8,8.07-6.56,16.93.17,1.05,7.79,34.55,8,46.68,0,.2,0,.39,0,.58"/><path class="cls-2" d="M822.89,145.24a29.37,29.37,0,0,0,7.53,6.12c7.47,4.14,16.53,4.19,25,3.09a105.94,105.94,0,0,0,34.86-10.94"/><path class="cls-2" d="M822.89,145.24c8.8-8.34,14.6-19.85,14.14-31.88-.17-4.45-1.27-9.07-4.17-12.47s-7.87-5.27-12-3.58c-3.29,1.34-5.44,4.58-6.79,7.87-4.57,11.22-1.83,24.46,4.72,34.65A42.34,42.34,0,0,0,822.89,145.24Z"/><path class="cls-2" d="M768.46,161.17c15.69,1,32-1.13,45.56-9.18a49.94,49.94,0,0,0,8.87-6.75"/><path class="cls-3" d="M552.91,456.54l-.35-.44a33.76,33.76,0,0,0-6.2-6c-7.72-5.74-19.63-9.5-36-4.23-10.18,3.27-23.74,15.44-31,23.29-35.93,39.2-47.5,94-59.72,145.65-5.41,22.92-11.25,45.89-12.71,69.38s1.71,47.85,13.34,68.35A54.11,54.11,0,0,0,434.58,769c11.64,8.93,26.61,13.18,42.5,14.38,19.44,1.44,37.85.87,54.2-9.69,43.56-28.1,92.05-93.05,84.69-147.11"/><path class="cls-4" d="M560.92,583.23c-.67,0-1.34,0-2,.11-17.06,1.18-32.63,11.2-44,23.85-11.76,13.16-19.72,29-27.92,44.55s-17,31.11-30,43.07"/><path class="cls-2" d="M661.79,300.1c-3.25-7.25-7.29-16.12-10.54-23.36a9.35,9.35,0,0,1-1.2-5,5.68,5.68,0,0,1,1.19-2.7,13.48,13.48,0,0,1,2.1-2.17c4.79-4,10.59-6.61,16.32-9.14l12.39-5.5,17.68-7.83a17.2,17.2,0,0,1,3.78-1.34,8.65,8.65,0,0,1,2-.15,12.51,12.51,0,0,1,7.7,3.4c2.64,2.38,4.43,5.54,6.06,8.69,2.23,4.29,4.26,8.7,6.07,13.19,1.2,3,2.45,6.19,4.76,8.34a9.06,9.06,0,0,0,1.24,1"/><path class="cls-2" d="M667.42,298a21.63,21.63,0,0,0-5.55,2.48c-2.88,1.86-5.55,4.85-4.28,9.3,2.39,8.33,37.77,80.75,49.68,97.24.37.52.73,1,1.06,1.4l0,0"/><path class="cls-2" d="M600.84,536.67c19-5.33,40.22-12.32,56.47-17.68,2.68-.88,5.44-1.77,8.25-1.57l.53.06c2.7.31,5.73,1.71,6.16,4.31.67,4.08-1.17,7.78-5.12,11.39a55.82,55.82,0,0,1-10.56,7.17"/><path class="cls-2" d="M667.31,533.39c2.45,6.1,2.16,10-2,14.83a78.71,78.71,0,0,1-10.33,9.23"/><path class="cls-2" d="M665.27,548.23c1.23,5.33,4.16,11.17-2.35,18.32-9.38,10.29-24.09,22.6-34.4,31.94"/><path class="cls-2" d="M600.17,537.38l.21-.58c2.48-6.59,4.77-13,6.92-19.47,2.85-8.51,5.47-17,8-26,2.09-7.36,4.06-14.79,7.14-21.78.93-2.1,2.09-4.3,4.14-5.33a10.85,10.85,0,0,1,4.95-.72q23.52.33,47,1.64a5.86,5.86,0,0,1,2.66.59c1.63,1,1.83,3.27,1.73,5.18-.51,8.71-3.56,17-6.57,25.21q-3.81,10.31-7.61,20.64"/><path class="cls-2" d="M600.84,536.67h0l-.43.13c-3,.83-6.37.35-9.45-.4"/><path class="cls-2" d="M582.73,564.44c1.91-7.71.24-13-1.44-18.25s-2.26-15.74,18.3-27.68a15.5,15.5,0,0,1,7.71-1.18,2.79,2.79,0,0,1,.9.3"/><path class="cls-4" d="M552.56,456.1c7.28,9.11,13.66,13.94,20.68,16.41,9,3.16,18.76,5.08,27.77,2s16.45-12.19,14.61-30.2"/><path class="cls-4" d="M516.87,604.49c6.18-17.3,9.62-33.92,14.08-51.75"/><polyline class="cls-2" points="687.49 1148.04 681.46 1214.19 660.07 1449.06 656.91 1483.8"/><path class="cls-2" d="M593.48,1145s4.3,171.06,10.13,305.61c.47,10.79.95,21.35,1.43,31.56,0,0,1,31,1.23,52.21,0,3.84.06,7.36,0,10.32"/><path class="cls-2" d="M657.05,1483.06c0,.26,0,.5-.07.75-2.25,22.33,2.75,32.52,11.22,38.67,4.9,3.55,11,5.75,17.46,8.14,17.87,6.6,47.33,15.34,66.24,17.69,16.5,2,20.15,11.76,21.16,17.61"/><polyline class="cls-2" points="646.78 1565.52 773.06 1565.98 778.93 1566 777.84 1583.11 651.73 1581.62"/><path class="cls-2" d="M668.19,1522.49c-7.94-4.76-15.94-.29-17.47.63-3.61,2.19-4.9,6.73-5.76,10.86a8.33,8.33,0,0,1-1,3,6,6,0,0,1-2.87,2.06,11.57,11.57,0,0,1-5.31.75,18.59,18.59,0,0,1-4.61-1.17c-4.12-1.55-8-3.78-12.19-5.07s-9-1.5-12.69.8l-.08,0"/><line class="cls-2" x1="603.95" y1="1450.58" x2="658.82" y2="1448.94"/><polyline class="cls-2" points="561.28 1148.04 533.87 1449.06 530.71 1483.8"/><path class="cls-2" d="M467.38,1147.48s4.21,168.88,10,303.11c.47,10.78.94,21.34,1.44,31.56,0,0,1,31,1.22,52.2.07,6.85.07,12.69-.06,16.14-.33,8.17-.57,12.6-.72,14.87-.11,1.6-.17,2.13-.17,2.13"/><path class="cls-2" d="M530.84,1483.06c0,.26-.05.5-.07.75-2.25,22.33,2.75,32.52,11.23,38.67,4.9,3.55,11,5.75,17.46,8.14a427.44,427.44,0,0,0,46.85,14.06,195.26,195.26,0,0,0,19.4,3.63c16.11,2,20,11.33,21.07,17.21,0,.14.06.26.08.4"/><polygon class="cls-2" points="651.73 1581.62 651.64 1583.11 477.96 1581.05 478.17 1565.36 479.29 1565.36 604.35 1565.82 605.45 1565.82 646.86 1565.98 652.73 1566 651.73 1581.62"/><path class="cls-2" d="M542,1522.49c-7.94-4.76-15.94-.29-17.47.63-3.62,2.19-4.91,6.73-5.75,10.86a8.36,8.36,0,0,1-1,3,6,6,0,0,1-2.86,2.06,11.55,11.55,0,0,1-5.3.75,18.44,18.44,0,0,1-4.62-1.17c-4.12-1.55-8-3.78-12.19-5.07s-9-1.5-12.69.79l-.08.05"/><line class="cls-2" x1="477.76" y1="1450.58" x2="532.62" y2="1448.94"/><path class="cls-2" d="M654.12,1218.35a49.39,49.39,0,0,0,15.59,1.72,20.14,20.14,0,0,0,6.84-1.33,9.2,9.2,0,0,0,4.91-4.55l.06-.13"/><path class="cls-2" d="M523.77,1215.49c4.15,1.38,8.12,3.33,12.35,4.47s8.9,1.43,12.86-.47a7.69,7.69,0,0,0,4.28-4.61"/><path class="cls-2" d="M603,284.1a111.27,111.27,0,0,0-14.66,1.76C547.7,293.45,519.91,321,519.91,321c5.81,12.95,13.2,28.07,19.07,42.76,2,5.09,8.91,17.5,6.28,19.92a122.4,122.4,0,0,1-12.58,10.18c-8.27,5.83-15.71,9.51-22.9,13.56-2.88,1.64-7.29-.34-9-3.29-13.3-23.34-17.65-58.53-18.13-84.87-1.21-65.05,52.2-83.91,89.84-70.39,13.53,4.86,24.18,12,30.94,35.1.06.18.12.37.17.55l1.89,4.58c8,17.23,15.84,29.3,26.9,44.55,2.55,3.52,5.34,7.84,4,12a11.93,11.93,0,0,1-3.21,4.52c-5.63,5.64-7,6.88-13.51,10.74-.19.11-.38.22-.56.34"/><path class="cls-4" d="M556.16,587.66l2.76-4.32q5-7.89,10-15.75a9.31,9.31,0,0,1,3.52-3.75c1.8-.87,3.94-.49,5.86.08.75.22,1.48.48,2.22.75,5.12,1.89,9.79,4.87,14.39,7.84l11.41,7.32,16.27,10.46a17.7,17.7,0,0,1,3.2,2.42,10.2,10.2,0,0,1,2.67,5.79,14,14,0,0,1,0,4.13c-.54,3.51-2.2,6.73-3.92,9.83-2.37,4.22-4.93,8.35-7.68,12.33-2.14,3.09-4.49,6.39-4.48,10.14"/><path class="cls-2" d="M634.38,483.16a3.75,3.75,0,0,1-2.31-2.72,4.53,4.53,0,0,1,.09-2,3.88,3.88,0,0,1,2.83-3,4.13,4.13,0,0,1,1.88.18,3.81,3.81,0,0,1,1.78,1,4.09,4.09,0,0,1,.54,3.57,5.76,5.76,0,0,1-1.52,3,3,3,0,0,1-3.15.72"/><polygon points="1101.59 58.94 918.41 108.28 923.32 114.01 1092.43 65.24 1101.59 58.94"/><polygon points="955.08 152.06 963.44 162.7 1085.23 78.81 955.08 152.06"/></svg>