<svg id="Layer_1" data-name="Layer 1" xmlns="http://www.w3.org/2000/svg" viewBox="0 0 1498.85 1672.4"><defs><style>.cls-1{fill:#fff;}.cls-2,.cls-3,.cls-4{fill:none;stroke-linejoin:round;}.cls-2{stroke:#000;}.cls-2,.cls-3{stroke-width:5px;}.cls-3,.cls-4{stroke:#fff;}.cls-4{stroke-width:3px;}</style></defs><title>Phonies_Phonies extended 9By_Growwwkit_</title><path class="cls-1" d="M1183,1534.17c-3.36-3.67-5-8.52-7.52-12.79-.33-.55.54-1,.86-.48.22.36.42.73.63,1.09-.19-.71-.34-1.42-.46-2.14a.87.87,0,0,1,0-.23c-1.83-4.51-3.53-9.4-2.83-14.28-2.88-9.09-5.66-17.58-8.28-23.91-8.83-21.33-31.58-23.62-47.25-36.79s-6-14.5-22-24.5-24.87-56.08-26.25-60-42.25-52.5-42.25-52.5l-109.75-5.12s8.25,7-6.75,25-28.19,37.16-78.62,84.87c-23.13,21.88-46.13,144.38-46.13,144.38l408.63,3.12C1191,1555.47,1187,1545.69,1183,1534.17Z"/><path d="M1054,1239.18c7.19,9.9,7.57,22.63,6.28,35.11l-65.31-.45c.62-2.88,1.32-5.73,2.08-8.57,2.47-9.11,5.66-18.13,10.72-26.11a50.78,50.78,0,0,1,14.86-15.43C1034.87,1225,1046.88,1229.41,1054,1239.18Z"/><path d="M1060.25,1274.29c-.36,3.49-.85,7-1.36,10.33l-.35,1.67a17,17,0,0,0-5.73-.19l-60.16.11c.62-4.14,1.39-8.28,2.29-12.37Z"/><path d="M977.47,1225.32c11.62.16,23.33-1.78,35-2a84.12,84.12,0,0,1,10.12.41,50.78,50.78,0,0,0-14.86,15.43c-5.06,8-8.25,17-10.72,26.11-.76,2.84-1.46,5.69-2.08,8.57-50-.33-81.84-.48-152.82-1,1.53-32.68,3.32-59.36,4.79-93.84,0,0-2.44-8.11,3.85-9.33.25-.06.64-.12,1.16-.2,7-1.11,37.66-5.07,63.34-4.85,20.08.17,37.13,2.9,37.49,11.52.32,7.57-2,14.94-3.2,22.42a37.86,37.86,0,0,0-.48,7.16c.19,5.34,1.73,10.53,5.64,14a15.45,15.45,0,0,0,3.42,2.28,28.87,28.87,0,0,0,8.25,2.43A73.75,73.75,0,0,0,977.47,1225.32Zm-100,6.08a16.42,16.42,0,0,0,1.89-12.93,19.69,19.69,0,0,0-7.6-10.77,14,14,0,0,0-10.83-2.78c-4.54.84-7.52,3.07-9,7.47-1.91,5.89-3.25,12.36-1.77,18.47a14.51,14.51,0,0,0,2.24,5.23,11.5,11.5,0,0,0,9.43,4.28,18.84,18.84,0,0,0,10-3.49A19.33,19.33,0,0,0,877.5,1231.4Z"/><path d="M994.94,1273.84c-.9,4.09-1.67,8.23-2.29,12.37l-151.12.29v-.64c.18-4.47.38-8.8.59-13C913.1,1273.36,944.9,1273.51,994.94,1273.84Z"/><path d="M648.2,325c2.93,9.1,6.08,18.58,9.76,28.43-.93,1.1-1.9,2.29-2.92,3.6-16.65,21.33-45.11,69-69.38,109.85,20.78-17.18,44.59-20.44,69.06-4.72.86.55,1-8.62,1.43-17.35a4.2,4.2,0,0,1,4.07-4l3-.09c17.17-.45,50.3-.46,63.72-1l1.66-.08c7.77-.41,7.33,30.26,8.86,30.18s20.91-25,51.9-6.86c19.51,11.39,36.23,38.38,48,57.67,14,23,16.83,28.54,29.39,51.68-3.89-46.63-5.64-94.4-10.12-140l3.62-.34,72.42-6.84c1.78-.17,3.71-.3,5.22.66a4.87,4.87,0,0,1,1.26,1.22,11.82,11.82,0,0,1,1.32,2.36c13.67,29.77,16.81,63.09,21.79,95.46C968.22,563.32,977,602.18,972.76,641S948,719.65,911.82,734.25a90.22,90.22,0,0,1-42.62,5.89c-41.09-4.13-52-44.42-58-60.36l17.64,124.74-.1,1L543.33,775.34h-.1C541.9,718.62,541.08,671,540.75,618a115.91,115.91,0,0,1-76.17-1.38c-34.66-12.54-61.81-46.94-60.78-83.79.46-16.51,8.67-48.47,44.28-87.42,66.66-72.9,117.08-117.65,171.64-175.48,1.92-2,3.85-4.08,5.77-6.16.62,1.16,1.21,2.34,1.78,3.53C635.51,284,641.23,303.4,648.2,325Z"/><path d="M943,313.07c4.27,7.42,3,17.73-3.22,23.58l-.27.43c-3.12-.78-6.54-.74-8.51,2.22-2.1,3.16-1.07,7.47-.24,10.87.07.23.15.44.23.64l-1.18,1.89-19.9,20.41c-.35.34-.76.71-1.23.62a1,1,0,0,1-.76-.67c-.62-3.41-1.13-40-.44-50.27.46-6.76,1.75-14.44,7.48-18.06a15.16,15.16,0,0,1,6.19-2.08C929.62,301.51,938.72,305.64,943,313.07Zm-17,17.23c9.84,0,9.85-15.29,0-15.29S916.08,330.3,925.94,330.3Z"/><path d="M879.39,1218.47a16.42,16.42,0,0,1-1.89,12.93,19.33,19.33,0,0,1-5.59,5.48,18.84,18.84,0,0,1-10,3.49,11.5,11.5,0,0,1-9.43-4.28,14.51,14.51,0,0,1-2.24-5.23c-1.48-6.11-.14-12.58,1.77-18.47,1.43-4.4,4.41-6.63,9-7.47a14,14,0,0,1,10.83,2.78A19.69,19.69,0,0,1,879.39,1218.47Z"/><path d="M744.89,264.26l-2.81.4c-10.78-1.21-34.36-6.72-42.86-7.88,1.67-1.68,4.52-7.82,5.76-9.79a10.21,10.21,0,0,0,1.72-6.67,5.12,5.12,0,0,0-2.8-4.14c-2-.84-4.3.19-6.16,1.33-3.53,2.17-6.74,4.78-10.15,7.15-7.26,5.08-51.19,19.71-59.67,22.3l-.65.32c-.57-1.19-1.16-2.37-1.78-3.53-1.92,2.08-3.85,4.13-5.77,6.16l-.5-.46a82.16,82.16,0,0,1-5.12-23.61,8.42,8.42,0,0,0-.66-3.45,9.8,9.8,0,0,0-1.92-2.3c-4-4.17-5.77-10.12-5.73-15.91s1.71-11.41,3.81-16.79a104.38,104.38,0,0,1,11-20.74,22.16,22.16,0,0,1,3.83-4.52,21.82,21.82,0,0,1,6.7-3.52,46.56,46.56,0,0,1,15.46-3.32c10.54-.1,20.28,5.16,29.48,10.28,7.86,4.37,15.81,8.8,22.3,15a104.57,104.57,0,0,1,10.33,12.1c7.4,9.62,14.86,19.34,20.08,30.29a4.84,4.84,0,0,0,1,1.54c1.25,1,3.1.36,4.72.21,3.62-.36,7,2.38,8.52,5.67S744.76,260.62,744.89,264.26Z"/><path d="M737.55,1477c7.08,9.77,7.56,22.27,6.34,34.58l-69.45-.7q1.24-6.37,2.93-12.65c2.46-9.11,5.65-18.13,10.71-26.11a54,54,0,0,1,9.13-11h0C712.31,1461,728.73,1464.8,737.55,1477Z"/><path d="M674.44,1510.83l69.45.7c-.36,3.66-.88,7.31-1.42,10.86l-.36,1.68a17.18,17.18,0,0,0-6.15-.13h0l-63.62.1v-.11C672.88,1519.55,673.58,1515.17,674.44,1510.83Z"/><path d="M637,1456.14a13.39,13.39,0,0,0,1.3,1.31c3.19,2.82,7.47,4,11.67,4.73q2.4.39,4.8.6c13.66,1.24,27.52-1.43,41.3-1.69h1.15a54,54,0,0,0-9.13,11c-5.06,8-8.25,17-10.71,26.11q-1.7,6.27-2.93,12.65l-148.36-1.51c1.46-32.07,3-58.57,4.41-92.56,0,0-2.43-8.12,3.85-9.33,3.92-.76,42.19-6,70.71-4.91,17.28.66,31,3.65,31.29,11.39.32,7.56-2,14.93-3.21,22.41-.07.44-.13.88-.18,1.33C632.12,1444.17,632.8,1451.36,637,1456.14Zm-79.16,8.17a16.37,16.37,0,0,0,1.91-12.92,19.65,19.65,0,0,0-7.61-10.78,14,14,0,0,0-10.84-2.78c-4.54.84-7.51,3.07-8.94,7.47-1.91,5.88-3.26,12.36-1.77,18.46a14.31,14.31,0,0,0,2.24,5.24,11.44,11.44,0,0,0,9.42,4.28,18.84,18.84,0,0,0,10-3.49A19.42,19.42,0,0,0,557.83,1464.31Z"/><path d="M526.08,1509.32l148.36,1.51c-.86,4.34-1.56,8.72-2.1,13.11v.11l-146.89.23v-.51C525.66,1518.81,525.88,1514,526.08,1509.32Z"/><path class="cls-1" d="M1063.09,1287.9a16.79,16.79,0,0,0-4.55-1.61,17,17,0,0,0-5.73-.19l-60.16.11-151.12.29h-2.24c-3.32,0-6.09,2.89-7.06,6.07s-.56,6.59-.15,9.89c.54,4.22,1.63,9.55,2.16,13.77a29.16,29.16,0,0,0,23.53-1.31c3-1.53,6-3.64,9.27-3.07,3.85.68,6.07,4.72,9.42,6.73,3.71,2.22,8.49,1.75,12.54.2s7.65-4,11.61-5.75a9.63,9.63,0,0,1,4.77-1.07c3,.3,5.16,2.82,7.6,4.56a14.77,14.77,0,0,0,2.34,1.37,16.34,16.34,0,0,0,11.82.9c6-1.9,11.38-7.38,17.61-6.21,4.78.89,8.16,5.53,12.92,6.56,5.19,1.12,10.13-2.33,14.52-5.31s10-5.78,14.76-3.41c3.72,1.86,5.73,6.45,9.72,7.64,8.08,2.4,15.05-11,22.9-7.9,2.95,1.17,4.54,4.32,6.81,6.56,3.14,3.1,7.47,4.25,11.9,4a26.25,26.25,0,0,0,10.82-3c7.16-3.81,12.82-9.93,19.61-14.38A34.13,34.13,0,0,0,1063.09,1287.9Z"/><path class="cls-1" d="M932.7,425.05c1.78-.17,3.71-.3,5.22.66a4.87,4.87,0,0,1,1.26,1.22,23.81,23.81,0,0,0,8-10.68,30.74,30.74,0,0,0,1.66-14.7c-.16-1.37-.39-2.86.26-4.08s1.89-1.82,2.73-2.82a7.39,7.39,0,0,0,1.27-5.52,47.22,47.22,0,0,1-.61-5.78,2.1,2.1,0,0,1,.32-1.23,3,3,0,0,1,1.16-.72,7.9,7.9,0,0,0,4.06-6.07,21.13,21.13,0,0,0-.58-7.54,177.93,177.93,0,0,0-5.1-19.23c-.12-.4-.26-.82-.39-1.22l.45-.14c3.09-11.41,6.44-22.62,9.33-32.85,1.8-6.36,4.72-21.75,3.24-22.74a22.46,22.46,0,0,0-6.25-2l-50.58-7.22a4.92,4.92,0,0,0-2.9.18,4.62,4.62,0,0,0-2,2.75,79.81,79.81,0,0,0-2.94,12.76c-2.46,13.45-13.28,53.48-15.94,62.08l0,.16a5,5,0,0,0-1.26.46c-2.89,1.46-4,4.95-4.79,8.1-2.9,11.69-5.14,23.74-10.85,34.34-3.1,5.74-7.33,11.6-6.54,18.08a45.94,45.94,0,0,1-.74,10.57ZM907.46,322.79c.46-6.75,1.75-14.44,7.48-18.06a15.16,15.16,0,0,1,6.19-2.08c8.49-1.14,17.59,3,21.85,10.42s3,17.73-3.22,23.58l-.27.43c-3.12-.78-6.54-.74-8.51,2.22-2.1,3.16-1.07,7.47-.24,10.87.07.23.15.44.23.64l-1.18,1.89-19.9,20.41c-.35.34-.76.72-1.23.62a1,1,0,0,1-.76-.67C907.28,369.65,906.77,333.05,907.46,322.79Z"/><path class="cls-1" d="M925.94,330.3c9.84,0,9.85-15.29,0-15.29S916.08,330.3,925.94,330.3Z"/><path class="cls-1" d="M658,353.41c-.93,1.1-1.9,2.29-2.92,3.6l.08.05c1.6,12.22,9.35,72.66,8.12,82.77l0,.87c17.17-.45,50.3-.46,63.72-1l-.06-1.1c-.86-8.26-1.56-13-.82-21.3v0c8.69-2.75,16.45-9.54,20.9-17.69,6.88-12.61,7.53-27.61,7.1-42-.43-14.53-2-38.74-4.35-53.4,2.25-.29,4.38-.49,6.38-.62,4.46-.28,9.22-.66,12.77-3.39a9.33,9.33,0,0,0,3.23-5.09l.49.15a8.54,8.54,0,0,0,5.51-5.31,8.29,8.29,0,0,0,.45-3l.82,0a8.23,8.23,0,0,0,1.4-14.11c-1.92-1.4-4.35-1.9-6.69-2.35-7.56-1.44-22.4-4.44-30-5.51v-.06c-.6,0-1.27-.11-2-.19-10.78-1.21-34.36-6.72-42.86-7.88,1.67-1.68,4.52-7.82,5.76-9.79a10.21,10.21,0,0,0,1.72-6.67,5.12,5.12,0,0,0-2.8-4.14c-2-.84-4.3.19-6.16,1.33-3.53,2.17-6.74,4.78-10.15,7.15-7.26,5.08-51.19,19.71-59.67,22.3l-.65.32c8.24,16.76,14,36.12,20.93,57.7C651.13,334.08,654.28,343.56,658,353.41Z"/><path class="cls-1" d="M742.11,1524.07a17.18,17.18,0,0,0-6.15-.13h0l-63.62.1-146.89.23h-2.57c-3.33,0-6.09,2.89-7.07,6.06s-.56,6.61-.14,9.9c.54,4.21,1.63,9.54,2.17,13.76a29.16,29.16,0,0,0,23.51-1.3c2.95-1.52,6-3.64,9.27-3.07,3.86.68,6.07,4.72,9.43,6.73,3.71,2.23,8.48,1.74,12.53.19s7.65-4,11.61-5.75a9.76,9.76,0,0,1,4.77-1.06c3,.29,5.16,2.82,7.6,4.56a16.37,16.37,0,0,0,14.17,2.26c6-1.89,11.38-7.37,17.61-6.21,4.79.89,8.16,5.53,12.91,6.56,5.2,1.12,10.13-2.31,14.52-5.31s10-5.77,14.77-3.39c3.71,1.85,5.73,6.45,9.71,7.63,8.1,2.4,15-11,22.9-7.9,3,1.18,4.55,4.33,6.81,6.56,5.79,5.7,15.55,4.8,22.72,1s12.82-9.92,19.61-14.37a34.23,34.23,0,0,0-5.61-15.45A16.69,16.69,0,0,0,742.11,1524.07Z"/><path class="cls-1" d="M518.52,1359.55l19.4.37-3.58,47.51c3.92-.76,42.19-6,70.71-4.91l0-.78,3.77-40.48,37.47.71,66.9-414.62.14-1.35c48.57,5.32,106.13,11.27,136.25,14.36l-.08.76-12.86,138.37-3.35,36.08,21.93.7,0,.52-3.44,31.84.14.82c7-1.11,37.66-5.07,63.34-4.85V1164l5.07-25.16v-.44l39.54,1.26s21.08-151.2,31.88-241.8c9.43-79-87.91-84.38-87.91-84.38l-75.15-7.94L543.33,775.34h-.1c.35,15.38.75,31.42,1.18,48.42a132.15,132.15,0,0,0,17.12,58.39l-.07,0Z"/><path d="M559.74,1451.39a16.37,16.37,0,0,1-1.91,12.92,19.42,19.42,0,0,1-5.58,5.48,18.84,18.84,0,0,1-10,3.49,11.44,11.44,0,0,1-9.42-4.28,14.31,14.31,0,0,1-2.24-5.24c-1.49-6.1-.14-12.58,1.77-18.46,1.43-4.4,4.4-6.63,8.94-7.47a14,14,0,0,1,10.84,2.78A19.65,19.65,0,0,1,559.74,1451.39Z"/><path class="cls-2" d="M544.41,823.49v.27a132.15,132.15,0,0,0,17.12,58.39c14.68,25.42,42,50.82,92.71,57.08,15.11,1.87,36.1,4.25,59.11,6.77,48.57,5.32,106.13,11.27,136.25,14.36l20.74,2.11"/><polyline class="cls-2" points="713.21 947.35 646.31 1361.97 608.84 1361.26 537.91 1359.92 518.52 1359.55 561.47 882.18"/><path class="cls-2" d="M540.74,617.13c0,.28,0,.57,0,.85.33,53,1.15,100.64,2.48,157.36.35,15.38.75,31.42,1.18,48.42"/><path class="cls-2" d="M841.53,1285.86c.18-4.47.38-8.8.59-13,1.53-32.68,3.32-59.36,4.79-93.84,0,0-2.44-8.11,3.85-9.33.25-.06.64-.12,1.16-.2,7-1.11,37.66-5.07,63.34-4.85,20.08.17,37.13,2.9,37.49,11.52.32,7.57-2,14.94-3.2,22.42a37.86,37.86,0,0,0-.48,7.16c.19,5.34,1.73,10.53,5.64,14a15.45,15.45,0,0,0,3.42,2.28,28.87,28.87,0,0,0,8.25,2.43,73.75,73.75,0,0,0,11.09.93c11.62.16,23.33-1.78,35-2a84.12,84.12,0,0,1,10.12.41c12.27,1.3,24.28,5.68,31.37,15.45s7.57,22.63,6.28,35.11c-.36,3.49-.85,7-1.36,10.33"/><path class="cls-2" d="M1052.37,1286.17l.44-.07a17,17,0,0,1,5.73.19,16.79,16.79,0,0,1,4.55,1.61,34.13,34.13,0,0,1,5.62,15.44c-6.79,4.45-12.45,10.57-19.61,14.38a26.09,26.09,0,0,1-10.82,3c-4.43.21-8.76-.94-11.9-4-2.27-2.24-3.86-5.39-6.81-6.56-7.85-3.1-14.82,10.3-22.9,7.9-4-1.19-6-5.78-9.72-7.64-4.75-2.37-10.38.42-14.76,3.41s-9.33,6.43-14.52,5.31c-4.76-1-8.14-5.67-12.92-6.56-6.23-1.17-11.57,4.31-17.61,6.21a16.34,16.34,0,0,1-11.82-.9,14.77,14.77,0,0,1-2.34-1.37c-2.44-1.74-4.62-4.26-7.6-4.56a9.63,9.63,0,0,0-4.77,1.07c-4,1.73-7.58,4.22-11.61,5.75s-8.83,2-12.54-.2c-3.35-2-5.57-6-9.42-6.73-3.27-.57-6.32,1.54-9.27,3.07a29.16,29.16,0,0,1-23.53,1.31c-.53-4.22-1.62-9.55-2.15-13.77-.42-3.3-.84-6.71.14-9.89s3.74-6.07,7.06-6.07h2.24l151.12-.29,60.16-.11h1"/><path class="cls-2" d="M697.22,1461.08c15.09-.08,31.51,3.72,40.33,15.87,7.08,9.77,7.56,22.27,6.34,34.58-.36,3.66-.88,7.31-1.42,10.86"/><path class="cls-2" d="M525.45,1523.77c.21-5,.43-9.76.63-14.45,1.46-32.07,3-58.57,4.41-92.56,0,0-2.43-8.12,3.85-9.33,3.92-.76,42.19-6,70.71-4.91,17.28.66,31,3.65,31.29,11.39.32,7.56-2,14.93-3.21,22.41-.07.44-.13.88-.18,1.33-.83,6.52-.15,13.71,4,18.49a13.39,13.39,0,0,0,1.3,1.31c3.19,2.82,7.47,4,11.67,4.73q2.4.39,4.8.6c13.66,1.24,27.52-1.43,41.3-1.69h1.15"/><path class="cls-2" d="M736,1523.94a17.18,17.18,0,0,1,6.15.13,16.69,16.69,0,0,1,4.57,1.61,34.23,34.23,0,0,1,5.61,15.45c-6.79,4.44-12.45,10.55-19.61,14.37s-16.93,4.7-22.72-1c-2.26-2.23-3.85-5.38-6.81-6.56-7.85-3.11-14.8,10.3-22.9,7.9-4-1.18-6-5.78-9.71-7.63-4.75-2.38-10.38.4-14.77,3.39s-9.32,6.43-14.52,5.31c-4.75-1-8.12-5.67-12.91-6.56-6.23-1.16-11.56,4.32-17.61,6.21a16.37,16.37,0,0,1-14.17-2.26c-2.44-1.74-4.62-4.27-7.6-4.56a9.76,9.76,0,0,0-4.77,1.06c-4,1.74-7.57,4.22-11.61,5.75s-8.82,2-12.53-.19c-3.36-2-5.57-6-9.43-6.73-3.27-.57-6.32,1.55-9.27,3.07a29.16,29.16,0,0,1-23.51,1.3c-.54-4.22-1.63-9.55-2.17-13.76-.42-3.29-.83-6.72.14-9.9s3.74-6,7.07-6.06h2.57l146.89-.23L736,1524h.66"/><path class="cls-2" d="M655.12,357.06c1.6,12.22,9.35,72.66,8.12,82.77"/><path class="cls-2" d="M749.63,303.5l.12.71c2.31,14.66,3.92,38.87,4.35,53.4.43,14.36-.22,29.36-7.1,42-4.45,8.15-12.21,14.94-20.9,17.69a25.89,25.89,0,0,1-14.65.5"/><path class="cls-2" d="M726.11,417.29c-.74,8.27,0,13,.82,21.3"/><path class="cls-2" d="M647.81,325l.39,0c25.58-1.72,73-17.15,101.55-20.77,2.25-.29,4.38-.49,6.38-.62,4.46-.28,9.22-.66,12.77-3.39a9.33,9.33,0,0,0,3.23-5.09,6.34,6.34,0,0,0-1.7-6.51,8.89,8.89,0,0,0-5.51-2c-13.84-.31-18.87-1.3-35.07-2.27"/><path class="cls-2" d="M772.62,295.26a8.54,8.54,0,0,0,5.51-5.31,8.29,8.29,0,0,0,.45-3,8.43,8.43,0,0,0-1.48-4.54,11.4,11.4,0,0,0-6-4.1,33.92,33.92,0,0,0-7.24-1.21c-4.33-.42-8.11-.9-12.44-1.32-3.15-.29-15.63-1.56-18.68-2.41"/><path class="cls-2" d="M779.4,286.88a8.22,8.22,0,0,0,1.4-14.1c-1.92-1.41-4.35-1.91-6.69-2.36-7.56-1.44-22.4-4.44-30-5.51"/><path class="cls-2" d="M699.19,256.81l0,0c1.67-1.68,4.52-7.82,5.76-9.79a10.21,10.21,0,0,0,1.72-6.67,5.12,5.12,0,0,0-2.8-4.14c-2-.84-4.3.19-6.16,1.33-3.53,2.17-6.74,4.78-10.15,7.15-7.26,5.08-51.19,19.71-59.67,22.3"/><path class="cls-2" d="M697,256.57a21.25,21.25,0,0,1,2.27.21c8.5,1.16,32.08,6.67,42.86,7.88.74.08,1.41.15,2,.19l.69,0"/><path class="cls-3" d="M867.32,573.28c-.19-.34-.36-.68-.54-1-12.56-23.14-15.4-28.71-29.39-51.68-11.75-19.29-28.47-46.28-48-57.67-31-18.11-50.3,6.77-51.9,6.86s-1.09-30.59-8.86-30.18l-1.66.08c-13.42.55-46.55.56-63.72,1l-3,.09a4.2,4.2,0,0,0-4.07,4c-.43,8.73-.57,17.9-1.43,17.35-24.47-15.72-48.28-12.46-69.06,4.72l-.17.15"/><path class="cls-2" d="M810.94,679.17c.07.2.16.4.23.61,6,15.94,16.94,56.23,58,60.36a90.22,90.22,0,0,0,42.62-5.89c36.19-14.6,56.69-54.49,60.94-93.29s-4.54-77.64-10.47-116.21c-5-32.37-8.12-65.69-21.79-95.46a11.82,11.82,0,0,0-1.32-2.36,4.87,4.87,0,0,0-1.26-1.22c-1.51-1-3.44-.83-5.22-.66l-72.42,6.84-3.62.34c4.48,45.65,6.23,93.42,10.12,140,1.34,16,2.93,32,5,47.6"/><path class="cls-2" d="M860.27,432s0,0,0-.06a45.94,45.94,0,0,0,.74-10.57c-.79-6.48,3.44-12.34,6.54-18.08,5.71-10.6,8-22.65,10.85-34.34.78-3.15,1.9-6.64,4.79-8.1a5,5,0,0,1,1.26-.46c3.2-.74,6.82,1.38,8.42,4.39,1.81,3.42,1.61,7.52,1,11.34a59.2,59.2,0,0,1-2.79,10.79c-.67,1.88-1.46,3.8-1.23,5.78.5,4.31,5.18,6.55,8.36,9.49a16.65,16.65,0,0,1,4.51,16.5"/><path class="cls-2" d="M931.81,414c-.44-.75-.85-1.46-1.22-2.13-3.67-6.48-4.57-9.77-5.49-18.11-.33-3-.42-6.18,1.11-8.76s5.18-4.09,7.63-2.36c-2.68-4.33-3.49-9.57-3.63-14.66-.06-2.08,0-4.35,1.4-5.95s4.35-1.81,5.26.06a54.5,54.5,0,0,1-5.26-17.41c-.26-2.07-.32-4.4,1-6s3.64-1.81,5.67-1.58c6.27.73,11.27,4.08,14,11.48l.06.16"/><path class="cls-2" d="M744.89,264.26c-.13-3.64-.28-10.57-1.84-13.86s-4.9-6-8.52-5.67c-1.62.15-3.47.83-4.72-.21a4.84,4.84,0,0,1-1-1.54c-5.22-10.95-12.68-20.67-20.08-30.29a104.57,104.57,0,0,0-10.33-12.1c-6.49-6.22-14.44-10.65-22.3-15-9.2-5.12-18.94-10.38-29.48-10.28a46.56,46.56,0,0,0-15.46,3.32,21.82,21.82,0,0,0-6.7,3.52,22.16,22.16,0,0,0-3.83,4.52,104.38,104.38,0,0,0-11,20.74c-2.1,5.38-3.78,11-3.81,16.79s1.72,11.74,5.73,15.91a9.8,9.8,0,0,1,1.92,2.3,8.42,8.42,0,0,1,.66,3.45,82.16,82.16,0,0,0,5.12,23.61"/><path class="cls-2" d="M614.7,244c.45-4.81,8.21-6,9-10.77"/><path class="cls-2" d="M884.42,360.18c2.66-8.6,13.48-48.63,15.94-62.08a79.81,79.81,0,0,1,2.94-12.76,4.62,4.62,0,0,1,2-2.75,4.92,4.92,0,0,1,2.9-.18l50.58,7.22a22.46,22.46,0,0,1,6.25,2c1.48,1-1.44,16.38-3.24,22.74-2.89,10.23-6.24,21.44-9.33,32.85"/><path class="cls-2" d="M902.31,409.57c.14,0,.27,0,.41.06,7.94.9,17.88,2,27.18,3"/><path class="cls-2" d="M951.88,347.12a1.43,1.43,0,0,0,.08.22c.13.4.27.82.39,1.22a177.93,177.93,0,0,1,5.1,19.23,21.13,21.13,0,0,1,.58,7.54A7.9,7.9,0,0,1,954,381.4a3,3,0,0,0-1.16.72,2.1,2.1,0,0,0-.32,1.23,47.22,47.22,0,0,0,.61,5.78,7.39,7.39,0,0,1-1.27,5.52c-.84,1-2.11,1.66-2.73,2.82s-.42,2.71-.26,4.08a30.74,30.74,0,0,1-1.66,14.7,23.81,23.81,0,0,1-8,10.68c-.37.28-.77.54-1.16.79"/><line class="cls-2" x1="851.78" y1="1168.63" x2="855.22" y2="1136.79"/><line class="cls-2" x1="915.27" y1="1163.96" x2="920.34" y2="1138.8"/><polyline class="cls-2" points="534.34 1407.43 537.91 1359.92 537.99 1359.01"/><polyline class="cls-2" points="608.85 1361.17 608.84 1361.26 605.07 1401.74"/><path class="cls-2" d="M915.34,1317.86l0,0c-13.5,19.45-27.14,39.06-44.35,55.3-13.8,13-29.91,24-40.92,39.4-9.3,13-14.39,28.55-19.35,43.78q-6.32,19.41-12.64,38.84c-6.51,20-13.09,40.46-12.95,61.51"/><path class="cls-2" d="M844.94,1547.76c1.14-16,10.5-30,19.55-43.14l38.59-56.18c6.3-9.16,12.62-18.35,17.63-28.26"/><path class="cls-2" d="M994.2,1373.44a147,147,0,0,0,55.6,84c7.15,5.25,14.8,9.85,21.6,15.57a84.55,84.55,0,0,1,26.59,41c2.85,9.87,4.11,20.74,10.74,28.57"/><path class="cls-2" d="M1037.54,1320c.24.25.49.51.74.75,13.67,13.84,26.93,28.73,34.13,46.76,4,10,6,20.73,10.28,30.64,10.35,24,32.56,40.57,54.36,55.07,11.72,7.8,24.31,16.17,29.41,29.28,2.86,7.35,3,15.41,4.19,23.21a88,88,0,0,0,13.34,34.9c4,6.13,8.94,12.05,10.37,19.25"/><path class="cls-2" d="M1049.36,1533.08a74.45,74.45,0,0,0-9.91-20.23"/><polyline class="cls-3" points="788.88 522.16 811.17 679.78 828.81 804.52"/><path class="cls-2" d="M543.33,775.34,828.71,805.5l75.15,7.94s97.34,5.4,87.91,84.38c-10.8,90.6-31.88,241.8-31.88,241.8l-39.54-1.26-65.11-2.09-21.93-.7,3.35-36.08,12.86-138.37"/><path class="cls-3" d="M611.15,575.46c-16.22,12.58-28.54,20.49-43.81,30A121.74,121.74,0,0,1,540.75,618a115.91,115.91,0,0,1-76.17-1.38c-34.66-12.54-61.81-46.94-60.78-83.79.46-16.51,8.67-48.47,44.28-87.42,66.66-72.9,117.08-117.65,171.64-175.48,1.92-2,3.85-4.08,5.77-6.16.62,1.16,1.21,2.34,1.78,3.53,8.24,16.76,14,36.12,20.93,57.7,2.93,9.1,6.08,18.58,9.76,28.43-.93,1.1-1.9,2.29-2.92,3.6-16.65,21.33-45.11,69-69.38,109.85-16.2,27.28-30.52,51.53-38.19,62.85"/><path class="cls-4" d="M672.34,1523.94c.54-4.39,1.24-8.77,2.1-13.11s1.8-8.47,2.93-12.65c2.46-9.11,5.65-18.13,10.71-26.11a54,54,0,0,1,9.13-11h0c.54-.48,1.08-1,1.64-1.43"/><path class="cls-4" d="M746.62,1511.56l-2.73,0-69.45-.7-148.36-1.51-1.91,0"/><path class="cls-4" d="M552.13,1440.61a19.65,19.65,0,0,1,7.61,10.78,16.37,16.37,0,0,1-1.91,12.92,19.42,19.42,0,0,1-5.58,5.48,18.84,18.84,0,0,1-10,3.49,11.44,11.44,0,0,1-9.42-4.28,14.31,14.31,0,0,1-2.24-5.24c-1.49-6.1-.14-12.58,1.77-18.46,1.43-4.4,4.4-6.63,8.94-7.47A14,14,0,0,1,552.13,1440.61Z"/><path class="cls-4" d="M616.08,1446.09a50.3,50.3,0,0,1,11.42-6.77,30.38,30.38,0,0,1,5.45-1.67c.35-.08.7-.15,1.06-.21"/><path class="cls-4" d="M630.88,1463.12a39.43,39.43,0,0,1,6.11-7c.46-.41.92-.81,1.4-1.21"/><path class="cls-4" d="M651.16,1471.08l.4-1c.6-1.55,1.2-3.09,1.88-4.61.4-.9.85-1.79,1.32-2.67.33-.62.69-1.23,1.06-1.83"/><path class="cls-4" d="M992,1291c.19-1.61.41-3.22.65-4.82.62-4.14,1.39-8.28,2.29-12.37.62-2.88,1.32-5.73,2.08-8.57,2.47-9.11,5.66-18.13,10.72-26.11a50.78,50.78,0,0,1,14.86-15.43c.28-.19.59-.38.88-.56"/><path class="cls-4" d="M1061.12,1274.3h-.87l-65.31-.45c-50-.33-81.84-.48-152.82-1h-1.33"/><path class="cls-4" d="M871.79,1207.7a19.69,19.69,0,0,1,7.6,10.77,16.42,16.42,0,0,1-1.89,12.93,19.33,19.33,0,0,1-5.59,5.48,18.84,18.84,0,0,1-10,3.49,11.5,11.5,0,0,1-9.43-4.28,14.51,14.51,0,0,1-2.24-5.23c-1.48-6.11-.14-12.58,1.77-18.47,1.43-4.4,4.41-6.63,9-7.47A14,14,0,0,1,871.79,1207.7Z"/><path class="cls-4" d="M935.74,1213.18a50.36,50.36,0,0,1,11.43-6.77c.63-.25,1.26-.49,1.9-.71l.37-.12"/><path class="cls-4" d="M950.54,1230.21a39.13,39.13,0,0,1,7.59-8.25c.56-.47,1.13-.91,1.72-1.34"/><path class="cls-4" d="M970.82,1238.18c.13-.35.27-.69.4-1,.6-1.55,1.2-3.09,1.88-4.61a31,31,0,0,1,4.37-7.22,20.05,20.05,0,0,1,1.53-1.66"/><path class="cls-2" d="M714.62,824.89l-1.35,2.44v0a415.72,415.72,0,0,0-35.67,85.9"/><path class="cls-2" d="M687.5,918.63a100.28,100.28,0,0,0,33.67-13.19,51.3,51.3,0,0,0,13.51-11.36c8.47-10.65,9.87-26,5-38.68-4.7-12.26-14.69-22-26.41-28l-.12-.06c-.37-.2-.76-.39-1.14-.57"/><path class="cls-2" d="M711.8,827l1.34.3.13,0q42.06,9.42,84.11,18.84c3.65.81,7.38,1.66,10.48,3.46,8.3,4.79,9.35,14.43,8.76,22.73a128.6,128.6,0,0,1-18.9,57.92"/><path class="cls-2" d="M602.29,804.54a90.23,90.23,0,0,0,37,43.08c15.54,9.26,33.44,13.59,51.11,17.42"/><path class="cls-2" d="M818.1,890.79a308.55,308.55,0,0,0,80.17,5.6c4-.24,8-.57,11.85.4s7.55,3.42,8.87,7.16c2,5.76-2,11.62-4.39,17.24a8.06,8.06,0,0,0,.59,8.61c3.43,6.06,9,11.82,8.28,18.75-.61,5.62-5.19,9.82-8.54,14.37-7.24,9.84-9.14,22.56-10.09,34.74-2.65,33.8,0,68.94-12.46,100.45"/><path class="cls-2" d="M836.11,1099.47l.55,0,83.81,2.4"/><path class="cls-2" d="M522.13,1332l84.36,2.42"/><path class="cls-2" d="M635.5,949.74c1.11,27.41,2.18,55.3-4.69,81.86-3.46,13.36-8.88,26.19-11.38,39.77-3.27,17.81-1.36,36.2-3.86,54.13-2,14.22-6.7,27.91-9.55,42-5.49,27.17-3.9,55.33-8.44,82.68-3.61,21.77-11.06,44.15-5,65.35"/></svg>