<svg width="643" height="142" viewBox="0 0 643 142" fill="none" xmlns="http://www.w3.org/2000/svg">
<path d="M59.9404 142.001C48.0738 142.001 37.6738 139.601 28.7404 134.801C19.8071 129.868 12.9404 122.934 8.14043 114.001C3.34043 104.934 0.940431 94.2676 0.940431 82.001V0.000967026H32.9404V82.001C32.9404 87.601 34.1404 92.601 36.5404 97.001C38.9404 101.401 42.2071 104.868 46.3404 107.401C50.4738 109.801 55.0071 111.001 59.9404 111.001C64.8738 111.001 69.4071 109.801 73.5404 107.401C77.6738 104.868 80.9404 101.401 83.3404 97.001C85.7404 92.601 86.9404 87.601 86.9404 82.001V0.000967026H118.94V82.001C118.94 94.2676 116.54 104.934 111.74 114.001C106.94 122.934 100.074 129.868 91.1404 134.801C82.2071 139.601 71.8071 142.001 59.9404 142.001ZM165.886 140.001H133.886V0.000967026H172.886L216.886 84.001H220.886V0.000967026H252.886V140.001H213.886L169.886 56.001H165.886V140.001ZM300.956 140.001H268.956V0.000967026H300.956V140.001ZM348.517 142.001C340.784 142.001 333.984 140.601 328.117 137.801C322.25 134.868 317.717 131.068 314.517 126.401C311.45 121.601 309.917 116.468 309.917 111.001H321.317C321.317 116.601 323.784 121.401 328.717 125.401C333.65 129.401 340.25 131.401 348.517 131.401C356.917 131.401 363.384 129.734 367.917 126.401C372.584 123.068 374.917 118.801 374.917 113.601C374.917 104.268 368.717 98.5343 356.317 96.401L338.917 93.401C320.917 90.3343 311.917 81.3343 311.917 66.401C311.917 58.1343 314.984 51.3343 321.117 46.001C327.384 40.6676 336.184 38.001 347.517 38.001C354.984 38.001 361.584 39.4676 367.317 42.401C373.05 45.201 377.45 49.001 380.517 53.801C383.717 58.4676 385.317 63.5343 385.317 69.001H373.917C373.917 63.2676 371.517 58.4676 366.717 54.601C361.917 50.601 355.517 48.601 347.517 48.601C339.784 48.601 333.784 50.2676 329.517 53.601C325.384 56.9343 323.317 61.201 323.317 66.401C323.317 70.6676 324.65 74.201 327.317 77.001C330.117 79.6676 334.65 81.5343 340.917 82.601L358.317 85.601C376.984 88.9343 386.317 98.2676 386.317 113.601C386.317 121.868 382.984 128.668 376.317 134.001C369.784 139.334 360.517 142.001 348.517 142.001ZM410.119 140.001H398.919V0.000967026H410.119V86.201L459.719 40.001H474.519L421.919 89.001L476.519 140.001H461.719L410.119 91.801V140.001ZM491.65 140.001H480.45V40.001H491.65V140.001ZM492.85 16.001H479.45V2.60097H492.85V16.001ZM522.642 140.001H511.442V0.000967026H522.642V140.001ZM554.587 140.001H543.387V0.000967026H554.587V140.001ZM604.533 142.001C596.799 142.001 589.999 140.601 584.133 137.801C578.266 134.868 573.733 131.068 570.533 126.401C567.466 121.601 565.933 116.468 565.933 111.001H577.333C577.333 116.601 579.799 121.401 584.733 125.401C589.666 129.401 596.266 131.401 604.533 131.401C612.933 131.401 619.399 129.734 623.933 126.401C628.599 123.068 630.933 118.801 630.933 113.601C630.933 104.268 624.733 98.5343 612.333 96.401L594.933 93.401C576.933 90.3343 567.933 81.3343 567.933 66.401C567.933 58.1343 570.999 51.3343 577.133 46.001C583.399 40.6676 592.199 38.001 603.533 38.001C610.999 38.001 617.599 39.4676 623.333 42.401C629.066 45.201 633.466 49.001 636.533 53.801C639.733 58.4676 641.333 63.5343 641.333 69.001H629.933C629.933 63.2676 627.533 58.4676 622.733 54.601C617.933 50.601 611.533 48.601 603.533 48.601C595.799 48.601 589.799 50.2676 585.533 53.601C581.399 56.9343 579.333 61.201 579.333 66.401C579.333 70.6676 580.666 74.201 583.333 77.001C586.133 79.6676 590.666 81.5343 596.933 82.601L614.333 85.601C632.999 88.9343 642.333 98.2676 642.333 113.601C642.333 121.868 638.999 128.668 632.333 134.001C625.799 139.334 616.533 142.001 604.533 142.001Z" fill="black"/>
</svg>
